<svg width="38" height="35" viewBox="0 0 38 35" fill="none" xmlns="http://www.w3.org/2000/svg">
<path d="M34.6558 0H17.1182C16.3408 0.00319498 15.5964 0.314676 15.0484 0.866091C14.5004 1.41751 14.1935 2.16381 14.1951 2.94123V8.56239C13.9035 8.54147 13.6112 8.53041 13.3183 8.5292C10.7724 8.51328 8.27597 9.23196 6.12825 10.5991C3.98052 11.9662 2.27267 13.9238 1.20944 16.2371C0.146209 18.5504 -0.227272 21.1212 0.13377 23.6414C0.494813 26.1616 1.57506 28.5242 3.24499 30.446C4.91493 32.3677 7.10369 33.767 9.54886 34.4762C11.994 35.1853 14.5919 35.1742 17.0309 34.4442C19.4699 33.7141 21.6466 32.2961 23.3 30.3601C24.9534 28.4242 26.0134 26.0524 26.3529 23.5292H34.6558C35.4331 23.526 36.1774 23.2146 36.7254 22.6633C37.2734 22.1121 37.5804 21.3659 37.5789 20.5886V2.94123C37.5805 2.16381 37.2736 1.41751 36.7256 0.866091C36.1776 0.314676 35.4332 0.00319498 34.6558 0ZM13.3201 33.8235C10.1428 33.7917 7.10646 32.5073 4.87093 30.2493C2.6354 27.9912 1.38136 24.9422 1.38136 21.7647C1.38136 18.5873 2.6354 15.5382 4.87093 13.2802C7.10646 11.0222 10.1428 9.73772 13.3201 9.70593C13.6158 9.70593 13.9067 9.72947 14.1969 9.75059V20.5886C14.1953 21.366 14.5022 22.1123 15.0502 22.6637C15.5983 23.2152 16.3426 23.5266 17.1201 23.5298H25.1593C24.7466 26.3795 23.3243 28.9862 21.1514 30.8755C18.9785 32.7647 16.1995 33.8109 13.3201 33.8235ZM20.8693 22.3531L24.8153 18.3824C24.9362 18.8022 25.0341 19.2282 25.1086 19.6587L22.4323 22.3531H20.8693ZM25.2745 21.1564C25.2842 21.3592 25.3047 21.5596 25.3047 21.7647C25.3047 21.9699 25.2848 22.1564 25.2751 22.3531H24.0827L25.2745 21.1564ZM19.2146 22.3531H17.6523L23.8836 16.0832C24.0678 16.4292 24.2354 16.7844 24.3862 17.1489L19.2146 22.3531ZM16.2426 22.1081C15.9138 21.9184 15.6549 21.6276 15.5046 21.279L22.5958 14.1437C22.8311 14.4334 23.0544 14.7333 23.2626 15.0441L16.2426 22.1081ZM15.3646 19.7546V18.1857L20.9966 12.5186C21.2797 12.757 21.5524 13.0062 21.8125 13.2693L15.3646 19.7546ZM15.3646 16.5195V14.9505L19.0891 11.2031C19.421 11.3878 19.7429 11.5871 20.0546 11.8011L15.3646 16.5195ZM15.3646 13.2844V11.7154L16.8328 10.2382C17.222 10.3577 17.6047 10.4973 17.9794 10.6564L15.3646 13.2844ZM15.3646 10.0493V9.89662C15.4093 9.90447 15.4545 9.90869 15.4986 9.91714L15.3646 10.0493ZM26.4573 22.3531C26.4663 22.1576 26.4718 21.9621 26.4718 21.7647C26.4755 18.6211 25.3598 15.5789 23.3246 13.183C21.2893 10.7872 18.4675 9.19427 15.3646 8.68972V2.94123C15.3638 2.47489 15.548 2.02726 15.8767 1.69649C16.2054 1.36572 16.6519 1.17881 17.1182 1.17673H34.6558C35.1221 1.17881 35.5686 1.36572 35.8973 1.69649C36.2261 2.02726 36.4102 2.47489 36.4094 2.94123V20.5886C36.4079 20.9008 36.3229 21.2068 36.1632 21.4751L35.5368 22.1057C35.2708 22.266 34.9664 22.3514 34.6558 22.3531H26.4573Z" fill="white"/>
</svg>
