<svg width="663" height="860" viewBox="0 0 663 860" fill="none" xmlns="http://www.w3.org/2000/svg">
<mask id="mask0_229_2740" style="mask-type:alpha" maskUnits="userSpaceOnUse" x="0" y="0" width="663" height="860">
<rect width="663" height="860" fill="#D9D9D9"/>
</mask>
<g mask="url(#mask0_229_2740)">
<g opacity="0.06">
<path d="M-147.204 -74.81L-135.79 -91.2332L379.899 267.164L368.485 283.588L-147.204 -74.81Z" fill="url(#paint0_linear_229_2740)"/>
<path d="M-151.173 -22.4771L-139.759 -38.9003L375.93 319.497L364.516 335.921L-151.173 -22.4771Z" fill="url(#paint1_linear_229_2740)"/>
<path d="M-155.142 29.8558L-143.728 13.4326L371.961 371.83L360.547 388.253L-155.142 29.8558Z" fill="url(#paint2_linear_229_2740)"/>
<path d="M-159.111 82.1888L-147.697 65.7656L367.992 424.163L356.578 440.586L-159.111 82.1888Z" fill="url(#paint3_linear_229_2740)"/>
<path d="M-163.08 134.522L-151.666 118.098L364.023 476.496L352.609 492.919L-163.08 134.522Z" fill="url(#paint4_linear_229_2740)"/>
<path d="M-167.049 186.855L-155.635 170.431L360.054 528.829L348.64 545.252L-167.049 186.855Z" fill="url(#paint5_linear_229_2740)"/>
<path d="M-171.018 239.188L-159.604 222.764L356.085 581.162L344.671 597.585L-171.018 239.188Z" fill="url(#paint6_linear_229_2740)"/>
<path d="M-174.987 291.521L-163.573 275.097L352.116 633.495L340.702 649.918L-174.987 291.521Z" fill="url(#paint7_linear_229_2740)"/>
<path d="M-178.956 343.853L-167.542 327.43L348.147 685.828L336.733 702.251L-178.956 343.853Z" fill="url(#paint8_linear_229_2740)"/>
<path d="M-182.925 396.186L-171.511 379.763L344.178 738.161L332.765 754.584L-182.925 396.186Z" fill="url(#paint9_linear_229_2740)"/>
</g>
</g>
<defs>
<linearGradient id="paint0_linear_229_2740" x1="-161.717" y1="122.919" x2="287.812" y2="417.257" gradientUnits="userSpaceOnUse">
<stop stop-color="#8B0000"/>
<stop offset="1" stop-color="#8B0000" stop-opacity="0"/>
</linearGradient>
<linearGradient id="paint1_linear_229_2740" x1="-161.717" y1="122.919" x2="287.812" y2="417.257" gradientUnits="userSpaceOnUse">
<stop stop-color="#8B0000"/>
<stop offset="1" stop-color="#8B0000" stop-opacity="0"/>
</linearGradient>
<linearGradient id="paint2_linear_229_2740" x1="-161.717" y1="122.919" x2="287.812" y2="417.257" gradientUnits="userSpaceOnUse">
<stop stop-color="#8B0000"/>
<stop offset="1" stop-color="#8B0000" stop-opacity="0"/>
</linearGradient>
<linearGradient id="paint3_linear_229_2740" x1="-161.717" y1="122.919" x2="287.812" y2="417.257" gradientUnits="userSpaceOnUse">
<stop stop-color="#8B0000"/>
<stop offset="1" stop-color="#8B0000" stop-opacity="0"/>
</linearGradient>
<linearGradient id="paint4_linear_229_2740" x1="-161.717" y1="122.919" x2="287.812" y2="417.257" gradientUnits="userSpaceOnUse">
<stop stop-color="#8B0000"/>
<stop offset="1" stop-color="#8B0000" stop-opacity="0"/>
</linearGradient>
<linearGradient id="paint5_linear_229_2740" x1="-161.717" y1="122.919" x2="287.812" y2="417.257" gradientUnits="userSpaceOnUse">
<stop stop-color="#8B0000"/>
<stop offset="1" stop-color="#8B0000" stop-opacity="0"/>
</linearGradient>
<linearGradient id="paint6_linear_229_2740" x1="-161.717" y1="122.919" x2="287.812" y2="417.257" gradientUnits="userSpaceOnUse">
<stop stop-color="#8B0000"/>
<stop offset="1" stop-color="#8B0000" stop-opacity="0"/>
</linearGradient>
<linearGradient id="paint7_linear_229_2740" x1="-161.717" y1="122.919" x2="287.812" y2="417.257" gradientUnits="userSpaceOnUse">
<stop stop-color="#8B0000"/>
<stop offset="1" stop-color="#8B0000" stop-opacity="0"/>
</linearGradient>
<linearGradient id="paint8_linear_229_2740" x1="-161.717" y1="122.919" x2="287.812" y2="417.257" gradientUnits="userSpaceOnUse">
<stop stop-color="#8B0000"/>
<stop offset="1" stop-color="#8B0000" stop-opacity="0"/>
</linearGradient>
<linearGradient id="paint9_linear_229_2740" x1="-161.717" y1="122.919" x2="287.812" y2="417.257" gradientUnits="userSpaceOnUse">
<stop stop-color="#8B0000"/>
<stop offset="1" stop-color="#8B0000" stop-opacity="0"/>
</linearGradient>
</defs>
</svg>
