<svg width="42" height="43" viewBox="0 0 42 43" fill="none" xmlns="http://www.w3.org/2000/svg">
<path d="M27.7721 10.9611L32.0745 15.3389C25.9081 20.7605 19.7644 26.1615 13.5901 31.5908L11.2027 29.1617C16.7174 23.1049 22.2241 17.0541 27.7721 10.9611Z" fill="#8B0000"/>
<path d="M3.63497 24.5466C2.58478 24.156 1.58539 23.7838 0.546387 23.3976C3.06897 15.8767 5.57713 8.40235 8.09969 0.883118C10.0589 1.54685 11.9577 2.19127 13.9479 2.86552C10.5141 10.0848 7.09367 17.2738 3.63324 24.5466L3.63497 24.5466Z" fill="#8B0000"/>
<path d="M19.1657 42.3465C18.7951 41.2932 18.4429 40.2883 18.0749 39.2376C25.3779 35.9167 32.6295 32.6207 39.9238 29.3032C40.5609 31.2952 41.1756 33.2189 41.8045 35.1849C34.2348 37.5792 26.7207 39.9565 19.1666 42.3456L19.1657 42.3465Z" fill="#8B0000"/>
</svg>
