<svg width="35" height="35" viewBox="0 0 35 35" fill="none" xmlns="http://www.w3.org/2000/svg">
<path d="M34.8284 21.3338C34.7968 21.2949 34.107 20.6079 34.107 20.6079C33.0075 19.5134 31.3479 19.549 30.0316 20.1648L30.0948 20.0474C30.1398 19.9661 30.1675 19.8765 30.1764 19.7841C30.1852 19.6916 30.1749 19.5984 30.1462 19.51C30.1171 19.4239 30.0707 19.3446 30.0097 19.2771C29.9487 19.2096 29.8745 19.1554 29.7917 19.1177C29.7293 19.086 29.6648 19.0585 29.5987 19.0353L28.7633 18.7683C26.9897 18.1915 25.2557 19.4231 24.4519 20.9455L22.0247 24.6483H21.5438C22.0203 23.9882 22.2729 23.1928 22.2646 22.3786L22.2291 21.9863C22.2113 21.8158 22.131 21.658 22.0036 21.5433C21.8761 21.4286 21.7107 21.3652 21.5393 21.3654H11.9068C11.7385 21.3658 11.576 21.4272 11.4495 21.5382L7.92222 24.6291H6.92143V22.9459C6.92098 22.7638 6.84837 22.5893 6.7195 22.4607C6.59063 22.332 6.41601 22.2597 6.23391 22.2595H0.686385C0.504344 22.2595 0.32976 22.3319 0.201038 22.4606C0.0723154 22.5893 0 22.7639 0 22.9459C0 23.128 0.0723154 23.3025 0.201038 23.4313C0.32976 23.56 0.504344 23.6323 0.686385 23.6323H5.53398V33.6272H2.60951C2.42746 33.6272 2.25288 33.6995 2.12416 33.8283C1.99544 33.957 1.92312 34.1316 1.92312 34.3136C1.92312 34.4957 1.99544 34.6702 2.12416 34.799C2.25288 34.9277 2.42746 35 2.60951 35H6.23391C6.41609 34.9994 6.59068 34.927 6.71981 34.7985C6.84894 34.67 6.9222 34.4958 6.92369 34.3136V33.4421H12.075C12.1557 33.4415 12.2357 33.427 12.3115 33.3992L25.8772 28.3902C25.9297 28.3694 25.9798 28.3431 26.0268 28.3117L34.6946 22.3617C34.7746 22.3056 34.842 22.2332 34.8922 22.1494C34.9425 22.0656 34.9746 21.9722 34.9865 21.8751C35.0004 21.7789 34.9936 21.6808 34.9664 21.5874C34.9393 21.494 34.8918 21.4075 34.8284 21.3338ZM25.6277 21.6516L25.6632 21.5952C26.1797 20.5949 27.2912 19.72 28.3394 20.0615L28.4929 20.1084L27.7963 21.3852C27.7976 21.3977 27.7958 21.4104 27.791 21.422C27.7861 21.4336 27.7785 21.4439 27.7687 21.4518L24.5371 23.319L25.6277 21.6516ZM25.3127 27.1433L11.9463 32.0699H6.92256V25.9822H8.17566C8.342 25.9804 8.50221 25.9192 8.62723 25.8094L12.1749 22.7173H20.8676C20.8033 23.1618 20.6224 23.5814 20.3432 23.9332C20.0867 24.2945 19.7018 24.5443 19.2673 24.6314H13.7238C13.5417 24.6314 13.3671 24.7037 13.2384 24.8324C13.1097 24.9612 13.0374 25.1357 13.0374 25.3178C13.0374 25.4998 13.1097 25.6744 13.2384 25.8031C13.3671 25.9319 13.5417 26.0042 13.7238 26.0042H22.434C22.5553 26.0039 22.6745 25.9729 22.7805 25.9139C22.7805 25.9139 30.0322 21.7521 30.0519 21.7368C30.9624 21.0815 32.3538 20.8032 33.1339 21.5799L33.2468 21.6928L25.3127 27.1433ZM31.8413 11.4337C31.9316 11.434 32.0212 11.4164 32.1047 11.382C32.1883 11.3476 32.2643 11.2971 32.3283 11.2334C32.3924 11.1697 32.4432 11.0939 32.478 11.0105C32.5128 10.9271 32.5308 10.8377 32.531 10.7473V5.28336C32.531 5.10042 32.4584 4.92497 32.329 4.79562C32.1997 4.66626 32.0242 4.59359 31.8413 4.59359C31.6583 4.59359 31.4829 4.66626 31.3535 4.79562C31.2242 4.92497 31.1515 5.10042 31.1515 5.28336V10.7434C31.1512 10.8341 31.1688 10.9239 31.2034 11.0078C31.2379 11.0917 31.2887 11.1678 31.3528 11.232C31.4169 11.2962 31.4931 11.347 31.5769 11.3816C31.6607 11.4162 31.7506 11.434 31.8413 11.4337ZM31.8413 15.0621C31.9316 15.0623 32.0212 15.0447 32.1047 15.0104C32.1883 14.976 32.2643 14.9255 32.3283 14.8618C32.3924 14.798 32.4432 14.7223 32.478 14.6389C32.5128 14.5555 32.5308 14.4661 32.531 14.3757V14.203C32.531 14.02 32.4584 13.8446 32.329 13.7152C32.1997 13.5859 32.0242 13.5132 31.8413 13.5132C31.6583 13.5132 31.4829 13.5859 31.3535 13.7152C31.2242 13.8446 31.1515 14.02 31.1515 14.203V14.3757C31.1517 14.4661 31.1697 14.5555 31.2045 14.6389C31.2393 14.7223 31.2902 14.798 31.3542 14.8618C31.4183 14.9255 31.4943 14.976 31.5778 15.0104C31.6614 15.0447 31.7509 15.0623 31.8413 15.0621ZM9.54222 7.11899C9.72439 7.1184 9.89899 7.046 10.0281 6.9175C10.1573 6.789 10.2305 6.61477 10.232 6.4326V0.689772C10.232 0.506833 10.1593 0.331387 10.03 0.20203C9.90061 0.0726722 9.72516 0 9.54222 0C9.35928 0 9.18384 0.0726722 9.05448 0.20203C8.92512 0.331387 8.85245 0.506833 8.85245 0.689772V6.43994C8.85527 6.62086 8.92924 6.79339 9.05834 6.92016C9.18744 7.04694 9.36128 7.11776 9.54222 7.11729V7.11899ZM9.54222 14.0969C9.63392 14.0971 9.72475 14.079 9.80936 14.0437C9.89397 14.0083 9.97066 13.9564 10.0349 13.891C10.0992 13.8256 10.1497 13.7479 10.1836 13.6627C10.2174 13.5775 10.2339 13.4864 10.232 13.3947V9.53883C10.232 9.3559 10.1593 9.18045 10.03 9.05109C9.90061 8.92173 9.72516 8.84906 9.54222 8.84906C9.35928 8.84906 9.18384 8.92173 9.05448 9.05109C8.92512 9.18045 8.85245 9.3559 8.85245 9.53883V13.3947C8.85057 13.4864 8.86703 13.5775 8.90088 13.6627C8.93472 13.7479 8.98526 13.8256 9.04952 13.891C9.11378 13.9564 9.19047 14.0083 9.27508 14.0437C9.35969 14.079 9.45052 14.0971 9.54222 14.0969ZM6.10973 13.8378C6.29203 13.8379 6.46693 13.7657 6.59604 13.637C6.72516 13.5083 6.79793 13.3337 6.79838 13.1514V7.46782C6.79838 7.28489 6.7257 7.10944 6.59635 6.98008C6.46699 6.85073 6.29154 6.77805 6.1086 6.77805C5.92566 6.77805 5.75022 6.85073 5.62086 6.98008C5.4915 7.10944 5.41883 7.28489 5.41883 7.46782V13.1514C5.41905 13.2417 5.43707 13.3312 5.47185 13.4146C5.50664 13.498 5.55751 13.5737 5.62156 13.6374C5.68561 13.7012 5.76159 13.7517 5.84516 13.786C5.92872 13.8204 6.01824 13.838 6.1086 13.8378H6.10973ZM6.10973 16.3778C6.29173 16.378 6.46638 16.306 6.59545 16.1777C6.72451 16.0494 6.79748 15.8752 6.79838 15.6932V15.5995C6.79838 15.4165 6.7257 15.2411 6.59635 15.1117C6.46699 14.9824 6.29154 14.9097 6.1086 14.9097C5.92566 14.9097 5.75022 14.9824 5.62086 15.1117C5.4915 15.2411 5.41883 15.4165 5.41883 15.5995V15.6937C5.41905 15.7841 5.43707 15.8735 5.47185 15.9569C5.50664 16.0403 5.55751 16.116 5.62156 16.1798C5.68561 16.2435 5.76159 16.294 5.84516 16.3284C5.92872 16.3628 6.01824 16.3803 6.1086 16.3801L6.10973 16.3778ZM18.4218 17.421C20.3729 17.9506 22.4494 17.7597 24.2713 16.8833C26.0931 16.0068 27.5383 14.5035 28.3422 12.6485C28.9933 11.1502 29.192 9.49418 28.9139 7.88438C28.6358 6.27458 27.893 4.78126 26.7769 3.58828C26.6517 3.45512 26.4788 3.37688 26.2961 3.37064C26.1134 3.3644 25.9356 3.43067 25.8015 3.55498C25.7353 3.61638 25.6819 3.69027 25.6444 3.77239C25.6069 3.85452 25.586 3.94325 25.5829 4.03349C25.5798 4.12372 25.5946 4.21368 25.6264 4.29818C25.6582 4.38268 25.7064 4.46006 25.7682 4.52585C26.9305 5.76226 27.6045 7.37858 27.6648 9.07447C27.7251 10.7704 27.1677 12.4305 26.0962 13.7463C25.0205 15.0653 23.506 15.953 21.8296 16.247C20.1532 16.5411 18.4269 16.2219 16.9666 15.3477C15.5081 14.474 14.4157 13.1015 13.8914 11.4843C13.3671 9.86704 13.4466 8.11461 14.1151 6.55147C14.7837 4.98833 15.9959 3.72035 17.5275 2.98231C19.059 2.24427 20.8061 2.08616 22.4452 2.53725C22.5329 2.56275 22.6248 2.57052 22.7155 2.56011C22.8062 2.5497 22.8939 2.52131 22.9735 2.47661C23.0531 2.43192 23.1229 2.3718 23.179 2.29978C23.2351 2.22777 23.2763 2.14529 23.3002 2.05717C23.324 1.96905 23.3301 1.87707 23.318 1.78658C23.3059 1.6961 23.2759 1.60893 23.2297 1.53018C23.1835 1.45143 23.1221 1.38268 23.0491 1.32793C22.976 1.27318 22.8928 1.23355 22.8042 1.21133C21.3591 0.775908 19.8238 0.734701 18.3574 1.09198C16.8909 1.44926 15.5467 2.19203 14.4638 3.2434C13.3845 4.29371 12.6081 5.61531 12.216 7.06935C11.8239 8.52339 11.8307 10.0562 12.2357 11.5067C12.6406 12.9572 13.4288 14.2719 14.5173 15.3126C15.6058 16.3533 16.9545 17.0816 18.4218 17.421Z" fill="white"/>
</svg>
