<svg width="42" height="45" viewBox="0 0 42 45" fill="none" xmlns="http://www.w3.org/2000/svg">
<path d="M13.9678 29.481H8.53586C6.27201 29.481 4.10088 28.5817 2.5001 26.9809C0.899312 25.3802 0 23.209 0 20.9452C0 18.6813 0.899312 16.5102 2.5001 14.9094C4.10088 13.3086 6.27201 12.4093 8.53586 12.4093C8.83417 12.4093 9.13228 12.4246 9.42902 12.4551C9.21025 10.9776 9.29849 9.47087 9.68823 8.02901C10.078 6.58715 10.7608 5.24115 11.6942 4.07508C12.6275 2.90901 13.7913 1.94793 15.1128 1.25186C16.4343 0.555793 17.8851 0.1397 19.3747 0.0295722C20.8642 -0.0805559 22.3604 0.117647 23.7699 0.611799C25.1794 1.10595 26.4719 1.88544 27.5666 2.90157C28.6612 3.9177 29.5346 5.14864 30.1322 6.5175C30.7297 7.88636 31.0386 9.36374 31.0395 10.8573V10.9862C32.528 10.7357 34.0551 10.8507 35.4893 11.3211C36.9236 11.7915 38.2221 12.6033 39.2731 13.6867C40.3242 14.77 41.0963 16.0925 41.5231 17.5403C41.9499 18.9881 42.0186 20.5179 41.7233 21.9982C41.7046 22.0993 41.666 22.1957 41.6097 22.2818C41.5534 22.3678 41.4805 22.4418 41.3954 22.4995C41.3102 22.5572 41.2145 22.5973 41.1137 22.6176C41.0128 22.638 40.909 22.6381 40.8082 22.6179C40.7073 22.5977 40.6115 22.5577 40.5262 22.5002C40.441 22.4427 40.368 22.3688 40.3116 22.2828C40.2552 22.1969 40.2164 22.1006 40.1975 21.9995C40.1786 21.8984 40.18 21.7945 40.2016 21.694C40.4621 20.3857 40.3812 19.0323 39.9666 17.7643C39.5521 16.4963 38.8179 15.3565 37.8349 14.4547C36.8518 13.5529 35.653 12.9195 34.3541 12.6156C33.0551 12.3118 31.6998 12.3476 30.4187 12.7197C30.2962 12.7554 30.1667 12.7604 30.0418 12.7341C29.9169 12.7079 29.8004 12.6512 29.7027 12.5692C29.6049 12.4872 29.5289 12.3823 29.4813 12.2638C29.4338 12.1454 29.4162 12.017 29.4301 11.8902C29.4682 11.5472 29.4873 11.2024 29.4875 10.8573C29.4866 9.53454 29.2038 8.22712 28.6581 7.02215C28.1123 5.81718 27.3161 4.74231 26.3224 3.86913C25.3288 2.99595 24.1605 2.34449 22.8954 1.95815C21.6302 1.5718 20.2973 1.45943 18.9854 1.62852C17.6734 1.79762 16.4125 2.24429 15.2867 2.93879C14.1609 3.6333 13.196 4.55969 12.4562 5.65629C11.7164 6.75289 11.2188 7.99452 10.9964 9.29849C10.774 10.6025 10.832 11.9389 11.1665 13.2187C11.2005 13.349 11.2001 13.4859 11.1651 13.616C11.1302 13.7461 11.0621 13.8649 10.9673 13.9606C10.8726 14.0564 10.7546 14.1258 10.6248 14.1621C10.4951 14.1985 10.3582 14.2004 10.2275 14.1677C9.26819 13.9291 8.26915 13.897 7.29647 14.0733C6.32378 14.2496 5.3996 14.6304 4.58506 15.1905C3.77051 15.7506 3.08415 16.4773 2.57136 17.3224C2.05857 18.1676 1.73104 19.1119 1.61043 20.0931C1.48982 21.0742 1.57888 22.0698 1.87171 23.014C2.16454 23.9582 2.65447 24.8294 3.30911 25.5701C3.96376 26.3108 4.76819 26.9041 5.66921 27.3108C6.57023 27.7174 7.54732 27.9282 8.53586 27.9291H32.5915C33.9017 27.9291 35.1906 27.5973 36.3379 26.9647C37.4853 26.3321 38.4538 25.4193 39.1532 24.3114C39.2642 24.1393 39.4387 24.0181 39.6387 23.9741C39.8387 23.9302 40.048 23.967 40.2209 24.0767C40.3938 24.1863 40.5164 24.3599 40.5619 24.5595C40.6074 24.7592 40.5722 24.9687 40.4639 25.1425C39.6244 26.4713 38.4623 27.566 37.0858 28.3246C35.7093 29.0832 34.1632 29.481 32.5915 29.481H27.9356V32.8814L32.1624 34.9952C32.2912 35.0596 32.3996 35.1586 32.4754 35.2811C32.5512 35.4037 32.5914 35.5449 32.5915 35.6889V38.8907C33.323 39.0795 33.9605 39.5287 34.3845 40.154C34.8085 40.7793 34.9899 41.5377 34.8947 42.2872C34.7995 43.0366 34.4342 43.7256 33.8674 44.2251C33.3005 44.7245 32.571 45 31.8155 45C31.06 45 30.3305 44.7245 29.7636 44.2251C29.1967 43.7256 28.8315 43.0366 28.7363 42.2872C28.6411 41.5377 28.8225 40.7793 29.2465 40.154C29.6705 39.5287 30.308 39.0795 31.0395 38.8907V36.1685L26.8127 34.0547C26.6838 33.9903 26.5754 33.8913 26.4996 33.7688C26.4238 33.6463 26.3837 33.505 26.3836 33.361V29.481H21.7276V38.8907C22.4591 39.0795 23.0966 39.5287 23.5206 40.154C23.9447 40.7793 24.1261 41.5377 24.0309 42.2872C23.9357 43.0366 23.5704 43.7256 23.0036 44.2251C22.4367 44.7245 21.7071 45 20.9517 45C20.1962 45 19.4666 44.7245 18.8998 44.2251C18.3329 43.7256 17.9676 43.0366 17.8725 42.2872C17.7773 41.5377 17.9587 40.7793 18.3827 40.154C18.8067 39.5287 19.4442 39.0795 20.1757 38.8907V29.481H15.5198V33.361C15.5197 33.505 15.4795 33.6463 15.4037 33.7688C15.3279 33.8913 15.2195 33.9903 15.0906 34.0547L10.8638 36.1685V38.8907C11.5953 39.0795 12.2328 39.5287 12.6568 40.154C13.0808 40.7793 13.2622 41.5377 13.167 42.2872C13.0719 43.0366 12.7066 43.7256 12.1397 44.2251C11.5729 44.7245 10.8433 45 10.0878 45C9.33236 45 8.60281 44.7245 8.03595 44.2251C7.46908 43.7256 7.10382 43.0366 7.00863 42.2872C6.91343 41.5377 7.09484 40.7793 7.51885 40.154C7.94286 39.5287 8.58036 39.0795 9.31185 38.8907V35.6889C9.31193 35.5449 9.35211 35.4037 9.4279 35.2811C9.50369 35.1586 9.61209 35.0596 9.74097 34.9952L13.9678 32.8814V29.481ZM31.8155 40.3449C31.5085 40.3449 31.2085 40.4359 30.9533 40.6064C30.698 40.777 30.4991 41.0193 30.3816 41.3029C30.2642 41.5865 30.2334 41.8986 30.2933 42.1996C30.3532 42.5007 30.501 42.7772 30.7181 42.9943C30.9351 43.2113 31.2117 43.3591 31.5127 43.419C31.8138 43.4789 32.1258 43.4481 32.4094 43.3307C32.693 43.2132 32.9354 43.0143 33.1059 42.7591C33.2764 42.5038 33.3675 42.2038 33.3675 41.8968C33.3675 41.4852 33.204 41.0905 32.9129 40.7994C32.6218 40.5084 32.2271 40.3449 31.8155 40.3449ZM20.9517 40.3449C20.6447 40.3449 20.3447 40.4359 20.0894 40.6064C19.8342 40.777 19.6353 41.0193 19.5178 41.3029C19.4004 41.5865 19.3696 41.8986 19.4295 42.1996C19.4894 42.5007 19.6372 42.7772 19.8542 42.9943C20.0713 43.2113 20.3478 43.3591 20.6489 43.419C20.9499 43.4789 21.262 43.4481 21.5456 43.3307C21.8292 43.2132 22.0716 43.0143 22.2421 42.7591C22.4126 42.5038 22.5036 42.2038 22.5036 41.8968C22.5036 41.4852 22.3401 41.0905 22.0491 40.7994C21.758 40.5084 21.3633 40.3449 20.9517 40.3449ZM10.0878 40.3449C9.78089 40.3449 9.48083 40.4359 9.22561 40.6064C8.97038 40.777 8.77146 41.0193 8.654 41.3029C8.53653 41.5865 8.5058 41.8986 8.56568 42.1996C8.62557 42.5007 8.77338 42.7772 8.99043 42.9943C9.20747 43.2113 9.48401 43.3591 9.78506 43.419C10.0861 43.4789 10.3982 43.4481 10.6818 43.3307C10.9653 43.2132 11.2077 43.0143 11.3783 42.7591C11.5488 42.5038 11.6398 42.2038 11.6398 41.8968C11.6398 41.4852 11.4763 41.0905 11.1852 40.7994C10.8942 40.5084 10.4994 40.3449 10.0878 40.3449ZM12.4158 24.0491V19.3932C12.4158 19.2253 12.4703 19.0619 12.571 18.9276L14.899 15.8237C14.9712 15.7273 15.065 15.6491 15.1727 15.5952C15.2805 15.5413 15.3993 15.5133 15.5198 15.5133C15.6402 15.5133 15.759 15.5413 15.8668 15.5952C15.9745 15.6491 16.0683 15.7273 16.1405 15.8237L18.4685 18.9276C18.5692 19.0619 18.6237 19.2253 18.6237 19.3932V24.0491C18.6237 24.2549 18.5419 24.4523 18.3964 24.5978C18.2509 24.7434 18.0535 24.8251 17.8477 24.8251C17.6419 24.8251 17.4445 24.7434 17.299 24.5978C17.1535 24.4523 17.0717 24.2549 17.0717 24.0491V21.7212H13.9678V24.0491C13.9678 24.2549 13.886 24.4523 13.7405 24.5978C13.595 24.7434 13.3976 24.8251 13.1918 24.8251C12.986 24.8251 12.7886 24.7434 12.6431 24.5978C12.4976 24.4523 12.4158 24.2549 12.4158 24.0491ZM17.0717 20.1692V19.6516L15.5198 17.5828L13.9678 19.6516V20.1692H17.0717ZM21.7276 19.3932H24.8316V17.6333C24.8316 17.4275 24.9134 17.2301 25.0589 17.0846C25.2044 16.939 25.4018 16.8573 25.6076 16.8573C25.8134 16.8573 26.0108 16.939 26.1563 17.0846C26.3018 17.2301 26.3836 17.4275 26.3836 17.6333V20.1692C26.3836 20.375 26.3018 20.5724 26.1563 20.7179C26.0108 20.8634 25.8134 20.9452 25.6076 20.9452H21.7276V24.0491C21.7276 24.2549 21.6459 24.4523 21.5004 24.5978C21.3548 24.7434 21.1575 24.8251 20.9517 24.8251C20.7459 24.8251 20.5485 24.7434 20.403 24.5978C20.2574 24.4523 20.1757 24.2549 20.1757 24.0491V16.2893C20.1757 16.0834 20.2574 15.8861 20.403 15.7405C20.5485 15.595 20.7459 15.5133 20.9517 15.5133H23.2796C23.4854 15.5133 23.6828 15.595 23.8283 15.7405C23.9739 15.8861 24.0556 16.0834 24.0556 16.2893C24.0556 16.4951 23.9739 16.6924 23.8283 16.838C23.6828 16.9835 23.4854 17.0652 23.2796 17.0652H21.7276V19.3932ZM27.9356 16.2893C27.9356 16.0834 28.0173 15.8861 28.1628 15.7405C28.3084 15.595 28.5057 15.5133 28.7115 15.5133C28.9173 15.5133 29.1147 15.595 29.2602 15.7405C29.4058 15.8861 29.4875 16.0834 29.4875 16.2893V24.0491C29.4875 24.2549 29.4058 24.4523 29.2602 24.5978C29.1147 24.7434 28.9173 24.8251 28.7115 24.8251C28.5057 24.8251 28.3084 24.7434 28.1628 24.5978C28.0173 24.4523 27.9356 24.2549 27.9356 24.0491V16.2893Z" fill="#8B0000"/>
</svg>
