<svg width="47" height="47" viewBox="0 0 47 47" fill="none" xmlns="http://www.w3.org/2000/svg">
<mask id="path-1-outside-1_54_621" maskUnits="userSpaceOnUse" x="0" y="0" width="47" height="47" fill="black">
<rect fill="white" width="47" height="47"/>
<path d="M42.8528 28.0798C41.8188 32.4542 39.3399 36.3522 35.8168 39.1437C32.2937 41.9352 27.9322 43.4571 23.4372 43.4635C23.2106 43.4635 22.9841 43.4588 22.7576 43.4511L24.3526 45.102C24.4016 45.1516 24.4402 45.2104 24.4663 45.2751C24.4923 45.3397 24.5053 45.4089 24.5045 45.4785C24.5037 45.5482 24.4891 45.617 24.4616 45.6811C24.434 45.7451 24.3941 45.803 24.344 45.8514C24.2939 45.8999 24.2348 45.938 24.1699 45.9635C24.105 45.989 24.0358 46.0013 23.9661 45.9999C23.8964 45.9984 23.8277 45.9832 23.764 45.9551C23.7002 45.9269 23.6427 45.8864 23.5947 45.8359L21.0461 43.1982C20.9489 43.0975 20.8956 42.9623 20.898 42.8224C20.9003 42.6825 20.958 42.5492 21.0585 42.4518L23.6916 39.9002C23.7925 39.8041 23.9272 39.7518 24.0665 39.7547C24.2057 39.7575 24.3382 39.8154 24.4349 39.9155C24.5317 40.0157 24.585 40.15 24.5831 40.2893C24.5812 40.4286 24.5243 40.5614 24.4248 40.6589L22.6404 42.389C27.0306 42.5684 31.3464 41.2144 34.8472 38.5591C38.348 35.9039 40.8156 32.113 41.8264 27.8369C41.8408 27.768 41.8689 27.7026 41.9089 27.6446C41.949 27.5867 42.0003 27.5374 42.0598 27.4996C42.1192 27.4618 42.1856 27.4362 42.2551 27.4245C42.3246 27.4128 42.3957 27.4151 42.4643 27.4314C42.5329 27.4476 42.5975 27.4774 42.6543 27.519C42.7112 27.5606 42.7592 27.6131 42.7954 27.6736C42.8316 27.734 42.8553 27.8011 42.8652 27.8709C42.8751 27.9406 42.8708 28.0117 42.8528 28.0798ZM18.9576 41.8723C14.8138 40.8809 11.1331 38.5036 8.52517 35.1343C5.79584 31.6361 4.51264 27.4265 4.60961 22.2875L6.35288 23.9167C6.40382 23.964 6.46356 24.0007 6.5287 24.0248C6.59383 24.049 6.66308 24.06 6.73249 24.0574C6.8019 24.0548 6.87012 24.0385 6.93324 24.0095C6.99636 23.9805 7.05316 23.9394 7.10038 23.8884C7.1476 23.8375 7.18433 23.7777 7.20846 23.7126C7.23259 23.6475 7.24366 23.5782 7.24103 23.5088C7.2384 23.4394 7.22213 23.3712 7.19313 23.3081C7.16414 23.2449 7.123 23.1881 7.07206 23.1409L4.39161 20.6397C4.34097 20.5924 4.28149 20.5555 4.21658 20.5312C4.15167 20.5069 4.08261 20.4957 4.01335 20.4982C3.94409 20.5006 3.876 20.5167 3.81297 20.5455C3.74994 20.5743 3.69322 20.6153 3.64605 20.6661L1.14714 23.3504C1.0987 23.4008 1.06076 23.4603 1.03553 23.5256C1.01031 23.5908 0.998296 23.6603 1.00019 23.7302C1.00209 23.8001 1.01787 23.8689 1.04659 23.9327C1.07532 23.9964 1.11643 24.0538 1.16754 24.1015C1.21865 24.1492 1.27873 24.1863 1.34429 24.2106C1.40985 24.2349 1.47958 24.2459 1.54944 24.243C1.6193 24.2401 1.68788 24.2233 1.7512 24.1937C1.81452 24.1641 1.87132 24.1221 1.9183 24.0703L3.5545 22.3131C3.46916 27.622 4.85943 32.1505 7.69427 35.7844C10.4482 39.3424 14.3351 41.8527 18.7109 42.8995C18.845 42.9269 18.9845 42.9013 19.1001 42.8279C19.2157 42.7545 19.2982 42.6391 19.3304 42.5061C19.3626 42.373 19.3419 42.2327 19.2726 42.1146C19.2034 41.9965 19.091 41.9099 18.9592 41.8731L18.9576 41.8723ZM45.1089 22.6134L43.3726 24.2953C43.5686 19.6169 42.116 15.0182 39.2681 11.3013C36.4202 7.58438 32.3578 4.98525 27.7895 3.95725C27.6545 3.93072 27.5145 3.95787 27.3993 4.03294C27.284 4.10801 27.2026 4.22507 27.1723 4.35925C27.1419 4.49342 27.1652 4.63413 27.237 4.75145C27.3088 4.86878 27.4235 4.95348 27.5568 4.98754C31.8835 5.95986 35.7315 8.42034 38.4296 11.9398C41.1276 15.4592 42.5044 19.8141 42.3198 24.2449L40.6728 22.5381C40.6247 22.4876 40.5672 22.4471 40.5034 22.419C40.4397 22.3908 40.371 22.3756 40.3013 22.3742C40.2317 22.3727 40.1624 22.3851 40.0975 22.4106C40.0327 22.436 39.9735 22.4741 39.9234 22.5226C39.8734 22.5711 39.8334 22.629 39.8059 22.693C39.7783 22.757 39.7637 22.8258 39.7629 22.8955C39.7621 22.9652 39.7751 23.0343 39.8012 23.099C39.8272 23.1636 39.8659 23.2224 39.9148 23.272L42.4633 25.9098C42.5606 26.0103 42.6937 26.068 42.8334 26.0704H42.8419C42.9789 26.0706 43.1105 26.0174 43.2089 25.9222L45.8428 23.3706C45.9423 23.2731 45.9992 23.1402 46.0011 23.001C46.003 22.8617 45.9497 22.7273 45.853 22.6272C45.7562 22.527 45.6237 22.4692 45.4845 22.4663C45.3452 22.4634 45.2105 22.5157 45.1097 22.6118L45.1089 22.6134ZM22.8429 7.09699C22.8935 7.1443 22.953 7.18116 23.0179 7.20545C23.0828 7.22973 23.1519 7.24097 23.2212 7.23852C23.2904 7.23607 23.3585 7.21998 23.4215 7.19117C23.4846 7.16235 23.5413 7.12139 23.5885 7.07061L26.0866 4.39171C26.182 4.28921 26.2328 4.15303 26.2279 4.01308C26.2229 3.87314 26.1626 3.74088 26.0602 3.64538L23.3813 1.14103C23.2784 1.04566 23.1419 0.995069 23.0017 1.00038C22.8615 1.00569 22.7292 1.06647 22.6338 1.16935C22.5384 1.27223 22.4879 1.40878 22.4932 1.54897C22.4985 1.68915 22.5593 1.82148 22.6621 1.91685L24.3573 3.49642C19.7487 3.28248 15.2081 4.67064 11.507 7.42506C7.80587 10.1795 5.17245 14.1303 4.05413 18.6063C4.03554 18.674 4.03068 18.7448 4.03983 18.8145C4.04899 18.8842 4.07197 18.9514 4.10744 19.012C4.14291 19.0727 4.19014 19.1257 4.24637 19.1679C4.30259 19.21 4.36667 19.2405 4.43485 19.2576C4.50303 19.2746 4.57393 19.2779 4.64339 19.2672C4.71284 19.2565 4.77946 19.232 4.83932 19.1951C4.89918 19.1583 4.95108 19.1099 4.99197 19.0527C5.03286 18.9956 5.06191 18.9308 5.07743 18.8623C6.14415 14.5933 8.66571 10.8297 12.2081 8.21943C15.7504 5.60912 20.0919 4.31535 24.4853 4.56084L22.8157 6.35298C22.7203 6.45548 22.6695 6.59167 22.6745 6.73161C22.6794 6.87155 22.7397 7.00381 22.8421 7.09932L22.8429 7.09699ZM25.9632 38.5735H20.8832C20.7568 38.5734 20.6346 38.5279 20.539 38.4453C20.4433 38.3627 20.3804 38.2485 20.3618 38.1235L19.9739 35.5059C19.0668 35.244 18.1925 34.8796 17.3679 34.4198L15.2414 35.9947C15.1399 36.0699 15.0147 36.1062 14.8886 36.0968C14.7626 36.0874 14.6441 36.033 14.5548 35.9435L10.9628 32.346C10.8734 32.2565 10.8191 32.138 10.8097 32.0118C10.8003 31.8857 10.8364 31.7604 10.9116 31.6586L12.4849 29.529C12.0262 28.7047 11.6626 27.831 11.4011 26.9246L8.78662 26.5367C8.66161 26.5179 8.5475 26.4549 8.46506 26.359C8.38261 26.2632 8.33732 26.141 8.33742 26.0145V20.9244C8.33732 20.798 8.38261 20.6757 8.46506 20.5799C8.5475 20.4841 8.66161 20.4211 8.78662 20.4023L11.4011 20.0105C11.6613 19.1027 12.0239 18.2273 12.4818 17.4014L10.9085 15.2718C10.8333 15.1701 10.7972 15.0447 10.8066 14.9186C10.816 14.7925 10.8703 14.6739 10.9597 14.5844L14.551 10.9862C14.6402 10.8967 14.7587 10.8423 14.8847 10.8329C15.0108 10.8235 15.136 10.8597 15.2375 10.935L17.3641 12.5099C18.1887 12.05 19.063 11.6856 19.97 11.4237L20.358 8.80612C20.3766 8.68097 20.4395 8.56667 20.5354 8.48407C20.6312 8.40147 20.7536 8.35607 20.8801 8.35615H25.9632C26.0896 8.35626 26.2118 8.40174 26.3075 8.48433C26.4031 8.56691 26.466 8.6811 26.4846 8.80612L26.8725 11.4237C27.7796 11.6856 28.6539 12.05 29.4785 12.5099L31.605 10.935C31.7065 10.8597 31.8318 10.8235 31.9578 10.8329C32.0839 10.8423 32.2023 10.8967 32.2916 10.9862L35.8836 14.5821C35.973 14.6716 36.0274 14.7901 36.0368 14.9163C36.0462 15.0424 36.01 15.1677 35.9348 15.2695L34.3654 17.4014C34.8233 18.2273 35.1859 19.1027 35.4461 20.0105L38.0606 20.4023C38.1856 20.4211 38.2997 20.4841 38.3821 20.5799C38.4646 20.6757 38.5099 20.798 38.5098 20.9244V26.0107C38.5099 26.1371 38.4646 26.2593 38.3821 26.3552C38.2997 26.451 38.1856 26.514 38.0606 26.5328L35.4461 26.9246C35.1859 27.8327 34.8233 28.7083 34.3654 29.5344L35.9379 31.6641C36.0131 31.7658 36.0493 31.8911 36.0399 32.0172C36.0305 32.1434 35.9761 32.262 35.8867 32.3514L32.2947 35.9481C32.2054 36.0376 32.087 36.092 31.9609 36.1014C31.8349 36.1108 31.7096 36.0746 31.6081 35.9993L29.4816 34.4244C28.6571 34.8844 27.7827 35.2488 26.8756 35.5106L26.4877 38.1282C26.4691 38.2532 26.4063 38.3674 26.3106 38.45C26.2149 38.5326 26.0927 38.578 25.9663 38.5782L25.9632 38.5735ZM25.8857 35.0086C25.9007 34.9063 25.9454 34.8106 26.0144 34.7335C26.0834 34.6563 26.1735 34.6012 26.2736 34.5749C27.3189 34.3063 28.3208 33.8901 29.2488 33.3391C29.338 33.2862 29.4407 33.2608 29.5442 33.266C29.6477 33.2713 29.7474 33.3069 29.8307 33.3685L31.8703 34.8814L34.8184 31.9278L33.311 29.8867C33.2493 29.8031 33.2136 29.7032 33.2083 29.5994C33.2031 29.4956 33.2285 29.3926 33.2815 29.3032C33.8317 28.3739 34.2471 27.3711 34.5151 26.3249C34.5413 26.2249 34.5963 26.1349 34.6733 26.0659C34.7503 25.997 34.8458 25.9521 34.948 25.937L37.4539 25.5615V21.3821L34.948 21.0066C34.8458 20.9915 34.7503 20.9466 34.6733 20.8777C34.5963 20.8087 34.5413 20.7187 34.5151 20.6187C34.2468 19.5722 33.8312 18.5692 33.2808 17.6396C33.2279 17.5503 33.2025 17.4474 33.2078 17.3438C33.213 17.2402 33.2487 17.1404 33.3102 17.0569L34.8177 15.0158L31.8695 12.0622L29.8315 13.572C29.7481 13.6336 29.6485 13.6692 29.545 13.6745C29.4415 13.6797 29.3387 13.6543 29.2496 13.6015C28.3216 13.0503 27.3197 12.6342 26.2743 12.3656C26.1743 12.3393 26.0842 12.2842 26.0152 12.207C25.9462 12.1299 25.9014 12.0343 25.8864 11.9319L25.5109 9.42367H21.337L20.9615 11.9327C20.9465 12.035 20.9017 12.1307 20.8328 12.2078C20.7638 12.2849 20.6737 12.3401 20.5736 12.3664C19.5282 12.635 18.5264 13.0512 17.5984 13.6022C17.5092 13.6551 17.4065 13.6805 17.303 13.6753C17.1995 13.67 17.0998 13.6344 17.0165 13.5727L14.9753 12.0568L12.0272 15.0096L13.5346 17.0507C13.5962 17.1342 13.6318 17.234 13.6371 17.3376C13.6423 17.4412 13.6169 17.5441 13.5641 17.6334C13.0136 18.563 12.598 19.566 12.3298 20.6125C12.3035 20.7125 12.2485 20.8025 12.1716 20.8715C12.0946 20.9404 11.9991 20.9853 11.8969 21.0004L9.39098 21.3759V25.556L11.8969 25.9315C11.9991 25.9467 12.0946 25.9915 12.1716 26.0605C12.2485 26.1295 12.3035 26.2195 12.3298 26.3194C12.5981 27.3657 13.0137 28.3685 13.5641 29.2978C13.6169 29.3871 13.6423 29.49 13.6371 29.5936C13.6318 29.6972 13.5962 29.797 13.5346 29.8805L12.0264 31.9255L14.9761 34.8814L17.0149 33.3716C17.0983 33.31 17.1979 33.2744 17.3014 33.2691C17.4049 33.2639 17.5077 33.2893 17.5968 33.3422C18.5249 33.8931 19.5267 34.3093 20.5721 34.578C20.672 34.6043 20.7621 34.6593 20.831 34.7362C20.9 34.8132 20.9448 34.9087 20.96 35.0109L21.3355 37.5199H25.5063L25.8857 35.0086ZM28.0355 29.3731C26.6716 30.4311 24.9832 30.9838 23.2577 30.9373C21.5322 30.8907 19.8761 30.2478 18.5712 29.1178C17.2663 27.9878 16.3933 26.4406 16.1007 24.7394C15.808 23.0383 16.1138 21.2882 16.966 19.7872C17.8183 18.2861 19.1643 17.1266 20.775 16.5061C22.3858 15.8856 24.1618 15.8424 25.8009 16.3838C27.4399 16.9252 28.8407 18.0178 29.765 19.4756C30.6892 20.9335 31.0798 22.6665 30.8703 24.3799C30.7499 25.3579 30.4375 26.3024 29.951 27.1593C29.4645 28.0162 28.8135 28.7685 28.0355 29.3731ZM28.4901 19.5C27.5724 18.3265 26.2763 17.5074 24.8224 17.1824C23.3686 16.8573 21.8471 17.0464 20.517 17.7174C19.187 18.3884 18.1307 19.4999 17.5283 20.8623C16.9258 22.2248 16.8144 23.754 17.2129 25.1894C17.6115 26.6248 18.4955 27.8776 19.7142 28.7344C20.9329 29.5911 22.411 29.9988 23.8966 29.8879C25.3822 29.7771 26.7834 29.1546 27.8615 28.1265C28.9396 27.0983 29.6278 25.7282 29.809 24.2496C29.9125 23.41 29.8493 22.5583 29.623 21.7433C29.3967 20.9283 29.0117 20.1659 28.4901 19.5Z"/>
</mask>
<path d="M42.8528 28.0798C41.8188 32.4542 39.3399 36.3522 35.8168 39.1437C32.2937 41.9352 27.9322 43.4571 23.4372 43.4635C23.2106 43.4635 22.9841 43.4588 22.7576 43.4511L24.3526 45.102C24.4016 45.1516 24.4402 45.2104 24.4663 45.2751C24.4923 45.3397 24.5053 45.4089 24.5045 45.4785C24.5037 45.5482 24.4891 45.617 24.4616 45.6811C24.434 45.7451 24.3941 45.803 24.344 45.8514C24.2939 45.8999 24.2348 45.938 24.1699 45.9635C24.105 45.989 24.0358 46.0013 23.9661 45.9999C23.8964 45.9984 23.8277 45.9832 23.764 45.9551C23.7002 45.9269 23.6427 45.8864 23.5947 45.8359L21.0461 43.1982C20.9489 43.0975 20.8956 42.9623 20.898 42.8224C20.9003 42.6825 20.958 42.5492 21.0585 42.4518L23.6916 39.9002C23.7925 39.8041 23.9272 39.7518 24.0665 39.7547C24.2057 39.7575 24.3382 39.8154 24.4349 39.9155C24.5317 40.0157 24.585 40.15 24.5831 40.2893C24.5812 40.4286 24.5243 40.5614 24.4248 40.6589L22.6404 42.389C27.0306 42.5684 31.3464 41.2144 34.8472 38.5591C38.348 35.9039 40.8156 32.113 41.8264 27.8369C41.8408 27.768 41.8689 27.7026 41.9089 27.6446C41.949 27.5867 42.0003 27.5374 42.0598 27.4996C42.1192 27.4618 42.1856 27.4362 42.2551 27.4245C42.3246 27.4128 42.3957 27.4151 42.4643 27.4314C42.5329 27.4476 42.5975 27.4774 42.6543 27.519C42.7112 27.5606 42.7592 27.6131 42.7954 27.6736C42.8316 27.734 42.8553 27.8011 42.8652 27.8709C42.8751 27.9406 42.8708 28.0117 42.8528 28.0798ZM18.9576 41.8723C14.8138 40.8809 11.1331 38.5036 8.52517 35.1343C5.79584 31.6361 4.51264 27.4265 4.60961 22.2875L6.35288 23.9167C6.40382 23.964 6.46356 24.0007 6.5287 24.0248C6.59383 24.049 6.66308 24.06 6.73249 24.0574C6.8019 24.0548 6.87012 24.0385 6.93324 24.0095C6.99636 23.9805 7.05316 23.9394 7.10038 23.8884C7.1476 23.8375 7.18433 23.7777 7.20846 23.7126C7.23259 23.6475 7.24366 23.5782 7.24103 23.5088C7.2384 23.4394 7.22213 23.3712 7.19313 23.3081C7.16414 23.2449 7.123 23.1881 7.07206 23.1409L4.39161 20.6397C4.34097 20.5924 4.28149 20.5555 4.21658 20.5312C4.15167 20.5069 4.08261 20.4957 4.01335 20.4982C3.94409 20.5006 3.876 20.5167 3.81297 20.5455C3.74994 20.5743 3.69322 20.6153 3.64605 20.6661L1.14714 23.3504C1.0987 23.4008 1.06076 23.4603 1.03553 23.5256C1.01031 23.5908 0.998296 23.6603 1.00019 23.7302C1.00209 23.8001 1.01787 23.8689 1.04659 23.9327C1.07532 23.9964 1.11643 24.0538 1.16754 24.1015C1.21865 24.1492 1.27873 24.1863 1.34429 24.2106C1.40985 24.2349 1.47958 24.2459 1.54944 24.243C1.6193 24.2401 1.68788 24.2233 1.7512 24.1937C1.81452 24.1641 1.87132 24.1221 1.9183 24.0703L3.5545 22.3131C3.46916 27.622 4.85943 32.1505 7.69427 35.7844C10.4482 39.3424 14.3351 41.8527 18.7109 42.8995C18.845 42.9269 18.9845 42.9013 19.1001 42.8279C19.2157 42.7545 19.2982 42.6391 19.3304 42.5061C19.3626 42.373 19.3419 42.2327 19.2726 42.1146C19.2034 41.9965 19.091 41.9099 18.9592 41.8731L18.9576 41.8723ZM45.1089 22.6134L43.3726 24.2953C43.5686 19.6169 42.116 15.0182 39.2681 11.3013C36.4202 7.58438 32.3578 4.98525 27.7895 3.95725C27.6545 3.93072 27.5145 3.95787 27.3993 4.03294C27.284 4.10801 27.2026 4.22507 27.1723 4.35925C27.1419 4.49342 27.1652 4.63413 27.237 4.75145C27.3088 4.86878 27.4235 4.95348 27.5568 4.98754C31.8835 5.95986 35.7315 8.42034 38.4296 11.9398C41.1276 15.4592 42.5044 19.8141 42.3198 24.2449L40.6728 22.5381C40.6247 22.4876 40.5672 22.4471 40.5034 22.419C40.4397 22.3908 40.371 22.3756 40.3013 22.3742C40.2317 22.3727 40.1624 22.3851 40.0975 22.4106C40.0327 22.436 39.9735 22.4741 39.9234 22.5226C39.8734 22.5711 39.8334 22.629 39.8059 22.693C39.7783 22.757 39.7637 22.8258 39.7629 22.8955C39.7621 22.9652 39.7751 23.0343 39.8012 23.099C39.8272 23.1636 39.8659 23.2224 39.9148 23.272L42.4633 25.9098C42.5606 26.0103 42.6937 26.068 42.8334 26.0704H42.8419C42.9789 26.0706 43.1105 26.0174 43.2089 25.9222L45.8428 23.3706C45.9423 23.2731 45.9992 23.1402 46.0011 23.001C46.003 22.8617 45.9497 22.7273 45.853 22.6272C45.7562 22.527 45.6237 22.4692 45.4845 22.4663C45.3452 22.4634 45.2105 22.5157 45.1097 22.6118L45.1089 22.6134ZM22.8429 7.09699C22.8935 7.1443 22.953 7.18116 23.0179 7.20545C23.0828 7.22973 23.1519 7.24097 23.2212 7.23852C23.2904 7.23607 23.3585 7.21998 23.4215 7.19117C23.4846 7.16235 23.5413 7.12139 23.5885 7.07061L26.0866 4.39171C26.182 4.28921 26.2328 4.15303 26.2279 4.01308C26.2229 3.87314 26.1626 3.74088 26.0602 3.64538L23.3813 1.14103C23.2784 1.04566 23.1419 0.995069 23.0017 1.00038C22.8615 1.00569 22.7292 1.06647 22.6338 1.16935C22.5384 1.27223 22.4879 1.40878 22.4932 1.54897C22.4985 1.68915 22.5593 1.82148 22.6621 1.91685L24.3573 3.49642C19.7487 3.28248 15.2081 4.67064 11.507 7.42506C7.80587 10.1795 5.17245 14.1303 4.05413 18.6063C4.03554 18.674 4.03068 18.7448 4.03983 18.8145C4.04899 18.8842 4.07197 18.9514 4.10744 19.012C4.14291 19.0727 4.19014 19.1257 4.24637 19.1679C4.30259 19.21 4.36667 19.2405 4.43485 19.2576C4.50303 19.2746 4.57393 19.2779 4.64339 19.2672C4.71284 19.2565 4.77946 19.232 4.83932 19.1951C4.89918 19.1583 4.95108 19.1099 4.99197 19.0527C5.03286 18.9956 5.06191 18.9308 5.07743 18.8623C6.14415 14.5933 8.66571 10.8297 12.2081 8.21943C15.7504 5.60912 20.0919 4.31535 24.4853 4.56084L22.8157 6.35298C22.7203 6.45548 22.6695 6.59167 22.6745 6.73161C22.6794 6.87155 22.7397 7.00381 22.8421 7.09932L22.8429 7.09699ZM25.9632 38.5735H20.8832C20.7568 38.5734 20.6346 38.5279 20.539 38.4453C20.4433 38.3627 20.3804 38.2485 20.3618 38.1235L19.9739 35.5059C19.0668 35.244 18.1925 34.8796 17.3679 34.4198L15.2414 35.9947C15.1399 36.0699 15.0147 36.1062 14.8886 36.0968C14.7626 36.0874 14.6441 36.033 14.5548 35.9435L10.9628 32.346C10.8734 32.2565 10.8191 32.138 10.8097 32.0118C10.8003 31.8857 10.8364 31.7604 10.9116 31.6586L12.4849 29.529C12.0262 28.7047 11.6626 27.831 11.4011 26.9246L8.78662 26.5367C8.66161 26.5179 8.5475 26.4549 8.46506 26.359C8.38261 26.2632 8.33732 26.141 8.33742 26.0145V20.9244C8.33732 20.798 8.38261 20.6757 8.46506 20.5799C8.5475 20.4841 8.66161 20.4211 8.78662 20.4023L11.4011 20.0105C11.6613 19.1027 12.0239 18.2273 12.4818 17.4014L10.9085 15.2718C10.8333 15.1701 10.7972 15.0447 10.8066 14.9186C10.816 14.7925 10.8703 14.6739 10.9597 14.5844L14.551 10.9862C14.6402 10.8967 14.7587 10.8423 14.8847 10.8329C15.0108 10.8235 15.136 10.8597 15.2375 10.935L17.3641 12.5099C18.1887 12.05 19.063 11.6856 19.97 11.4237L20.358 8.80612C20.3766 8.68097 20.4395 8.56667 20.5354 8.48407C20.6312 8.40147 20.7536 8.35607 20.8801 8.35615H25.9632C26.0896 8.35626 26.2118 8.40174 26.3075 8.48433C26.4031 8.56691 26.466 8.6811 26.4846 8.80612L26.8725 11.4237C27.7796 11.6856 28.6539 12.05 29.4785 12.5099L31.605 10.935C31.7065 10.8597 31.8318 10.8235 31.9578 10.8329C32.0839 10.8423 32.2023 10.8967 32.2916 10.9862L35.8836 14.5821C35.973 14.6716 36.0274 14.7901 36.0368 14.9163C36.0462 15.0424 36.01 15.1677 35.9348 15.2695L34.3654 17.4014C34.8233 18.2273 35.1859 19.1027 35.4461 20.0105L38.0606 20.4023C38.1856 20.4211 38.2997 20.4841 38.3821 20.5799C38.4646 20.6757 38.5099 20.798 38.5098 20.9244V26.0107C38.5099 26.1371 38.4646 26.2593 38.3821 26.3552C38.2997 26.451 38.1856 26.514 38.0606 26.5328L35.4461 26.9246C35.1859 27.8327 34.8233 28.7083 34.3654 29.5344L35.9379 31.6641C36.0131 31.7658 36.0493 31.8911 36.0399 32.0172C36.0305 32.1434 35.9761 32.262 35.8867 32.3514L32.2947 35.9481C32.2054 36.0376 32.087 36.092 31.9609 36.1014C31.8349 36.1108 31.7096 36.0746 31.6081 35.9993L29.4816 34.4244C28.6571 34.8844 27.7827 35.2488 26.8756 35.5106L26.4877 38.1282C26.4691 38.2532 26.4063 38.3674 26.3106 38.45C26.2149 38.5326 26.0927 38.578 25.9663 38.5782L25.9632 38.5735ZM25.8857 35.0086C25.9007 34.9063 25.9454 34.8106 26.0144 34.7335C26.0834 34.6563 26.1735 34.6012 26.2736 34.5749C27.3189 34.3063 28.3208 33.8901 29.2488 33.3391C29.338 33.2862 29.4407 33.2608 29.5442 33.266C29.6477 33.2713 29.7474 33.3069 29.8307 33.3685L31.8703 34.8814L34.8184 31.9278L33.311 29.8867C33.2493 29.8031 33.2136 29.7032 33.2083 29.5994C33.2031 29.4956 33.2285 29.3926 33.2815 29.3032C33.8317 28.3739 34.2471 27.3711 34.5151 26.3249C34.5413 26.2249 34.5963 26.1349 34.6733 26.0659C34.7503 25.997 34.8458 25.9521 34.948 25.937L37.4539 25.5615V21.3821L34.948 21.0066C34.8458 20.9915 34.7503 20.9466 34.6733 20.8777C34.5963 20.8087 34.5413 20.7187 34.5151 20.6187C34.2468 19.5722 33.8312 18.5692 33.2808 17.6396C33.2279 17.5503 33.2025 17.4474 33.2078 17.3438C33.213 17.2402 33.2487 17.1404 33.3102 17.0569L34.8177 15.0158L31.8695 12.0622L29.8315 13.572C29.7481 13.6336 29.6485 13.6692 29.545 13.6745C29.4415 13.6797 29.3387 13.6543 29.2496 13.6015C28.3216 13.0503 27.3197 12.6342 26.2743 12.3656C26.1743 12.3393 26.0842 12.2842 26.0152 12.207C25.9462 12.1299 25.9014 12.0343 25.8864 11.9319L25.5109 9.42367H21.337L20.9615 11.9327C20.9465 12.035 20.9017 12.1307 20.8328 12.2078C20.7638 12.2849 20.6737 12.3401 20.5736 12.3664C19.5282 12.635 18.5264 13.0512 17.5984 13.6022C17.5092 13.6551 17.4065 13.6805 17.303 13.6753C17.1995 13.67 17.0998 13.6344 17.0165 13.5727L14.9753 12.0568L12.0272 15.0096L13.5346 17.0507C13.5962 17.1342 13.6318 17.234 13.6371 17.3376C13.6423 17.4412 13.6169 17.5441 13.5641 17.6334C13.0136 18.563 12.598 19.566 12.3298 20.6125C12.3035 20.7125 12.2485 20.8025 12.1716 20.8715C12.0946 20.9404 11.9991 20.9853 11.8969 21.0004L9.39098 21.3759V25.556L11.8969 25.9315C11.9991 25.9467 12.0946 25.9915 12.1716 26.0605C12.2485 26.1295 12.3035 26.2195 12.3298 26.3194C12.5981 27.3657 13.0137 28.3685 13.5641 29.2978C13.6169 29.3871 13.6423 29.49 13.6371 29.5936C13.6318 29.6972 13.5962 29.797 13.5346 29.8805L12.0264 31.9255L14.9761 34.8814L17.0149 33.3716C17.0983 33.31 17.1979 33.2744 17.3014 33.2691C17.4049 33.2639 17.5077 33.2893 17.5968 33.3422C18.5249 33.8931 19.5267 34.3093 20.5721 34.578C20.672 34.6043 20.7621 34.6593 20.831 34.7362C20.9 34.8132 20.9448 34.9087 20.96 35.0109L21.3355 37.5199H25.5063L25.8857 35.0086ZM28.0355 29.3731C26.6716 30.4311 24.9832 30.9838 23.2577 30.9373C21.5322 30.8907 19.8761 30.2478 18.5712 29.1178C17.2663 27.9878 16.3933 26.4406 16.1007 24.7394C15.808 23.0383 16.1138 21.2882 16.966 19.7872C17.8183 18.2861 19.1643 17.1266 20.775 16.5061C22.3858 15.8856 24.1618 15.8424 25.8009 16.3838C27.4399 16.9252 28.8407 18.0178 29.765 19.4756C30.6892 20.9335 31.0798 22.6665 30.8703 24.3799C30.7499 25.3579 30.4375 26.3024 29.951 27.1593C29.4645 28.0162 28.8135 28.7685 28.0355 29.3731ZM28.4901 19.5C27.5724 18.3265 26.2763 17.5074 24.8224 17.1824C23.3686 16.8573 21.8471 17.0464 20.517 17.7174C19.187 18.3884 18.1307 19.4999 17.5283 20.8623C16.9258 22.2248 16.8144 23.754 17.2129 25.1894C17.6115 26.6248 18.4955 27.8776 19.7142 28.7344C20.9329 29.5911 22.411 29.9988 23.8966 29.8879C25.3822 29.7771 26.7834 29.1546 27.8615 28.1265C28.9396 27.0983 29.6278 25.7282 29.809 24.2496C29.9125 23.41 29.8493 22.5583 29.623 21.7433C29.3967 20.9283 29.0117 20.1659 28.4901 19.5Z" fill="#8B0000"/>
<path d="M42.8528 28.0798C41.8188 32.4542 39.3399 36.3522 35.8168 39.1437C32.2937 41.9352 27.9322 43.4571 23.4372 43.4635C23.2106 43.4635 22.9841 43.4588 22.7576 43.4511L24.3526 45.102C24.4016 45.1516 24.4402 45.2104 24.4663 45.2751C24.4923 45.3397 24.5053 45.4089 24.5045 45.4785C24.5037 45.5482 24.4891 45.617 24.4616 45.6811C24.434 45.7451 24.3941 45.803 24.344 45.8514C24.2939 45.8999 24.2348 45.938 24.1699 45.9635C24.105 45.989 24.0358 46.0013 23.9661 45.9999C23.8964 45.9984 23.8277 45.9832 23.764 45.9551C23.7002 45.9269 23.6427 45.8864 23.5947 45.8359L21.0461 43.1982C20.9489 43.0975 20.8956 42.9623 20.898 42.8224C20.9003 42.6825 20.958 42.5492 21.0585 42.4518L23.6916 39.9002C23.7925 39.8041 23.9272 39.7518 24.0665 39.7547C24.2057 39.7575 24.3382 39.8154 24.4349 39.9155C24.5317 40.0157 24.585 40.15 24.5831 40.2893C24.5812 40.4286 24.5243 40.5614 24.4248 40.6589L22.6404 42.389C27.0306 42.5684 31.3464 41.2144 34.8472 38.5591C38.348 35.9039 40.8156 32.113 41.8264 27.8369C41.8408 27.768 41.8689 27.7026 41.9089 27.6446C41.949 27.5867 42.0003 27.5374 42.0598 27.4996C42.1192 27.4618 42.1856 27.4362 42.2551 27.4245C42.3246 27.4128 42.3957 27.4151 42.4643 27.4314C42.5329 27.4476 42.5975 27.4774 42.6543 27.519C42.7112 27.5606 42.7592 27.6131 42.7954 27.6736C42.8316 27.734 42.8553 27.8011 42.8652 27.8709C42.8751 27.9406 42.8708 28.0117 42.8528 28.0798ZM18.9576 41.8723C14.8138 40.8809 11.1331 38.5036 8.52517 35.1343C5.79584 31.6361 4.51264 27.4265 4.60961 22.2875L6.35288 23.9167C6.40382 23.964 6.46356 24.0007 6.5287 24.0248C6.59383 24.049 6.66308 24.06 6.73249 24.0574C6.8019 24.0548 6.87012 24.0385 6.93324 24.0095C6.99636 23.9805 7.05316 23.9394 7.10038 23.8884C7.1476 23.8375 7.18433 23.7777 7.20846 23.7126C7.23259 23.6475 7.24366 23.5782 7.24103 23.5088C7.2384 23.4394 7.22213 23.3712 7.19313 23.3081C7.16414 23.2449 7.123 23.1881 7.07206 23.1409L4.39161 20.6397C4.34097 20.5924 4.28149 20.5555 4.21658 20.5312C4.15167 20.5069 4.08261 20.4957 4.01335 20.4982C3.94409 20.5006 3.876 20.5167 3.81297 20.5455C3.74994 20.5743 3.69322 20.6153 3.64605 20.6661L1.14714 23.3504C1.0987 23.4008 1.06076 23.4603 1.03553 23.5256C1.01031 23.5908 0.998296 23.6603 1.00019 23.7302C1.00209 23.8001 1.01787 23.8689 1.04659 23.9327C1.07532 23.9964 1.11643 24.0538 1.16754 24.1015C1.21865 24.1492 1.27873 24.1863 1.34429 24.2106C1.40985 24.2349 1.47958 24.2459 1.54944 24.243C1.6193 24.2401 1.68788 24.2233 1.7512 24.1937C1.81452 24.1641 1.87132 24.1221 1.9183 24.0703L3.5545 22.3131C3.46916 27.622 4.85943 32.1505 7.69427 35.7844C10.4482 39.3424 14.3351 41.8527 18.7109 42.8995C18.845 42.9269 18.9845 42.9013 19.1001 42.8279C19.2157 42.7545 19.2982 42.6391 19.3304 42.5061C19.3626 42.373 19.3419 42.2327 19.2726 42.1146C19.2034 41.9965 19.091 41.9099 18.9592 41.8731L18.9576 41.8723ZM45.1089 22.6134L43.3726 24.2953C43.5686 19.6169 42.116 15.0182 39.2681 11.3013C36.4202 7.58438 32.3578 4.98525 27.7895 3.95725C27.6545 3.93072 27.5145 3.95787 27.3993 4.03294C27.284 4.10801 27.2026 4.22507 27.1723 4.35925C27.1419 4.49342 27.1652 4.63413 27.237 4.75145C27.3088 4.86878 27.4235 4.95348 27.5568 4.98754C31.8835 5.95986 35.7315 8.42034 38.4296 11.9398C41.1276 15.4592 42.5044 19.8141 42.3198 24.2449L40.6728 22.5381C40.6247 22.4876 40.5672 22.4471 40.5034 22.419C40.4397 22.3908 40.371 22.3756 40.3013 22.3742C40.2317 22.3727 40.1624 22.3851 40.0975 22.4106C40.0327 22.436 39.9735 22.4741 39.9234 22.5226C39.8734 22.5711 39.8334 22.629 39.8059 22.693C39.7783 22.757 39.7637 22.8258 39.7629 22.8955C39.7621 22.9652 39.7751 23.0343 39.8012 23.099C39.8272 23.1636 39.8659 23.2224 39.9148 23.272L42.4633 25.9098C42.5606 26.0103 42.6937 26.068 42.8334 26.0704H42.8419C42.9789 26.0706 43.1105 26.0174 43.2089 25.9222L45.8428 23.3706C45.9423 23.2731 45.9992 23.1402 46.0011 23.001C46.003 22.8617 45.9497 22.7273 45.853 22.6272C45.7562 22.527 45.6237 22.4692 45.4845 22.4663C45.3452 22.4634 45.2105 22.5157 45.1097 22.6118L45.1089 22.6134ZM22.8429 7.09699C22.8935 7.1443 22.953 7.18116 23.0179 7.20545C23.0828 7.22973 23.1519 7.24097 23.2212 7.23852C23.2904 7.23607 23.3585 7.21998 23.4215 7.19117C23.4846 7.16235 23.5413 7.12139 23.5885 7.07061L26.0866 4.39171C26.182 4.28921 26.2328 4.15303 26.2279 4.01308C26.2229 3.87314 26.1626 3.74088 26.0602 3.64538L23.3813 1.14103C23.2784 1.04566 23.1419 0.995069 23.0017 1.00038C22.8615 1.00569 22.7292 1.06647 22.6338 1.16935C22.5384 1.27223 22.4879 1.40878 22.4932 1.54897C22.4985 1.68915 22.5593 1.82148 22.6621 1.91685L24.3573 3.49642C19.7487 3.28248 15.2081 4.67064 11.507 7.42506C7.80587 10.1795 5.17245 14.1303 4.05413 18.6063C4.03554 18.674 4.03068 18.7448 4.03983 18.8145C4.04899 18.8842 4.07197 18.9514 4.10744 19.012C4.14291 19.0727 4.19014 19.1257 4.24637 19.1679C4.30259 19.21 4.36667 19.2405 4.43485 19.2576C4.50303 19.2746 4.57393 19.2779 4.64339 19.2672C4.71284 19.2565 4.77946 19.232 4.83932 19.1951C4.89918 19.1583 4.95108 19.1099 4.99197 19.0527C5.03286 18.9956 5.06191 18.9308 5.07743 18.8623C6.14415 14.5933 8.66571 10.8297 12.2081 8.21943C15.7504 5.60912 20.0919 4.31535 24.4853 4.56084L22.8157 6.35298C22.7203 6.45548 22.6695 6.59167 22.6745 6.73161C22.6794 6.87155 22.7397 7.00381 22.8421 7.09932L22.8429 7.09699ZM25.9632 38.5735H20.8832C20.7568 38.5734 20.6346 38.5279 20.539 38.4453C20.4433 38.3627 20.3804 38.2485 20.3618 38.1235L19.9739 35.5059C19.0668 35.244 18.1925 34.8796 17.3679 34.4198L15.2414 35.9947C15.1399 36.0699 15.0147 36.1062 14.8886 36.0968C14.7626 36.0874 14.6441 36.033 14.5548 35.9435L10.9628 32.346C10.8734 32.2565 10.8191 32.138 10.8097 32.0118C10.8003 31.8857 10.8364 31.7604 10.9116 31.6586L12.4849 29.529C12.0262 28.7047 11.6626 27.831 11.4011 26.9246L8.78662 26.5367C8.66161 26.5179 8.5475 26.4549 8.46506 26.359C8.38261 26.2632 8.33732 26.141 8.33742 26.0145V20.9244C8.33732 20.798 8.38261 20.6757 8.46506 20.5799C8.5475 20.4841 8.66161 20.4211 8.78662 20.4023L11.4011 20.0105C11.6613 19.1027 12.0239 18.2273 12.4818 17.4014L10.9085 15.2718C10.8333 15.1701 10.7972 15.0447 10.8066 14.9186C10.816 14.7925 10.8703 14.6739 10.9597 14.5844L14.551 10.9862C14.6402 10.8967 14.7587 10.8423 14.8847 10.8329C15.0108 10.8235 15.136 10.8597 15.2375 10.935L17.3641 12.5099C18.1887 12.05 19.063 11.6856 19.97 11.4237L20.358 8.80612C20.3766 8.68097 20.4395 8.56667 20.5354 8.48407C20.6312 8.40147 20.7536 8.35607 20.8801 8.35615H25.9632C26.0896 8.35626 26.2118 8.40174 26.3075 8.48433C26.4031 8.56691 26.466 8.6811 26.4846 8.80612L26.8725 11.4237C27.7796 11.6856 28.6539 12.05 29.4785 12.5099L31.605 10.935C31.7065 10.8597 31.8318 10.8235 31.9578 10.8329C32.0839 10.8423 32.2023 10.8967 32.2916 10.9862L35.8836 14.5821C35.973 14.6716 36.0274 14.7901 36.0368 14.9163C36.0462 15.0424 36.01 15.1677 35.9348 15.2695L34.3654 17.4014C34.8233 18.2273 35.1859 19.1027 35.4461 20.0105L38.0606 20.4023C38.1856 20.4211 38.2997 20.4841 38.3821 20.5799C38.4646 20.6757 38.5099 20.798 38.5098 20.9244V26.0107C38.5099 26.1371 38.4646 26.2593 38.3821 26.3552C38.2997 26.451 38.1856 26.514 38.0606 26.5328L35.4461 26.9246C35.1859 27.8327 34.8233 28.7083 34.3654 29.5344L35.9379 31.6641C36.0131 31.7658 36.0493 31.8911 36.0399 32.0172C36.0305 32.1434 35.9761 32.262 35.8867 32.3514L32.2947 35.9481C32.2054 36.0376 32.087 36.092 31.9609 36.1014C31.8349 36.1108 31.7096 36.0746 31.6081 35.9993L29.4816 34.4244C28.6571 34.8844 27.7827 35.2488 26.8756 35.5106L26.4877 38.1282C26.4691 38.2532 26.4063 38.3674 26.3106 38.45C26.2149 38.5326 26.0927 38.578 25.9663 38.5782L25.9632 38.5735ZM25.8857 35.0086C25.9007 34.9063 25.9454 34.8106 26.0144 34.7335C26.0834 34.6563 26.1735 34.6012 26.2736 34.5749C27.3189 34.3063 28.3208 33.8901 29.2488 33.3391C29.338 33.2862 29.4407 33.2608 29.5442 33.266C29.6477 33.2713 29.7474 33.3069 29.8307 33.3685L31.8703 34.8814L34.8184 31.9278L33.311 29.8867C33.2493 29.8031 33.2136 29.7032 33.2083 29.5994C33.2031 29.4956 33.2285 29.3926 33.2815 29.3032C33.8317 28.3739 34.2471 27.3711 34.5151 26.3249C34.5413 26.2249 34.5963 26.1349 34.6733 26.0659C34.7503 25.997 34.8458 25.9521 34.948 25.937L37.4539 25.5615V21.3821L34.948 21.0066C34.8458 20.9915 34.7503 20.9466 34.6733 20.8777C34.5963 20.8087 34.5413 20.7187 34.5151 20.6187C34.2468 19.5722 33.8312 18.5692 33.2808 17.6396C33.2279 17.5503 33.2025 17.4474 33.2078 17.3438C33.213 17.2402 33.2487 17.1404 33.3102 17.0569L34.8177 15.0158L31.8695 12.0622L29.8315 13.572C29.7481 13.6336 29.6485 13.6692 29.545 13.6745C29.4415 13.6797 29.3387 13.6543 29.2496 13.6015C28.3216 13.0503 27.3197 12.6342 26.2743 12.3656C26.1743 12.3393 26.0842 12.2842 26.0152 12.207C25.9462 12.1299 25.9014 12.0343 25.8864 11.9319L25.5109 9.42367H21.337L20.9615 11.9327C20.9465 12.035 20.9017 12.1307 20.8328 12.2078C20.7638 12.2849 20.6737 12.3401 20.5736 12.3664C19.5282 12.635 18.5264 13.0512 17.5984 13.6022C17.5092 13.6551 17.4065 13.6805 17.303 13.6753C17.1995 13.67 17.0998 13.6344 17.0165 13.5727L14.9753 12.0568L12.0272 15.0096L13.5346 17.0507C13.5962 17.1342 13.6318 17.234 13.6371 17.3376C13.6423 17.4412 13.6169 17.5441 13.5641 17.6334C13.0136 18.563 12.598 19.566 12.3298 20.6125C12.3035 20.7125 12.2485 20.8025 12.1716 20.8715C12.0946 20.9404 11.9991 20.9853 11.8969 21.0004L9.39098 21.3759V25.556L11.8969 25.9315C11.9991 25.9467 12.0946 25.9915 12.1716 26.0605C12.2485 26.1295 12.3035 26.2195 12.3298 26.3194C12.5981 27.3657 13.0137 28.3685 13.5641 29.2978C13.6169 29.3871 13.6423 29.49 13.6371 29.5936C13.6318 29.6972 13.5962 29.797 13.5346 29.8805L12.0264 31.9255L14.9761 34.8814L17.0149 33.3716C17.0983 33.31 17.1979 33.2744 17.3014 33.2691C17.4049 33.2639 17.5077 33.2893 17.5968 33.3422C18.5249 33.8931 19.5267 34.3093 20.5721 34.578C20.672 34.6043 20.7621 34.6593 20.831 34.7362C20.9 34.8132 20.9448 34.9087 20.96 35.0109L21.3355 37.5199H25.5063L25.8857 35.0086ZM28.0355 29.3731C26.6716 30.4311 24.9832 30.9838 23.2577 30.9373C21.5322 30.8907 19.8761 30.2478 18.5712 29.1178C17.2663 27.9878 16.3933 26.4406 16.1007 24.7394C15.808 23.0383 16.1138 21.2882 16.966 19.7872C17.8183 18.2861 19.1643 17.1266 20.775 16.5061C22.3858 15.8856 24.1618 15.8424 25.8009 16.3838C27.4399 16.9252 28.8407 18.0178 29.765 19.4756C30.6892 20.9335 31.0798 22.6665 30.8703 24.3799C30.7499 25.3579 30.4375 26.3024 29.951 27.1593C29.4645 28.0162 28.8135 28.7685 28.0355 29.3731ZM28.4901 19.5C27.5724 18.3265 26.2763 17.5074 24.8224 17.1824C23.3686 16.8573 21.8471 17.0464 20.517 17.7174C19.187 18.3884 18.1307 19.4999 17.5283 20.8623C16.9258 22.2248 16.8144 23.754 17.2129 25.1894C17.6115 26.6248 18.4955 27.8776 19.7142 28.7344C20.9329 29.5911 22.411 29.9988 23.8966 29.8879C25.3822 29.7771 26.7834 29.1546 27.8615 28.1265C28.9396 27.0983 29.6278 25.7282 29.809 24.2496C29.9125 23.41 29.8493 22.5583 29.623 21.7433C29.3967 20.9283 29.0117 20.1659 28.4901 19.5Z" stroke="#8B0000" stroke-width="0.4" mask="url(#path-1-outside-1_54_621)"/>
</svg>
