<svg width="33" height="37" viewBox="0 0 33 37" fill="none" xmlns="http://www.w3.org/2000/svg">
<path d="M3.74884 13.9273V13.9277H3.84884H6.45345C6.62613 13.9277 6.76043 14.062 6.76043 14.2347V28.2672C6.76043 28.4399 6.62613 28.5742 6.45345 28.5742H3.84884C3.67616 28.5742 3.54186 28.4399 3.54186 28.2672V14.2184C3.54186 14.0809 3.62699 13.9678 3.74884 13.9273ZM2.22093 36.1H31.5233C32.2459 36.1 32.8442 35.5017 32.8442 34.7791C32.8442 34.0564 32.2459 33.4581 31.5233 33.4581H2.22093C1.49826 33.4581 0.9 34.0564 0.9 34.7791C0.9 35.5017 1.49826 36.1 2.22093 36.1ZM3.84884 31.2161H6.45345C8.07147 31.2161 9.40229 29.8853 9.40229 28.2672V14.2347C9.40229 12.6167 8.07147 11.2859 6.45345 11.2859H3.84884C2.23082 11.2859 0.9 12.6167 0.9 14.2347V28.2672C0.9 29.8853 2.23082 31.2161 3.84884 31.2161ZM15.5701 31.2162H18.1747C19.7927 31.2162 21.1235 29.8854 21.1235 28.2673V9.04177C21.1235 7.42375 19.7927 6.09293 18.1747 6.09293H15.5701C13.9521 6.09293 12.6212 7.42375 12.6212 9.04177V28.2673C12.6212 29.8854 13.9521 31.2162 15.5701 31.2162ZM15.2631 9.04177C15.2631 8.86909 15.3974 8.73479 15.5701 8.73479H18.1747C18.3474 8.73479 18.4817 8.86909 18.4817 9.04177V28.2673C18.4817 28.44 18.3474 28.5743 18.1747 28.5743H15.5701C15.3974 28.5743 15.2631 28.44 15.2631 28.2673V9.04177ZM27.2913 31.2163H29.8959C31.514 31.2163 32.8448 29.8855 32.8448 28.2674V3.84884C32.8448 2.23082 31.514 0.9 29.8959 0.9H27.2913C25.6733 0.9 24.3425 2.23082 24.3425 3.84884V28.2674C24.3425 29.8855 25.6733 31.2163 27.2913 31.2163ZM26.9844 3.84884C26.9844 3.67616 27.1187 3.54186 27.2913 3.54186H29.8959C30.0686 3.54186 30.2029 3.67616 30.2029 3.84884V28.2674C30.2029 28.4401 30.0686 28.5744 29.8959 28.5744H27.2913C27.1187 28.5744 26.9844 28.4401 26.9844 28.2674V3.84884Z" fill="#8B0000" stroke="#8B0000" stroke-width="0.2"/>
</svg>
