<svg width="37" height="37" viewBox="0 0 37 37" fill="none" xmlns="http://www.w3.org/2000/svg">
<mask id="path-1-outside-1_54_657" maskUnits="userSpaceOnUse" x="0" y="0" width="37" height="37" fill="black">
<rect fill="white" width="37" height="37"/>
<path d="M21.2406 8.10405C21.8506 7.54999 22.2787 6.82426 22.4685 6.02232C22.6583 5.22037 22.6009 4.37977 22.3039 3.61105C22.0069 2.84233 21.4842 2.1815 20.8045 1.71546C20.1249 1.24942 19.3201 1 18.496 1C17.6719 1 16.8671 1.24942 16.1874 1.71546C15.5078 2.1815 14.9851 2.84233 14.6881 3.61105C14.3911 4.37977 14.3337 5.22037 14.5235 6.02232C14.7133 6.82426 15.1413 7.54999 15.7514 8.10405C14.5551 8.33634 13.4767 8.97714 12.7007 9.9168C11.9248 10.8565 11.4995 12.0366 11.4976 13.2552V15.5878C11.4976 15.7424 11.559 15.8907 11.6684 16.0001C11.7777 16.1094 11.926 16.1708 12.0806 16.1708H24.9114C25.066 16.1708 25.2143 16.1094 25.3236 16.0001C25.433 15.8907 25.4944 15.7424 25.4944 15.5878V13.2552C25.4925 12.0366 25.0672 10.8565 24.2913 9.9168C23.5153 8.97714 22.4369 8.33634 21.2406 8.10405ZM15.5798 5.09023C15.5798 4.51346 15.7508 3.94965 16.0713 3.47008C16.3917 2.99052 16.8472 2.61674 17.38 2.39602C17.9129 2.1753 18.4992 2.11755 19.0649 2.23007C19.6306 2.3426 20.1502 2.62034 20.558 3.02817C20.9659 3.43601 21.2436 3.95562 21.3561 4.52131C21.4687 5.08699 21.4109 5.67334 21.1902 6.2062C20.9695 6.73907 20.5957 7.19451 20.1161 7.51495C19.6366 7.83538 19.0728 8.00641 18.496 8.00641C17.7228 8.00552 16.9816 7.69799 16.4349 7.15129C15.8882 6.6046 15.5807 5.86337 15.5798 5.09023ZM24.3278 15.0048H12.6642V13.2552C12.6655 12.173 13.096 11.1354 13.8613 10.3701C14.6266 9.60487 15.6641 9.17435 16.7464 9.173H20.2456C21.3278 9.17435 22.3654 9.60487 23.1307 10.3701C23.8959 11.1354 24.3265 12.173 24.3278 13.2552V15.0048ZM10.743 27.9327C11.353 27.3786 11.7811 26.6529 11.9709 25.8509C12.1607 25.049 12.1033 24.2084 11.8063 23.4396C11.5093 22.6709 10.9866 22.0101 10.3069 21.5441C9.62729 21.078 8.82249 20.8286 7.9984 20.8286C7.1743 20.8286 6.3695 21.078 5.68984 21.5441C5.01018 22.0101 4.48748 22.6709 4.19049 23.4396C3.8935 24.2084 3.83613 25.049 4.02591 25.8509C4.21569 26.6529 4.64375 27.3786 5.25378 27.9327C4.05749 28.1649 2.9791 28.8057 2.20313 29.7454C1.42717 30.6851 1.00187 31.8652 1 33.0838V35.4164C0.999926 35.493 1.01495 35.5689 1.04422 35.6397C1.07348 35.7105 1.11642 35.7748 1.17056 35.829C1.22471 35.8832 1.289 35.9262 1.35977 35.9556C1.43054 35.9849 1.5064 36 1.58301 36H14.4138C14.5684 36 14.7167 35.9386 14.826 35.8292C14.9354 35.7199 14.9968 35.5716 14.9968 35.417V33.0838C14.9949 31.8652 14.5696 30.6851 13.7937 29.7454C13.0177 28.8057 11.9393 28.1649 10.743 27.9327ZM5.08221 24.9194C5.0821 24.3426 5.25304 23.7787 5.5734 23.2991C5.89377 22.8195 6.34918 22.4456 6.88203 22.2248C7.41488 22.004 8.00125 21.9461 8.56697 22.0586C9.13269 22.1711 9.65236 22.4488 10.0603 22.8566C10.4681 23.2644 10.7459 23.784 10.8585 24.3497C10.9711 24.9154 10.9134 25.5018 10.6927 26.0347C10.472 26.5676 10.0982 27.023 9.6186 27.3435C9.13903 27.664 8.57519 27.835 7.9984 27.835C7.22535 27.8341 6.48421 27.5267 5.93753 26.9801C5.39085 26.4335 5.08326 25.6924 5.08221 24.9194ZM13.8302 34.834H2.16659V33.0844C2.16778 32.002 2.59824 30.9643 3.36352 30.1989C4.12881 29.4335 5.16644 29.0029 6.2488 29.0016H9.748C10.8303 29.0029 11.8678 29.4335 12.6331 30.1987C13.3983 30.964 13.8289 32.0016 13.8302 33.0838V34.834ZM31.7382 27.9332C32.3482 27.3792 32.7763 26.6534 32.9661 25.8515C33.1559 25.0495 33.0985 24.2089 32.8015 23.4402C32.5045 22.6715 31.9818 22.0107 31.3021 21.5446C30.6225 21.0786 29.8177 20.8292 28.9936 20.8292C28.1695 20.8292 27.3647 21.0786 26.685 21.5446C26.0054 22.0107 25.4827 22.6715 25.1857 23.4402C24.8887 24.2089 24.8313 25.0495 25.0211 25.8515C25.2109 26.6534 25.6389 27.3792 26.249 27.9332C25.0528 28.1655 23.9745 28.8062 23.1985 29.7457C22.4225 30.6853 21.9972 31.8653 21.9952 33.0838V35.4164C21.9951 35.493 22.0101 35.5689 22.0394 35.6397C22.0687 35.7105 22.1116 35.7748 22.1657 35.829C22.2199 35.8832 22.2842 35.9262 22.355 35.9556C22.4257 35.9849 22.5016 36 22.5782 36H35.409C35.5636 36 35.7119 35.9386 35.8212 35.8292C35.9306 35.7199 35.992 35.5716 35.992 35.417V33.0838C35.9901 31.8652 35.5648 30.6851 34.7888 29.7454C34.0129 28.8057 32.9345 28.1655 31.7382 27.9332ZM26.0774 24.92C26.0772 24.3431 26.248 23.7792 26.5683 23.2995C26.8886 22.8198 27.344 22.4458 27.8768 22.2249C28.4097 22.0041 28.9961 21.9461 29.5618 22.0585C30.1276 22.1709 30.6473 22.4486 31.0552 22.8564C31.4632 23.2642 31.741 23.7838 31.8537 24.3495C31.9663 24.9152 31.9086 25.5016 31.6879 26.0345C31.4672 26.5675 31.0934 27.023 30.6138 27.3435C30.1343 27.664 29.5704 27.835 28.9936 27.835C28.2205 27.8341 27.4794 27.5267 26.9327 26.9801C26.386 26.4335 26.0784 25.693 26.0774 24.92ZM34.8254 34.8345H23.1618V33.0849C23.1628 32.0025 23.5932 30.9647 24.3585 30.1991C25.1238 29.4336 26.1615 29.0029 27.244 29.0016H30.7432C31.8254 29.0029 32.863 29.4335 33.6283 30.1987C34.3935 30.964 34.824 32.0016 34.8254 33.0838V34.8345ZM4.51049 19.652L3.34503 19.6977C3.36083 20.0995 3.393 20.5065 3.44041 20.9066L4.59853 20.7678C4.55413 20.3972 4.52516 20.0252 4.51049 19.652ZM3.43815 17.2776C3.39037 17.6791 3.35876 18.0818 3.34333 18.4859L4.50879 18.5317C4.52347 18.1586 4.55338 17.7833 4.59684 17.4153L3.43815 17.2776ZM9.30213 7.02551C8.98043 7.27083 8.66889 7.52875 8.36751 7.79928L9.14749 8.66731C9.42479 8.41785 9.71206 8.17987 10.0093 7.95336L9.30213 7.02551ZM4.7718 12.631C4.60248 12.9956 4.44163 13.3709 4.29941 13.7496L5.39093 14.1582C5.52224 13.8091 5.66748 13.4655 5.82664 13.1277L4.7718 12.6299V12.631ZM3.91788 14.9015C3.805 15.2902 3.70943 15.6828 3.63117 16.0794L4.77462 16.3097C4.84799 15.9451 4.9366 15.5788 5.03932 15.2227L3.91788 14.9015ZM7.50117 8.64586C7.22274 8.93897 6.95616 9.24261 6.70144 9.55678L7.60841 10.2905C7.84319 10.0004 8.08926 9.71989 8.34662 9.44899L7.50004 8.64586H7.50117ZM11.3418 5.715C10.9848 5.90577 10.636 6.11083 10.2955 6.33019L10.9276 7.31109C11.2406 7.10866 11.5617 6.91959 11.891 6.74388L11.3418 5.715ZM5.97676 10.5287C5.748 10.8624 5.53297 11.205 5.33167 11.5564L6.34362 12.136C6.52911 11.8121 6.72759 11.4962 6.93904 11.1884L5.97959 10.5287H5.97676ZM15.7305 32.8112L15.5047 33.9547C15.9017 34.0344 16.3015 34.0978 16.7041 34.1449L16.8395 32.9867C16.4642 32.9427 16.0945 32.884 15.7305 32.8112ZM21.2937 32.8044C20.9276 32.8797 20.559 32.9393 20.188 32.9834L20.3286 34.1415C20.731 34.0924 21.1334 34.0286 21.5251 33.9479L21.2937 32.8044ZM19.0728 33.0725C18.7003 33.0872 18.3233 33.0889 17.9531 33.0725L17.909 34.2391C18.1032 34.247 18.299 34.251 18.4977 34.251C18.7065 34.251 18.9148 34.2459 19.1219 34.2374L19.0728 33.0725ZM28.625 7.8038L27.8456 8.67183C28.1229 8.92129 28.3903 9.18147 28.6476 9.45237L29.4942 8.65038C29.2193 8.35859 28.9259 8.07414 28.625 7.8038ZM30.2917 9.56073L29.3847 10.2944C29.6195 10.5849 29.8424 10.8842 30.0535 11.1924L31.013 10.5326C30.7842 10.1992 30.543 9.8751 30.2894 9.56017L30.2917 9.56073ZM33.6458 18.4876L32.4804 18.5334C32.4877 18.7168 32.4917 18.9025 32.4917 19.0876C32.4917 19.2727 32.4883 19.4657 32.4804 19.652L33.6458 19.6977C33.6541 19.4949 33.6582 19.2906 33.6582 19.0848C33.6594 18.8861 33.6549 18.6857 33.647 18.4876H33.6458ZM31.6626 11.5621L30.6501 12.1422C30.8356 12.4662 31.0081 12.7971 31.1676 13.135L32.2224 12.6372C32.0501 12.2715 31.8635 11.914 31.6626 11.5649V11.5621ZM32.6943 13.7547L31.6027 14.165C31.7337 14.5142 31.8507 14.8682 31.9538 15.2272L33.0752 14.906C32.9624 14.5174 32.8354 14.1336 32.6943 13.7547ZM33.3608 16.0845L32.2179 16.3142C32.2932 16.6803 32.3519 17.0488 32.394 17.4198L33.5521 17.2821C33.5047 16.8808 33.4404 16.4779 33.3608 16.0822V16.0845ZM26.6999 6.33244L26.0684 7.31335C26.3822 7.51577 26.6875 7.73043 26.9844 7.95731L27.6921 7.02946C27.3708 6.78414 27.0404 6.5518 26.6999 6.33244ZM24.5637 5.18448L24.0964 6.25681C24.4384 6.40732 24.774 6.57043 25.1033 6.74614L25.6552 5.71839C25.2989 5.5265 24.9353 5.34985 24.5643 5.18843L24.5637 5.18448Z"/>
</mask>
<path d="M21.2406 8.10405C21.8506 7.54999 22.2787 6.82426 22.4685 6.02232C22.6583 5.22037 22.6009 4.37977 22.3039 3.61105C22.0069 2.84233 21.4842 2.1815 20.8045 1.71546C20.1249 1.24942 19.3201 1 18.496 1C17.6719 1 16.8671 1.24942 16.1874 1.71546C15.5078 2.1815 14.9851 2.84233 14.6881 3.61105C14.3911 4.37977 14.3337 5.22037 14.5235 6.02232C14.7133 6.82426 15.1413 7.54999 15.7514 8.10405C14.5551 8.33634 13.4767 8.97714 12.7007 9.9168C11.9248 10.8565 11.4995 12.0366 11.4976 13.2552V15.5878C11.4976 15.7424 11.559 15.8907 11.6684 16.0001C11.7777 16.1094 11.926 16.1708 12.0806 16.1708H24.9114C25.066 16.1708 25.2143 16.1094 25.3236 16.0001C25.433 15.8907 25.4944 15.7424 25.4944 15.5878V13.2552C25.4925 12.0366 25.0672 10.8565 24.2913 9.9168C23.5153 8.97714 22.4369 8.33634 21.2406 8.10405ZM15.5798 5.09023C15.5798 4.51346 15.7508 3.94965 16.0713 3.47008C16.3917 2.99052 16.8472 2.61674 17.38 2.39602C17.9129 2.1753 18.4992 2.11755 19.0649 2.23007C19.6306 2.3426 20.1502 2.62034 20.558 3.02817C20.9659 3.43601 21.2436 3.95562 21.3561 4.52131C21.4687 5.08699 21.4109 5.67334 21.1902 6.2062C20.9695 6.73907 20.5957 7.19451 20.1161 7.51495C19.6366 7.83538 19.0728 8.00641 18.496 8.00641C17.7228 8.00552 16.9816 7.69799 16.4349 7.15129C15.8882 6.6046 15.5807 5.86337 15.5798 5.09023ZM24.3278 15.0048H12.6642V13.2552C12.6655 12.173 13.096 11.1354 13.8613 10.3701C14.6266 9.60487 15.6641 9.17435 16.7464 9.173H20.2456C21.3278 9.17435 22.3654 9.60487 23.1307 10.3701C23.8959 11.1354 24.3265 12.173 24.3278 13.2552V15.0048ZM10.743 27.9327C11.353 27.3786 11.7811 26.6529 11.9709 25.8509C12.1607 25.049 12.1033 24.2084 11.8063 23.4396C11.5093 22.6709 10.9866 22.0101 10.3069 21.5441C9.62729 21.078 8.82249 20.8286 7.9984 20.8286C7.1743 20.8286 6.3695 21.078 5.68984 21.5441C5.01018 22.0101 4.48748 22.6709 4.19049 23.4396C3.8935 24.2084 3.83613 25.049 4.02591 25.8509C4.21569 26.6529 4.64375 27.3786 5.25378 27.9327C4.05749 28.1649 2.9791 28.8057 2.20313 29.7454C1.42717 30.6851 1.00187 31.8652 1 33.0838V35.4164C0.999926 35.493 1.01495 35.5689 1.04422 35.6397C1.07348 35.7105 1.11642 35.7748 1.17056 35.829C1.22471 35.8832 1.289 35.9262 1.35977 35.9556C1.43054 35.9849 1.5064 36 1.58301 36H14.4138C14.5684 36 14.7167 35.9386 14.826 35.8292C14.9354 35.7199 14.9968 35.5716 14.9968 35.417V33.0838C14.9949 31.8652 14.5696 30.6851 13.7937 29.7454C13.0177 28.8057 11.9393 28.1649 10.743 27.9327ZM5.08221 24.9194C5.0821 24.3426 5.25304 23.7787 5.5734 23.2991C5.89377 22.8195 6.34918 22.4456 6.88203 22.2248C7.41488 22.004 8.00125 21.9461 8.56697 22.0586C9.13269 22.1711 9.65236 22.4488 10.0603 22.8566C10.4681 23.2644 10.7459 23.784 10.8585 24.3497C10.9711 24.9154 10.9134 25.5018 10.6927 26.0347C10.472 26.5676 10.0982 27.023 9.6186 27.3435C9.13903 27.664 8.57519 27.835 7.9984 27.835C7.22535 27.8341 6.48421 27.5267 5.93753 26.9801C5.39085 26.4335 5.08326 25.6924 5.08221 24.9194ZM13.8302 34.834H2.16659V33.0844C2.16778 32.002 2.59824 30.9643 3.36352 30.1989C4.12881 29.4335 5.16644 29.0029 6.2488 29.0016H9.748C10.8303 29.0029 11.8678 29.4335 12.6331 30.1987C13.3983 30.964 13.8289 32.0016 13.8302 33.0838V34.834ZM31.7382 27.9332C32.3482 27.3792 32.7763 26.6534 32.9661 25.8515C33.1559 25.0495 33.0985 24.2089 32.8015 23.4402C32.5045 22.6715 31.9818 22.0107 31.3021 21.5446C30.6225 21.0786 29.8177 20.8292 28.9936 20.8292C28.1695 20.8292 27.3647 21.0786 26.685 21.5446C26.0054 22.0107 25.4827 22.6715 25.1857 23.4402C24.8887 24.2089 24.8313 25.0495 25.0211 25.8515C25.2109 26.6534 25.6389 27.3792 26.249 27.9332C25.0528 28.1655 23.9745 28.8062 23.1985 29.7457C22.4225 30.6853 21.9972 31.8653 21.9952 33.0838V35.4164C21.9951 35.493 22.0101 35.5689 22.0394 35.6397C22.0687 35.7105 22.1116 35.7748 22.1657 35.829C22.2199 35.8832 22.2842 35.9262 22.355 35.9556C22.4257 35.9849 22.5016 36 22.5782 36H35.409C35.5636 36 35.7119 35.9386 35.8212 35.8292C35.9306 35.7199 35.992 35.5716 35.992 35.417V33.0838C35.9901 31.8652 35.5648 30.6851 34.7888 29.7454C34.0129 28.8057 32.9345 28.1655 31.7382 27.9332ZM26.0774 24.92C26.0772 24.3431 26.248 23.7792 26.5683 23.2995C26.8886 22.8198 27.344 22.4458 27.8768 22.2249C28.4097 22.0041 28.9961 21.9461 29.5618 22.0585C30.1276 22.1709 30.6473 22.4486 31.0552 22.8564C31.4632 23.2642 31.741 23.7838 31.8537 24.3495C31.9663 24.9152 31.9086 25.5016 31.6879 26.0345C31.4672 26.5675 31.0934 27.023 30.6138 27.3435C30.1343 27.664 29.5704 27.835 28.9936 27.835C28.2205 27.8341 27.4794 27.5267 26.9327 26.9801C26.386 26.4335 26.0784 25.693 26.0774 24.92ZM34.8254 34.8345H23.1618V33.0849C23.1628 32.0025 23.5932 30.9647 24.3585 30.1991C25.1238 29.4336 26.1615 29.0029 27.244 29.0016H30.7432C31.8254 29.0029 32.863 29.4335 33.6283 30.1987C34.3935 30.964 34.824 32.0016 34.8254 33.0838V34.8345ZM4.51049 19.652L3.34503 19.6977C3.36083 20.0995 3.393 20.5065 3.44041 20.9066L4.59853 20.7678C4.55413 20.3972 4.52516 20.0252 4.51049 19.652ZM3.43815 17.2776C3.39037 17.6791 3.35876 18.0818 3.34333 18.4859L4.50879 18.5317C4.52347 18.1586 4.55338 17.7833 4.59684 17.4153L3.43815 17.2776ZM9.30213 7.02551C8.98043 7.27083 8.66889 7.52875 8.36751 7.79928L9.14749 8.66731C9.42479 8.41785 9.71206 8.17987 10.0093 7.95336L9.30213 7.02551ZM4.7718 12.631C4.60248 12.9956 4.44163 13.3709 4.29941 13.7496L5.39093 14.1582C5.52224 13.8091 5.66748 13.4655 5.82664 13.1277L4.7718 12.6299V12.631ZM3.91788 14.9015C3.805 15.2902 3.70943 15.6828 3.63117 16.0794L4.77462 16.3097C4.84799 15.9451 4.9366 15.5788 5.03932 15.2227L3.91788 14.9015ZM7.50117 8.64586C7.22274 8.93897 6.95616 9.24261 6.70144 9.55678L7.60841 10.2905C7.84319 10.0004 8.08926 9.71989 8.34662 9.44899L7.50004 8.64586H7.50117ZM11.3418 5.715C10.9848 5.90577 10.636 6.11083 10.2955 6.33019L10.9276 7.31109C11.2406 7.10866 11.5617 6.91959 11.891 6.74388L11.3418 5.715ZM5.97676 10.5287C5.748 10.8624 5.53297 11.205 5.33167 11.5564L6.34362 12.136C6.52911 11.8121 6.72759 11.4962 6.93904 11.1884L5.97959 10.5287H5.97676ZM15.7305 32.8112L15.5047 33.9547C15.9017 34.0344 16.3015 34.0978 16.7041 34.1449L16.8395 32.9867C16.4642 32.9427 16.0945 32.884 15.7305 32.8112ZM21.2937 32.8044C20.9276 32.8797 20.559 32.9393 20.188 32.9834L20.3286 34.1415C20.731 34.0924 21.1334 34.0286 21.5251 33.9479L21.2937 32.8044ZM19.0728 33.0725C18.7003 33.0872 18.3233 33.0889 17.9531 33.0725L17.909 34.2391C18.1032 34.247 18.299 34.251 18.4977 34.251C18.7065 34.251 18.9148 34.2459 19.1219 34.2374L19.0728 33.0725ZM28.625 7.8038L27.8456 8.67183C28.1229 8.92129 28.3903 9.18147 28.6476 9.45237L29.4942 8.65038C29.2193 8.35859 28.9259 8.07414 28.625 7.8038ZM30.2917 9.56073L29.3847 10.2944C29.6195 10.5849 29.8424 10.8842 30.0535 11.1924L31.013 10.5326C30.7842 10.1992 30.543 9.8751 30.2894 9.56017L30.2917 9.56073ZM33.6458 18.4876L32.4804 18.5334C32.4877 18.7168 32.4917 18.9025 32.4917 19.0876C32.4917 19.2727 32.4883 19.4657 32.4804 19.652L33.6458 19.6977C33.6541 19.4949 33.6582 19.2906 33.6582 19.0848C33.6594 18.8861 33.6549 18.6857 33.647 18.4876H33.6458ZM31.6626 11.5621L30.6501 12.1422C30.8356 12.4662 31.0081 12.7971 31.1676 13.135L32.2224 12.6372C32.0501 12.2715 31.8635 11.914 31.6626 11.5649V11.5621ZM32.6943 13.7547L31.6027 14.165C31.7337 14.5142 31.8507 14.8682 31.9538 15.2272L33.0752 14.906C32.9624 14.5174 32.8354 14.1336 32.6943 13.7547ZM33.3608 16.0845L32.2179 16.3142C32.2932 16.6803 32.3519 17.0488 32.394 17.4198L33.5521 17.2821C33.5047 16.8808 33.4404 16.4779 33.3608 16.0822V16.0845ZM26.6999 6.33244L26.0684 7.31335C26.3822 7.51577 26.6875 7.73043 26.9844 7.95731L27.6921 7.02946C27.3708 6.78414 27.0404 6.5518 26.6999 6.33244ZM24.5637 5.18448L24.0964 6.25681C24.4384 6.40732 24.774 6.57043 25.1033 6.74614L25.6552 5.71839C25.2989 5.5265 24.9353 5.34985 24.5643 5.18843L24.5637 5.18448Z" fill="white"/>
<path d="M21.2406 8.10405C21.8506 7.54999 22.2787 6.82426 22.4685 6.02232C22.6583 5.22037 22.6009 4.37977 22.3039 3.61105C22.0069 2.84233 21.4842 2.1815 20.8045 1.71546C20.1249 1.24942 19.3201 1 18.496 1C17.6719 1 16.8671 1.24942 16.1874 1.71546C15.5078 2.1815 14.9851 2.84233 14.6881 3.61105C14.3911 4.37977 14.3337 5.22037 14.5235 6.02232C14.7133 6.82426 15.1413 7.54999 15.7514 8.10405C14.5551 8.33634 13.4767 8.97714 12.7007 9.9168C11.9248 10.8565 11.4995 12.0366 11.4976 13.2552V15.5878C11.4976 15.7424 11.559 15.8907 11.6684 16.0001C11.7777 16.1094 11.926 16.1708 12.0806 16.1708H24.9114C25.066 16.1708 25.2143 16.1094 25.3236 16.0001C25.433 15.8907 25.4944 15.7424 25.4944 15.5878V13.2552C25.4925 12.0366 25.0672 10.8565 24.2913 9.9168C23.5153 8.97714 22.4369 8.33634 21.2406 8.10405ZM15.5798 5.09023C15.5798 4.51346 15.7508 3.94965 16.0713 3.47008C16.3917 2.99052 16.8472 2.61674 17.38 2.39602C17.9129 2.1753 18.4992 2.11755 19.0649 2.23007C19.6306 2.3426 20.1502 2.62034 20.558 3.02817C20.9659 3.43601 21.2436 3.95562 21.3561 4.52131C21.4687 5.08699 21.4109 5.67334 21.1902 6.2062C20.9695 6.73907 20.5957 7.19451 20.1161 7.51495C19.6366 7.83538 19.0728 8.00641 18.496 8.00641C17.7228 8.00552 16.9816 7.69799 16.4349 7.15129C15.8882 6.6046 15.5807 5.86337 15.5798 5.09023ZM24.3278 15.0048H12.6642V13.2552C12.6655 12.173 13.096 11.1354 13.8613 10.3701C14.6266 9.60487 15.6641 9.17435 16.7464 9.173H20.2456C21.3278 9.17435 22.3654 9.60487 23.1307 10.3701C23.8959 11.1354 24.3265 12.173 24.3278 13.2552V15.0048ZM10.743 27.9327C11.353 27.3786 11.7811 26.6529 11.9709 25.8509C12.1607 25.049 12.1033 24.2084 11.8063 23.4396C11.5093 22.6709 10.9866 22.0101 10.3069 21.5441C9.62729 21.078 8.82249 20.8286 7.9984 20.8286C7.1743 20.8286 6.3695 21.078 5.68984 21.5441C5.01018 22.0101 4.48748 22.6709 4.19049 23.4396C3.8935 24.2084 3.83613 25.049 4.02591 25.8509C4.21569 26.6529 4.64375 27.3786 5.25378 27.9327C4.05749 28.1649 2.9791 28.8057 2.20313 29.7454C1.42717 30.6851 1.00187 31.8652 1 33.0838V35.4164C0.999926 35.493 1.01495 35.5689 1.04422 35.6397C1.07348 35.7105 1.11642 35.7748 1.17056 35.829C1.22471 35.8832 1.289 35.9262 1.35977 35.9556C1.43054 35.9849 1.5064 36 1.58301 36H14.4138C14.5684 36 14.7167 35.9386 14.826 35.8292C14.9354 35.7199 14.9968 35.5716 14.9968 35.417V33.0838C14.9949 31.8652 14.5696 30.6851 13.7937 29.7454C13.0177 28.8057 11.9393 28.1649 10.743 27.9327ZM5.08221 24.9194C5.0821 24.3426 5.25304 23.7787 5.5734 23.2991C5.89377 22.8195 6.34918 22.4456 6.88203 22.2248C7.41488 22.004 8.00125 21.9461 8.56697 22.0586C9.13269 22.1711 9.65236 22.4488 10.0603 22.8566C10.4681 23.2644 10.7459 23.784 10.8585 24.3497C10.9711 24.9154 10.9134 25.5018 10.6927 26.0347C10.472 26.5676 10.0982 27.023 9.6186 27.3435C9.13903 27.664 8.57519 27.835 7.9984 27.835C7.22535 27.8341 6.48421 27.5267 5.93753 26.9801C5.39085 26.4335 5.08326 25.6924 5.08221 24.9194ZM13.8302 34.834H2.16659V33.0844C2.16778 32.002 2.59824 30.9643 3.36352 30.1989C4.12881 29.4335 5.16644 29.0029 6.2488 29.0016H9.748C10.8303 29.0029 11.8678 29.4335 12.6331 30.1987C13.3983 30.964 13.8289 32.0016 13.8302 33.0838V34.834ZM31.7382 27.9332C32.3482 27.3792 32.7763 26.6534 32.9661 25.8515C33.1559 25.0495 33.0985 24.2089 32.8015 23.4402C32.5045 22.6715 31.9818 22.0107 31.3021 21.5446C30.6225 21.0786 29.8177 20.8292 28.9936 20.8292C28.1695 20.8292 27.3647 21.0786 26.685 21.5446C26.0054 22.0107 25.4827 22.6715 25.1857 23.4402C24.8887 24.2089 24.8313 25.0495 25.0211 25.8515C25.2109 26.6534 25.6389 27.3792 26.249 27.9332C25.0528 28.1655 23.9745 28.8062 23.1985 29.7457C22.4225 30.6853 21.9972 31.8653 21.9952 33.0838V35.4164C21.9951 35.493 22.0101 35.5689 22.0394 35.6397C22.0687 35.7105 22.1116 35.7748 22.1657 35.829C22.2199 35.8832 22.2842 35.9262 22.355 35.9556C22.4257 35.9849 22.5016 36 22.5782 36H35.409C35.5636 36 35.7119 35.9386 35.8212 35.8292C35.9306 35.7199 35.992 35.5716 35.992 35.417V33.0838C35.9901 31.8652 35.5648 30.6851 34.7888 29.7454C34.0129 28.8057 32.9345 28.1655 31.7382 27.9332ZM26.0774 24.92C26.0772 24.3431 26.248 23.7792 26.5683 23.2995C26.8886 22.8198 27.344 22.4458 27.8768 22.2249C28.4097 22.0041 28.9961 21.9461 29.5618 22.0585C30.1276 22.1709 30.6473 22.4486 31.0552 22.8564C31.4632 23.2642 31.741 23.7838 31.8537 24.3495C31.9663 24.9152 31.9086 25.5016 31.6879 26.0345C31.4672 26.5675 31.0934 27.023 30.6138 27.3435C30.1343 27.664 29.5704 27.835 28.9936 27.835C28.2205 27.8341 27.4794 27.5267 26.9327 26.9801C26.386 26.4335 26.0784 25.693 26.0774 24.92ZM34.8254 34.8345H23.1618V33.0849C23.1628 32.0025 23.5932 30.9647 24.3585 30.1991C25.1238 29.4336 26.1615 29.0029 27.244 29.0016H30.7432C31.8254 29.0029 32.863 29.4335 33.6283 30.1987C34.3935 30.964 34.824 32.0016 34.8254 33.0838V34.8345ZM4.51049 19.652L3.34503 19.6977C3.36083 20.0995 3.393 20.5065 3.44041 20.9066L4.59853 20.7678C4.55413 20.3972 4.52516 20.0252 4.51049 19.652ZM3.43815 17.2776C3.39037 17.6791 3.35876 18.0818 3.34333 18.4859L4.50879 18.5317C4.52347 18.1586 4.55338 17.7833 4.59684 17.4153L3.43815 17.2776ZM9.30213 7.02551C8.98043 7.27083 8.66889 7.52875 8.36751 7.79928L9.14749 8.66731C9.42479 8.41785 9.71206 8.17987 10.0093 7.95336L9.30213 7.02551ZM4.7718 12.631C4.60248 12.9956 4.44163 13.3709 4.29941 13.7496L5.39093 14.1582C5.52224 13.8091 5.66748 13.4655 5.82664 13.1277L4.7718 12.6299V12.631ZM3.91788 14.9015C3.805 15.2902 3.70943 15.6828 3.63117 16.0794L4.77462 16.3097C4.84799 15.9451 4.9366 15.5788 5.03932 15.2227L3.91788 14.9015ZM7.50117 8.64586C7.22274 8.93897 6.95616 9.24261 6.70144 9.55678L7.60841 10.2905C7.84319 10.0004 8.08926 9.71989 8.34662 9.44899L7.50004 8.64586H7.50117ZM11.3418 5.715C10.9848 5.90577 10.636 6.11083 10.2955 6.33019L10.9276 7.31109C11.2406 7.10866 11.5617 6.91959 11.891 6.74388L11.3418 5.715ZM5.97676 10.5287C5.748 10.8624 5.53297 11.205 5.33167 11.5564L6.34362 12.136C6.52911 11.8121 6.72759 11.4962 6.93904 11.1884L5.97959 10.5287H5.97676ZM15.7305 32.8112L15.5047 33.9547C15.9017 34.0344 16.3015 34.0978 16.7041 34.1449L16.8395 32.9867C16.4642 32.9427 16.0945 32.884 15.7305 32.8112ZM21.2937 32.8044C20.9276 32.8797 20.559 32.9393 20.188 32.9834L20.3286 34.1415C20.731 34.0924 21.1334 34.0286 21.5251 33.9479L21.2937 32.8044ZM19.0728 33.0725C18.7003 33.0872 18.3233 33.0889 17.9531 33.0725L17.909 34.2391C18.1032 34.247 18.299 34.251 18.4977 34.251C18.7065 34.251 18.9148 34.2459 19.1219 34.2374L19.0728 33.0725ZM28.625 7.8038L27.8456 8.67183C28.1229 8.92129 28.3903 9.18147 28.6476 9.45237L29.4942 8.65038C29.2193 8.35859 28.9259 8.07414 28.625 7.8038ZM30.2917 9.56073L29.3847 10.2944C29.6195 10.5849 29.8424 10.8842 30.0535 11.1924L31.013 10.5326C30.7842 10.1992 30.543 9.8751 30.2894 9.56017L30.2917 9.56073ZM33.6458 18.4876L32.4804 18.5334C32.4877 18.7168 32.4917 18.9025 32.4917 19.0876C32.4917 19.2727 32.4883 19.4657 32.4804 19.652L33.6458 19.6977C33.6541 19.4949 33.6582 19.2906 33.6582 19.0848C33.6594 18.8861 33.6549 18.6857 33.647 18.4876H33.6458ZM31.6626 11.5621L30.6501 12.1422C30.8356 12.4662 31.0081 12.7971 31.1676 13.135L32.2224 12.6372C32.0501 12.2715 31.8635 11.914 31.6626 11.5649V11.5621ZM32.6943 13.7547L31.6027 14.165C31.7337 14.5142 31.8507 14.8682 31.9538 15.2272L33.0752 14.906C32.9624 14.5174 32.8354 14.1336 32.6943 13.7547ZM33.3608 16.0845L32.2179 16.3142C32.2932 16.6803 32.3519 17.0488 32.394 17.4198L33.5521 17.2821C33.5047 16.8808 33.4404 16.4779 33.3608 16.0822V16.0845ZM26.6999 6.33244L26.0684 7.31335C26.3822 7.51577 26.6875 7.73043 26.9844 7.95731L27.6921 7.02946C27.3708 6.78414 27.0404 6.5518 26.6999 6.33244ZM24.5637 5.18448L24.0964 6.25681C24.4384 6.40732 24.774 6.57043 25.1033 6.74614L25.6552 5.71839C25.2989 5.5265 24.9353 5.34985 24.5643 5.18843L24.5637 5.18448Z" stroke="white" stroke-width="0.4" mask="url(#path-1-outside-1_54_657)"/>
</svg>
