<svg width="45" height="45" viewBox="0 0 45 45" fill="none" xmlns="http://www.w3.org/2000/svg">
<path d="M22.5 0C18.0499 0 13.6998 1.3196 9.99968 3.79193C6.29957 6.26426 3.41569 9.77828 1.71272 13.8896C0.00974893 18.001 -0.435826 22.525 0.432341 26.8895C1.30051 31.2541 3.44343 35.2632 6.59011 38.4099C9.73679 41.5566 13.7459 43.6995 18.1105 44.5677C22.475 45.4358 26.999 44.9902 31.1104 43.2873C35.2217 41.5843 38.7357 38.7004 41.2081 35.0003C43.6804 31.3002 45 26.9501 45 22.5C45 16.5326 42.6295 10.8097 38.4099 6.5901C34.1903 2.37053 28.4674 0 22.5 0ZM22.5 43.3158C18.383 43.3158 14.3585 42.095 10.9354 39.8077C7.51221 37.5205 4.84419 34.2695 3.26869 30.4659C1.69319 26.6623 1.28096 22.4769 2.08415 18.439C2.88733 14.4012 4.86985 10.6921 7.78099 7.78098C10.6921 4.86983 14.4012 2.88732 18.439 2.08414C22.4769 1.28095 26.6623 1.69318 30.4659 3.26868C34.2695 4.84418 37.5205 7.5122 39.8077 10.9353C42.095 14.3585 43.3158 18.383 43.3158 22.5C43.3158 28.0207 41.1227 33.3153 37.219 37.219C33.3153 41.1227 28.0207 43.3158 22.5 43.3158Z" fill="#8B0000"/>
<path d="M26.2124 30.8293H18.7857C18.2203 30.8282 17.6773 31.051 17.2757 31.449C16.8741 31.8471 16.6464 32.388 16.6424 32.9534V35.0251C16.6442 35.592 16.8709 36.135 17.2728 36.5349C17.6747 36.9347 18.2188 37.1587 18.7857 37.1576H26.2116C26.7779 37.1589 27.3217 36.9356 27.7236 36.5367C28.1255 36.1377 28.3529 35.5956 28.3557 35.0293V32.9534C28.3529 32.3871 28.1255 31.845 27.7236 31.4461C27.3217 31.0471 26.7779 30.8238 26.2116 30.8251L26.2124 30.8293ZM26.6641 35.0309C26.6634 35.1502 26.6155 35.2644 26.5308 35.3484C26.4462 35.4324 26.3317 35.4795 26.2124 35.4793H18.7857C18.6665 35.4795 18.5519 35.4324 18.4673 35.3484C18.3826 35.2644 18.3347 35.1502 18.3341 35.0309V32.9534C18.3349 32.8343 18.383 32.7204 18.4676 32.6365C18.5522 32.5527 18.6666 32.5057 18.7857 32.5059H26.2116C26.3307 32.5057 26.4451 32.5527 26.5297 32.6365C26.6144 32.7204 26.6624 32.8343 26.6632 32.9534L26.6641 35.0309ZM23.9991 8.45345C23.5992 8.0617 23.0618 7.84229 22.502 7.84229C21.9422 7.84229 21.4047 8.0617 21.0049 8.45345L12.4407 16.9151C12.1585 17.1933 11.9658 17.5494 11.8874 17.9378C11.809 18.3263 11.8485 18.7293 12.0007 19.0951C12.1544 19.4619 12.4132 19.7749 12.7445 19.9949C13.0758 20.2148 13.4648 20.3317 13.8624 20.3309H16.6424V25.1751C16.6455 25.8448 16.9141 26.4859 17.3894 26.9577C17.8647 27.4296 18.5077 27.6936 19.1774 27.6918H25.8224C26.4921 27.6936 27.1351 27.4296 27.6104 26.9577C28.0857 26.4859 28.3543 25.8448 28.3574 25.1751V20.3309H31.1374C31.5352 20.3319 31.9244 20.215 32.2558 19.9951C32.5873 19.7752 32.8462 19.462 32.9999 19.0951C33.1521 18.7293 33.1916 18.3263 33.1132 17.9378C33.0348 17.5494 32.8421 17.1933 32.5599 16.9151L23.9991 8.45345ZM31.4366 18.4535C31.4138 18.5133 31.3729 18.5645 31.3195 18.6C31.2662 18.6354 31.2031 18.6532 31.1391 18.651H27.5116C27.4008 18.6505 27.2911 18.6719 27.1886 18.7139C27.0861 18.7558 26.9929 18.8176 26.9143 18.8956C26.8356 18.9736 26.7732 19.0663 26.7304 19.1685C26.6876 19.2706 26.6653 19.3802 26.6649 19.4909V25.1759C26.6631 25.398 26.5735 25.6103 26.4156 25.7665C26.2578 25.9227 26.0445 26.0099 25.8224 26.0093H19.1774C18.9553 26.0099 18.742 25.9227 18.5842 25.7665C18.4263 25.6103 18.3367 25.398 18.3349 25.1759V19.4909C18.3345 19.3802 18.3122 19.2706 18.2694 19.1685C18.2266 19.0663 18.1642 18.9736 18.0855 18.8956C18.0069 18.8176 17.9137 18.7558 17.8112 18.7139C17.7087 18.6719 17.599 18.6505 17.4882 18.651H13.8616C13.7981 18.6513 13.7359 18.6328 13.683 18.5978C13.63 18.5628 13.5886 18.5128 13.5641 18.4543C13.5396 18.3959 13.5331 18.3315 13.5456 18.2694C13.5581 18.2073 13.5889 18.1504 13.6341 18.106L22.1949 9.64512C22.2756 9.56583 22.3843 9.5214 22.4974 9.5214C22.6106 9.5214 22.7192 9.56583 22.7999 9.64512L31.3599 18.106C31.4073 18.1487 31.44 18.2052 31.4534 18.2676C31.4669 18.33 31.4604 18.395 31.4349 18.4535H31.4366Z" fill="#8B0000"/>
</svg>
