<svg width="16" height="14" viewBox="0 0 16 14" fill="none" xmlns="http://www.w3.org/2000/svg">
<path d="M0 0.875C0 0.391751 0.391751 0 0.875 0H14.875C15.3582 0 15.75 0.391751 15.75 0.875C15.75 1.35825 15.3582 1.75 14.875 1.75H0.875C0.391751 1.75 0 1.35825 0 0.875ZM5.25 7C5.25 6.51675 5.64175 6.125 6.125 6.125H14.875C15.3582 6.125 15.75 6.51675 15.75 7C15.75 7.48325 15.3582 7.875 14.875 7.875H6.125C5.64175 7.875 5.25 7.48325 5.25 7ZM0 13.125C0 12.6418 0.391751 12.25 0.875 12.25H14.875C15.3582 12.25 15.75 12.6418 15.75 13.125C15.75 13.6082 15.3582 14 14.875 14H0.875C0.391751 14 0 13.6082 0 13.125Z" fill="#141111"/>
</svg>
