<svg width="35" height="35" viewBox="0 0 35 35" fill="none" xmlns="http://www.w3.org/2000/svg">
<path d="M11.5865 28.9779H4.87841C4.71666 28.9779 4.56155 28.9137 4.44718 28.7993C4.33281 28.6849 4.26855 28.5298 4.26855 28.3681C4.26855 28.2063 4.33281 28.0512 4.44718 27.9368C4.56155 27.8225 4.71666 27.7582 4.87841 27.7582H11.5865C11.7482 27.7582 11.9033 27.8225 12.0177 27.9368C12.1321 28.0512 12.1963 28.2063 12.1963 28.3681C12.1963 28.5298 12.1321 28.6849 12.0177 28.7993C11.9033 28.9137 11.7482 28.9779 11.5865 28.9779ZM7.92738 24.0991H4.87953C4.71779 24.0991 4.56267 24.0348 4.4483 23.9205C4.33394 23.8061 4.26968 23.651 4.26968 23.4892C4.26968 23.3275 4.33394 23.1724 4.4483 23.058C4.56267 22.9436 4.71779 22.8794 4.87953 22.8794H7.92738C8.08912 22.8794 8.24424 22.9436 8.35861 23.058C8.47298 23.1724 8.53723 23.3275 8.53723 23.4892C8.53723 23.651 8.47298 23.8061 8.35861 23.9205C8.24424 24.0348 8.08912 24.0991 7.92738 24.0991Z" fill="white"/>
<path d="M27.1038 35.0002H3.01172C2.21315 34.9999 1.44737 34.6826 0.882642 34.118C0.317916 33.5533 0.000448746 32.7876 0 31.989V7.89698C0.000299182 7.09831 0.317701 6.33244 0.882443 5.7677C1.44719 5.20296 2.21305 4.88555 3.01172 4.88526H21.3276C21.419 4.88504 21.5094 4.90555 21.5918 4.94524C21.6742 4.98492 21.7465 5.04276 21.8034 5.11441C21.8604 5.18642 21.8999 5.27074 21.9187 5.36068C21.9376 5.45061 21.9352 5.54369 21.9117 5.63254L21.8818 5.7347C21.7503 6.2443 21.6835 6.76845 21.6831 7.29474C21.6823 8.08591 21.8376 8.86947 22.1399 9.60057C22.4423 10.3317 22.8859 10.9959 23.4454 11.5554C24.0048 12.1148 24.6691 12.5584 25.4002 12.8608C26.1313 13.1632 26.9149 13.3184 27.706 13.3176C27.9615 13.3174 28.2168 13.3033 28.4708 13.2753C28.7665 13.2401 29.0586 13.1797 29.344 13.0947C29.4337 13.0685 29.5283 13.0635 29.6203 13.0802C29.7123 13.0969 29.7991 13.1348 29.8739 13.1909C29.9487 13.247 30.0095 13.3197 30.0513 13.4033C30.0931 13.4869 30.1149 13.5791 30.1149 13.6726V31.989C30.1145 32.7875 29.7971 33.5532 29.2325 34.1178C28.6679 34.6824 27.9023 34.9998 27.1038 35.0002ZM3.01172 6.08972C2.53321 6.09135 2.07476 6.28217 1.7364 6.62053C1.39804 6.95889 1.20723 7.41734 1.20559 7.89585V31.989C1.20723 32.4676 1.39804 32.926 1.7364 33.2644C2.07476 33.6027 2.53321 33.7935 3.01172 33.7952H27.1038C27.5823 33.7935 28.0407 33.6027 28.3791 33.2644C28.7175 32.926 28.9083 32.4676 28.9099 31.989V14.4239C28.8134 14.4419 28.7112 14.4538 28.6085 14.4662C28.3088 14.5016 28.0073 14.5204 27.7055 14.5226C26.7562 14.523 25.8162 14.3363 24.9391 13.9732C24.062 13.6101 23.2651 13.0777 22.5939 12.4064C21.9227 11.7352 21.3904 10.9382 21.0273 10.0611C20.6643 9.18405 20.4777 8.244 20.4781 7.29474C20.4801 6.89141 20.5124 6.48879 20.5746 6.09028L3.01172 6.08972Z" fill="white"/>
<path d="M18.4246 13.8976C18.2867 13.8988 18.1528 13.8512 18.0465 13.7633L15.1803 11.4706L12.3142 13.7633C12.2243 13.8349 12.116 13.8798 12.0018 13.8928C11.8876 13.9058 11.772 13.8863 11.6683 13.8367C11.5646 13.787 11.4769 13.7092 11.4154 13.6121C11.3539 13.515 11.3209 13.4025 11.3203 13.2875V5.49462C11.3209 5.33313 11.3853 5.17843 11.4995 5.06425C11.6137 4.95006 11.7684 4.88564 11.9299 4.88505H18.4246C18.5861 4.88564 18.7408 4.95006 18.855 5.06425C18.9692 5.17843 19.0336 5.33313 19.0342 5.49462V13.2881C19.0334 13.4495 18.969 13.6041 18.8548 13.7183C18.7407 13.8324 18.586 13.8969 18.4246 13.8976ZM15.1741 10.0799C15.3121 10.0788 15.446 10.1264 15.5523 10.2143L17.81 12.0204V6.10193H12.5338V12.017L14.7915 10.2109C14.9006 10.1237 15.0362 10.0763 15.1758 10.0765L15.1741 10.0799ZM27.6754 14.6415C26.5596 14.6386 25.4593 14.3813 24.4579 13.8891C23.4566 13.397 22.5807 12.6829 21.8969 11.8013C21.213 10.9197 20.7392 9.89374 20.5116 8.80148C20.2839 7.70922 20.3083 6.57941 20.5829 5.498L20.6134 5.39415C20.6134 5.38794 20.6315 5.32699 20.6315 5.32078C20.9204 4.30273 21.4267 3.35945 22.1154 2.55595C22.8041 1.75246 23.6589 1.10787 24.6208 0.666614C25.5827 0.225359 26.6288 -0.00206704 27.6871 1.41559e-05C28.7453 0.00209535 29.7906 0.233634 30.7507 0.67867C31.7108 1.12371 32.5631 1.77165 33.2486 2.57785C33.9341 3.38404 34.4367 4.32931 34.7217 5.34849C35.0066 6.36767 35.0672 7.43652 34.8992 8.48136C34.7312 9.52621 34.3386 10.5222 33.7485 11.4007C32.7882 12.8473 31.3406 13.9012 29.6689 14.3706C29.3152 14.4707 28.9544 14.5441 28.5897 14.5902C28.2545 14.6207 27.9615 14.6387 27.6748 14.6387L27.6754 14.6415ZM27.6754 1.22538C26.7071 1.22865 25.7533 1.46068 24.8917 1.90255C24.0302 2.34442 23.2852 2.98363 22.7176 3.76807C22.3092 4.34266 22 4.98157 21.8026 5.6583L21.7784 5.73732C21.6454 6.25534 21.5777 6.78795 21.5769 7.32276C21.5763 8.1234 21.7337 8.91629 22.0398 9.65609C22.346 10.3959 22.795 11.0681 23.3611 11.6342C23.9272 12.2004 24.5994 12.6493 25.3392 12.9555C26.079 13.2617 26.8719 13.419 27.6726 13.4184C27.9313 13.4182 28.1898 13.4039 28.4469 13.3756C28.748 13.3415 29.0456 13.2816 29.3364 13.1966C30.7292 12.806 31.9363 11.9299 32.7393 10.7267C33.3562 9.80878 33.7118 8.74037 33.7682 7.63584C33.8245 6.53131 33.5795 5.43225 33.0593 4.45626C32.5391 3.48027 31.7633 2.6641 30.8149 2.09509C29.8666 1.52608 28.7813 1.22508 27.6754 1.22538Z" fill="white"/>
<path d="M26.8408 9.61073C26.6791 9.6101 26.5239 9.54677 26.4079 9.43407L24.7311 7.75719C24.6193 7.64274 24.5572 7.48885 24.5581 7.32889C24.5591 7.16893 24.623 7.01579 24.7361 6.90268C24.8493 6.78957 25.0024 6.7256 25.1624 6.72465C25.3223 6.72369 25.4762 6.78583 25.5907 6.89759L26.8324 8.1393L29.7577 5.21958C29.872 5.10582 30.0268 5.04211 30.1881 5.04248C30.3494 5.04285 30.5039 5.10727 30.6176 5.22156C30.7314 5.33585 30.7951 5.49065 30.7947 5.65191C30.7944 5.81317 30.7299 5.96768 30.6157 6.08145L27.2619 9.4352C27.2071 9.49133 27.1416 9.53589 27.0693 9.56624C26.997 9.59659 26.9193 9.6121 26.8408 9.61186V9.61073Z" fill="white"/>
</svg>
