<svg width="33" height="37" viewBox="0 0 33 37" fill="none" xmlns="http://www.w3.org/2000/svg">
<path d="M11.6814 5.4583C11.6821 4.96081 11.7087 4.59405 11.7703 4.32244C11.8323 4.04885 11.9276 3.88144 12.0583 3.77326C12.1903 3.66396 12.3719 3.60381 12.6303 3.57296C12.8894 3.54203 13.2112 3.54187 13.6163 3.54187H20.128C20.5331 3.54187 20.8549 3.54203 21.114 3.57296C21.3724 3.60381 21.554 3.66396 21.686 3.77326C21.8167 3.88144 21.912 4.04885 21.974 4.32244C22.0349 4.59117 22.0616 4.95307 22.0628 5.44257C22.0609 5.48361 22.061 5.52437 22.0628 5.56476C22.0627 5.92883 22.0604 6.22273 22.0318 6.46276C22.0009 6.7212 21.9408 6.90276 21.8315 7.0348C21.7233 7.16549 21.5559 7.26079 21.2823 7.32281C21.0073 7.38513 20.6349 7.41165 20.128 7.41165H13.6163C13.2112 7.41165 12.8894 7.41149 12.6303 7.38056C12.3719 7.3497 12.1903 7.28956 12.0583 7.18026C11.9276 7.07207 11.8323 6.90467 11.7703 6.63107C11.7121 6.37435 11.6851 6.03261 11.6818 5.57582C11.6833 5.53709 11.6833 5.4979 11.6814 5.4583ZM9.16338 6.94004C9.41222 8.26824 10.0119 9.03838 10.7401 9.47945C11.6878 10.0535 12.8305 10.0535 13.6076 10.0535H13.6163H20.128C22.3897 10.0535 23.5476 9.31551 24.1307 8.353C24.4006 7.90728 24.5437 7.41848 24.6194 6.94486C26.2789 7.15463 27.5585 7.61014 28.4716 8.57728C29.6122 9.78551 30.2024 11.8154 30.2024 15.2441V25.0116C30.2024 28.0254 29.9027 30.1252 28.7134 31.4776C27.5271 32.8264 25.4305 33.4581 21.7559 33.4581H11.9884C8.31375 33.4581 6.21715 32.8264 5.03092 31.4776C3.84163 30.1252 3.54187 28.0254 3.54187 25.0116V15.2441C3.54187 11.8154 4.13206 9.78551 5.27273 8.57728C6.19284 7.60267 7.48519 7.14763 9.16338 6.94004ZM10.7401 1.47406C9.96107 1.94593 9.32911 2.79441 9.11647 4.29989C6.40842 4.60596 4.42969 5.47943 3.09296 7.05409C1.5724 8.84528 0.9 11.5238 0.9 15.2441V25.0116C0.9 28.4095 1.35903 31.1885 2.98698 33.116C4.61827 35.0474 7.40162 36.1 11.9884 36.1H21.7559C26.3427 36.1 29.126 35.0474 30.7573 33.1139C32.3853 31.1843 32.8443 28.4013 32.8443 24.9953V15.2278C32.8443 11.5156 32.1719 8.84118 30.6513 7.05002C29.3143 5.47503 27.335 4.59834 24.6259 4.28619C24.4113 2.78926 23.7809 1.9445 23.0042 1.47406C22.0564 0.89998 20.9138 0.899992 20.1367 0.9L20.128 0.9H13.6163L13.6076 0.9C12.8305 0.899992 11.6878 0.89998 10.7401 1.47406ZM14.0014 26.271C14.2654 26.5349 14.6005 26.6584 14.9349 26.6584C15.2666 26.6584 15.6198 26.5366 15.8696 26.2698L22.3801 19.7594C22.8912 19.2482 22.8912 18.4035 22.3801 17.8924C21.8689 17.3812 21.0242 17.3812 20.5131 17.8924L14.9349 23.4705L13.4266 21.9621C12.9154 21.451 12.0707 21.451 11.5596 21.9621C11.0484 22.4733 11.0484 23.318 11.5596 23.8291L14.0014 26.271Z" fill="#8B0000" stroke="#8B0000" stroke-width="0.2"/>
</svg>
