<svg width="45" height="45" viewBox="0 0 45 45" fill="none" xmlns="http://www.w3.org/2000/svg">
<path d="M43.526 20.1268H42.1219C41.9719 19.6002 41.7598 19.0934 41.4903 18.6168L42.4727 17.6102C42.6056 17.4785 42.7111 17.3218 42.7831 17.1491C42.8551 16.9764 42.8922 16.7911 42.8922 16.604C42.8922 16.4169 42.8551 16.2316 42.7831 16.0589C42.7111 15.8862 42.6056 15.7295 42.4727 15.5978L40.5778 13.6579C40.3082 13.4147 39.958 13.2801 39.5949 13.2801C39.2318 13.2801 38.8817 13.4147 38.612 13.6579L37.6287 14.6662C37.1657 14.3911 36.6706 14.1739 36.1546 14.0195V12.5829C36.1589 12.2058 36.0135 11.8424 35.7503 11.5724C35.4871 11.3023 35.1276 11.1476 34.7505 11.1421H34.1189V6.82893C34.1222 6.45243 33.9764 6.08991 33.7133 5.82057C33.4502 5.55123 33.0912 5.39697 32.7148 5.39148H28.5732V4.67234C28.5766 4.29555 28.4305 3.93279 28.1671 3.6634C27.9036 3.39401 27.5442 3.23994 27.1674 3.23489H24.9934V2.15659C24.9983 1.59177 24.7795 1.04795 24.3848 0.643883C23.9901 0.23982 23.4515 0.00834353 22.8868 0H20.781C20.2163 0.00834371 19.6778 0.239848 19.2833 0.643935C18.8887 1.04802 18.6701 1.59184 18.6752 2.15659V3.30655H16.5012C16.1247 3.31204 15.7657 3.46631 15.5026 3.73564C15.2395 4.00498 15.0937 4.3675 15.097 4.744V5.46314H10.9555C10.579 5.46863 10.22 5.6229 9.95695 5.89224C9.69386 6.16157 9.54806 6.52409 9.5514 6.90059V20.271C8.43315 20.4648 7.41906 21.0468 6.68748 21.9145C5.9559 22.7822 5.55368 23.88 5.55154 25.015C5.53642 26.2769 6.02297 27.4932 6.90427 28.3965C7.78556 29.2998 8.98947 29.8162 10.2514 29.8323C11.4476 29.8041 12.5905 29.3315 13.4574 28.5067C14.3243 27.6818 14.853 26.5638 14.9406 25.3704C15.0282 24.177 14.6683 22.9938 13.9312 22.0512C13.194 21.1087 12.1323 20.4743 10.953 20.2718V6.90059H15.0945V8.26638C15.0877 8.36107 15.1011 8.45614 15.1337 8.5453C15.1663 8.63447 15.2174 8.71571 15.2837 8.78366C15.35 8.85162 15.43 8.90474 15.5183 8.93954C15.6066 8.97433 15.7013 8.99 15.7962 8.98552H27.8008C27.8956 8.99 27.9903 8.97433 28.0786 8.93954C28.167 8.90474 28.2469 8.85162 28.3132 8.78366C28.3795 8.71571 28.4307 8.63447 28.4633 8.5453C28.4959 8.45614 28.5092 8.36107 28.5024 8.26638V6.90059H32.6439V11.2138H32.0123C31.6358 11.2193 31.2768 11.3735 31.0137 11.6429C30.7506 11.9122 30.6048 12.2747 30.6082 12.6512V14.0887C30.0874 14.2299 29.5906 14.4478 29.134 14.7353L28.1516 13.7287C27.882 13.4855 27.5318 13.3509 27.1687 13.3509C26.8056 13.3509 26.4554 13.4855 26.1858 13.7287L24.29 15.6694C24.1571 15.8012 24.0517 15.9579 23.9797 16.1306C23.9077 16.3033 23.8706 16.4886 23.8706 16.6757C23.8706 16.8628 23.9077 17.048 23.9797 17.2207C24.0517 17.3934 24.1571 17.5502 24.29 17.6819L25.2725 18.6885C25.0029 19.1651 24.7909 19.6719 24.6409 20.1985H23.2384C22.8618 20.2039 22.5027 20.3583 22.2396 20.6278C21.9764 20.8974 21.8307 21.2601 21.8343 21.6367V24.3683C21.831 24.7448 21.9768 25.1073 22.2399 25.3767C22.5029 25.646 22.8619 25.8003 23.2384 25.8058H24.6425C24.7794 26.3368 24.9921 26.8454 25.2742 27.3157L24.2917 28.3223C24.1588 28.454 24.0533 28.6108 23.9813 28.7835C23.9093 28.9562 23.8723 29.1414 23.8723 29.3286C23.8723 29.5157 23.9093 29.7009 23.9813 29.8736C24.0533 30.0463 24.1588 30.2031 24.2917 30.3348L26.1875 32.2755C26.4571 32.5187 26.8073 32.6533 27.1704 32.6533C27.5334 32.6533 27.8836 32.5187 28.1532 32.2755L29.1357 31.2689C29.5988 31.5439 30.0939 31.7611 30.6098 31.9155V33.353C30.6065 33.7295 30.7523 34.092 31.0154 34.3613C31.2785 34.6307 31.6375 34.785 32.0139 34.7904H32.6456V37.7378H20.9177V36.3729C20.9277 35.2433 20.4903 34.1557 19.7011 33.3475C18.9118 32.5394 17.8348 32.0764 16.7053 32.0597H4.20575C3.07772 32.0786 2.00285 32.5425 1.21539 33.3504C0.42792 34.1583 -0.00831695 35.2447 0.00173531 36.3729V44.2801C-0.00508491 44.3748 0.00824854 44.4699 0.0408563 44.559C0.0734641 44.6482 0.124605 44.7294 0.190907 44.7974C0.257208 44.8653 0.337163 44.9185 0.425499 44.9533C0.513834 44.9881 0.608543 45.0037 0.703377 44.9992H20.2194C20.3142 45.0037 20.4089 44.9881 20.4972 44.9533C20.5856 44.9185 20.6655 44.8653 20.7318 44.7974C20.7981 44.7294 20.8493 44.6482 20.8819 44.559C20.9145 44.4699 20.9278 44.3748 20.921 44.2801V39.1761H32.7856C33.1621 39.1706 33.5211 39.0164 33.7841 38.747C34.0472 38.4777 34.193 38.1152 34.1897 37.7387V34.6471H34.8213C35.1978 34.6416 35.5568 34.4874 35.8199 34.218C36.083 33.9487 36.2288 33.5862 36.2255 33.2097V31.7722C36.7414 31.6178 37.2365 31.4006 37.6996 31.1256L38.682 32.1322C38.9516 32.3754 39.3018 32.51 39.6649 32.51C40.028 32.51 40.3782 32.3754 40.6478 32.1322L42.5436 30.1914C42.6765 30.0597 42.782 29.903 42.854 29.7303C42.926 29.5576 42.963 29.3723 42.963 29.1852C42.963 28.9981 42.926 28.8129 42.854 28.6402C42.782 28.4674 42.6765 28.3107 42.5436 28.179L41.5611 27.1724C41.801 26.6831 42.0116 26.18 42.1919 25.6658H43.596C43.9732 25.6603 44.3329 25.5054 44.5961 25.2352C44.8593 24.965 45.0046 24.6014 45.0002 24.2241V21.4926C44.961 21.1252 44.7902 20.7844 44.5191 20.5333C44.2481 20.2822 43.8953 20.1378 43.526 20.1268ZM13.7613 24.9433C13.746 25.5927 13.5395 26.2231 13.1676 26.7556C12.7957 27.2882 12.2749 27.6992 11.6705 27.9371C11.0661 28.175 10.4049 28.2293 9.76979 28.0932C9.13466 27.9571 8.55381 27.6366 8.09998 27.1719C7.64615 26.7072 7.33953 26.1189 7.21852 25.4807C7.0975 24.8426 7.16747 24.1829 7.41967 23.5843C7.67186 22.9857 8.09507 22.4748 8.63628 22.1156C9.17749 21.7564 9.81265 21.5649 10.4622 21.5651C10.9009 21.5695 11.3343 21.6605 11.7377 21.8329C12.1411 22.0052 12.5066 22.2554 12.8131 22.5693C13.1195 22.8831 13.3611 23.2544 13.5238 23.6618C13.6865 24.0692 13.7672 24.5047 13.7613 24.9433ZM27.2391 7.54807H16.6395V4.744H19.5177C19.6126 4.74849 19.7073 4.73281 19.7956 4.69802C19.8839 4.66323 19.9639 4.6101 20.0302 4.54214C20.0965 4.47419 20.1476 4.39295 20.1802 4.30379C20.2128 4.21462 20.2262 4.11955 20.2194 4.02486V2.15659C20.2176 1.96834 20.2904 1.78704 20.4218 1.65229C20.5533 1.51754 20.7328 1.4403 20.921 1.43745H23.0268C23.2151 1.44009 23.3946 1.51725 23.5262 1.65205C23.6577 1.78685 23.7304 1.96828 23.7284 2.15659V4.02569C23.7216 4.12039 23.7349 4.21545 23.7675 4.30462C23.8001 4.39378 23.8513 4.47502 23.9176 4.54298C23.9839 4.61093 24.0638 4.66406 24.1522 4.69885C24.2405 4.73365 24.3352 4.74932 24.43 4.74483H27.3083V7.54807H27.2391ZM19.5177 43.4151H16.7095V38.5986C16.7127 38.5044 16.697 38.4105 16.6632 38.3225C16.6293 38.2345 16.5781 38.1542 16.5126 38.0864C16.4471 38.0185 16.3686 37.9646 16.2818 37.9278C16.195 37.891 16.1017 37.872 16.0074 37.872C15.9131 37.872 15.8198 37.891 15.733 37.9278C15.6462 37.9646 15.5677 38.0185 15.5022 38.0864C15.4367 38.1542 15.3855 38.2345 15.3517 38.3225C15.3179 38.4105 15.3021 38.5044 15.3054 38.5986V43.4151H5.61737V38.5986C5.62379 38.5044 5.61024 38.4098 5.57762 38.3211C5.54499 38.2324 5.49402 38.1516 5.42804 38.084C5.36205 38.0164 5.28254 37.9634 5.19469 37.9286C5.10684 37.8938 5.01263 37.8779 4.91823 37.882C4.82339 37.8775 4.72869 37.8932 4.64035 37.928C4.55202 37.9628 4.47206 38.0159 4.40576 38.0839C4.33946 38.1518 4.28832 38.2331 4.25571 38.3222C4.2231 38.4114 4.20977 38.5064 4.21659 38.6011V43.4151H1.40585V36.2287C1.39939 35.4758 1.69106 34.7509 2.2172 34.2123C2.74334 33.6736 3.46121 33.365 4.21409 33.3538H16.7136C17.4665 33.365 18.1844 33.6736 18.7105 34.2123C19.2367 34.7509 19.5283 35.4758 19.5219 36.2287L19.5177 43.4151ZM41.6303 24.2241C41.4635 24.2185 41.3003 24.2737 41.1712 24.3795C41.042 24.4853 40.9558 24.6344 40.9286 24.7991C40.7403 25.5623 40.4308 26.2904 40.012 26.9557C39.9356 27.0898 39.9014 27.2439 39.9139 27.3978C39.9263 27.5516 39.9849 27.6981 40.082 27.8182L41.4861 29.184L39.667 31.1247L38.2629 29.6873C38.1564 29.5717 38.0105 29.5003 37.8539 29.487C37.6974 29.4738 37.5415 29.5196 37.4171 29.6156C36.7647 30.0284 36.0552 30.3431 35.3113 30.5498C35.1533 30.5941 35.0135 30.6878 34.9125 30.8172C34.8115 30.9465 34.7544 31.1048 34.7497 31.2689V33.2097H32.1531V31.1972C32.1617 31.0299 32.1096 30.865 32.0064 30.7329C31.9032 30.6008 31.7559 30.5104 31.5915 30.4781C30.8428 30.2849 30.1313 29.9693 29.4857 29.544C29.3556 29.4658 29.2041 29.4306 29.0529 29.4435C28.9016 29.4564 28.7583 29.5166 28.6432 29.6156L27.3099 30.9814L25.4175 29.1123L26.7508 27.749C26.8631 27.6371 26.9319 27.4888 26.9447 27.3307C26.9576 27.1726 26.9136 27.0151 26.8208 26.8866C26.4145 26.2148 26.1059 25.4887 25.9042 24.73C25.8646 24.5714 25.7749 24.4299 25.6485 24.3263C25.5221 24.2227 25.3657 24.1627 25.2025 24.155H23.3084V21.4209H25.2042C25.371 21.4266 25.5342 21.3714 25.6633 21.2656C25.7924 21.1598 25.8786 21.0106 25.9058 20.8459C26.0942 20.0827 26.4037 19.3546 26.8225 18.6893C26.8989 18.5552 26.9331 18.4012 26.9206 18.2473C26.9081 18.0934 26.8495 17.9469 26.7525 17.8269L25.4192 16.4611L27.2441 14.5203L28.5774 15.8861C28.6837 16.0007 28.829 16.0716 28.9848 16.0848C29.1406 16.0981 29.2957 16.0528 29.4199 15.9578C30.0723 15.545 30.7818 15.2303 31.5256 15.0236C31.6837 14.9793 31.8234 14.8856 31.9245 14.7562C32.0255 14.6269 32.0825 14.4686 32.0873 14.3045V12.3637H34.7538V14.3762C34.7453 14.5435 34.7974 14.7084 34.9005 14.8405C35.0037 14.9726 35.151 15.063 35.3155 15.0953C36.0627 15.2889 36.7728 15.6045 37.4171 16.0294C37.5472 16.1076 37.6987 16.1428 37.8499 16.1299C38.0012 16.117 38.1445 16.0568 38.2596 15.9578L39.5928 14.5203L41.4886 16.3894L40.0837 17.8269C39.9713 17.9388 39.9025 18.0871 39.8897 18.2452C39.8769 18.4033 39.9208 18.5608 40.0137 18.6893C40.42 19.3611 40.7286 20.0872 40.9303 20.8459C40.9699 21.0045 41.0595 21.146 41.1859 21.2496C41.3123 21.3532 41.4687 21.4132 41.6319 21.4209H43.5277V24.1525H41.6303V24.2241Z" fill="#8B0000"/>
<path d="M33.5532 17.1053C32.4212 17.1053 31.3147 17.441 30.3736 18.0698C29.4324 18.6987 28.6988 19.5925 28.2657 20.6383C27.8325 21.6841 27.7192 22.8348 27.94 23.945C28.1608 25.0551 28.7059 26.0749 29.5063 26.8753C30.3067 27.6757 31.3265 28.2208 32.4366 28.4416C33.5468 28.6624 34.6975 28.5491 35.7433 28.1159C36.7891 27.6828 37.6829 26.9492 38.3118 26.008C38.9406 25.0669 39.2763 23.9604 39.2763 22.8284C39.2693 21.3127 38.6641 19.8611 37.5923 18.7893C36.5205 17.7175 35.0689 17.1123 33.5532 17.1053ZM33.5532 27.1566C32.6973 27.1566 31.8606 26.9028 31.149 26.4273C30.4374 25.9518 29.8827 25.276 29.5552 24.4853C29.2277 23.6946 29.142 22.8245 29.309 21.985C29.4759 21.1456 29.8881 20.3746 30.4933 19.7694C31.0985 19.1642 31.8695 18.752 32.7089 18.5851C33.5484 18.4181 34.4184 18.5038 35.2092 18.8313C35.9999 19.1588 36.6757 19.7135 37.1512 20.4251C37.6267 21.1368 37.8805 21.9734 37.8805 22.8293C37.8739 23.9746 37.4158 25.0711 36.6056 25.8807C35.7954 26.6903 34.6985 27.1476 33.5532 27.1533V27.1566ZM15.0538 13.7554H20.4978C20.5915 13.7587 20.6848 13.743 20.7723 13.7094C20.8598 13.6758 20.9397 13.6249 21.0071 13.5598C21.0745 13.4946 21.1281 13.4166 21.1647 13.3303C21.2013 13.244 21.2202 13.1513 21.2202 13.0575C21.2202 12.9638 21.2013 12.871 21.1647 12.7847C21.1281 12.6985 21.0745 12.6204 21.0071 12.5553C20.9397 12.4902 20.8598 12.4393 20.7723 12.4057C20.6848 12.3721 20.5915 12.3564 20.4978 12.3596H14.9871C14.894 12.3539 14.8006 12.3681 14.7133 12.4011C14.626 12.4342 14.5467 12.4854 14.4807 12.5515C14.4146 12.6175 14.3634 12.6968 14.3303 12.7841C14.2973 12.8714 14.2831 12.9648 14.2888 13.0579C14.3058 13.249 14.3943 13.4265 14.5366 13.5551C14.679 13.6836 14.8646 13.7537 15.0563 13.7513L15.0538 13.7554ZM15.0538 17.9436H20.4978C20.6787 17.9374 20.8501 17.8611 20.9759 17.7309C21.1017 17.6007 21.172 17.4267 21.172 17.2457C21.172 17.0647 21.1017 16.8907 20.9759 16.7605C20.8501 16.6303 20.6787 16.5541 20.4978 16.5478H14.9871C14.894 16.5421 14.8006 16.5562 14.7133 16.5893C14.626 16.6224 14.5467 16.6736 14.4807 16.7396C14.4146 16.8057 14.3634 16.885 14.3303 16.9723C14.2973 17.0596 14.2831 17.1529 14.2888 17.2461C14.3178 17.4321 14.41 17.6024 14.5497 17.7285C14.6895 17.8546 14.8683 17.9288 15.0563 17.9386L15.0538 17.9436Z" fill="#8B0000"/>
</svg>
