<svg width="39" height="45" viewBox="0 0 39 45" fill="none" xmlns="http://www.w3.org/2000/svg">
<path d="M36.176 14.4144C36.0687 13.8065 36.0595 13.1853 36.1485 12.5745C36.344 11.5206 36.2099 10.432 35.7644 9.45711C35.1208 8.57401 34.2226 7.90875 33.1903 7.55052C32.6212 7.32862 32.0901 7.01936 31.6162 6.63389C31.2243 6.16782 30.909 5.64239 30.6821 5.07729C30.3142 4.05155 29.6391 3.16409 28.7488 2.53573C27.7573 2.09372 26.6554 1.961 25.5873 2.15491C24.9689 2.24295 24.3405 2.23395 23.7249 2.12825C23.1628 1.92201 22.6363 1.62964 22.1641 1.26161C21.316 0.545357 20.2693 0.105188 19.1642 0C18.0597 0.105669 17.0134 0.54481 16.1643 1.25911C15.6928 1.62673 15.1671 1.91908 14.6061 2.12575C13.9899 2.23171 13.3609 2.2407 12.742 2.15241C11.6748 1.95907 10.5741 2.09118 9.58294 2.53156C8.69349 3.16007 8.01909 4.04715 7.65135 5.07229C7.42391 5.63592 7.10894 6.16013 6.71806 6.62556C6.24363 7.01352 5.71137 7.32478 5.14062 7.54802C4.10955 7.90608 3.21238 8.57038 2.56906 9.45211C2.12233 10.4275 1.98759 11.5171 2.18324 12.572C2.27211 13.1823 2.26283 13.8029 2.15574 14.4102C1.9461 14.9665 1.64996 15.4862 1.27828 15.9502C0.555482 16.782 0.108821 17.8177 0 18.9142C0.10926 20.0113 0.55617 21.0475 1.27911 21.8799C1.64913 22.3406 1.94439 22.8566 2.15408 23.409C2.26211 24.0185 2.27168 24.6414 2.18241 25.254C1.98634 26.3089 2.12049 27.3987 2.56656 28.3747C3.21021 29.2577 4.10834 29.9229 5.14062 30.2813C5.71041 30.5029 6.24207 30.8121 6.71639 31.1979C6.76896 31.2523 6.81874 31.3093 6.86555 31.3687L2.80572 39.9575C2.74613 40.0834 2.71904 40.2221 2.7269 40.3612C2.73476 40.5002 2.77733 40.635 2.85072 40.7533C2.92503 40.8725 3.02752 40.9715 3.14915 41.0417C3.27079 41.1119 3.40783 41.1511 3.54819 41.1558L8.18133 41.3225L11.2845 44.7198C11.3795 44.8231 11.4983 44.9016 11.6306 44.9484C11.7629 44.9952 11.9046 45.0089 12.0434 44.9884C12.1822 44.9678 12.3139 44.9136 12.4269 44.8305C12.54 44.7474 12.631 44.6379 12.692 44.5115L16.3743 36.7118C17.171 37.357 18.1441 37.7462 19.1659 37.8284C20.1872 37.7466 21.16 37.3579 21.9566 36.7135L25.6398 44.5132C25.7005 44.6397 25.7914 44.7494 25.9043 44.8326C26.0173 44.9159 26.149 44.9702 26.2878 44.9907C26.4266 45.0113 26.5683 44.9975 26.7006 44.9506C26.8329 44.9036 26.9516 44.825 27.0464 44.7215L30.1496 41.3241L34.7869 41.1575C34.9273 41.1528 35.0643 41.1136 35.1859 41.0434C35.3076 40.9732 35.4101 40.8742 35.4844 40.755C35.5579 40.6367 35.6006 40.5019 35.6086 40.3629C35.6166 40.2239 35.5897 40.0851 35.5302 39.9592L31.467 31.3679C31.5129 31.3098 31.5619 31.2541 31.6137 31.2012C32.0881 30.8133 32.6204 30.502 33.1911 30.2788C34.2226 29.9211 35.1202 29.2567 35.7635 28.3747C36.2093 27.3995 36.3437 26.3107 36.1485 25.2565C36.0593 24.6454 36.0683 24.024 36.1752 23.4157C36.3856 22.8621 36.6817 22.3449 37.0526 21.8833C37.7762 21.0506 38.2232 20.0137 38.3318 18.9159C38.2231 17.8199 37.777 16.7845 37.0551 15.9527C36.683 15.4892 36.3869 14.9701 36.176 14.4144ZM11.6895 42.6474L9.20712 39.93C9.13016 39.8461 9.03724 39.7783 8.9338 39.7307C8.83036 39.683 8.71846 39.6565 8.60465 39.6525L4.89813 39.52L7.87551 33.2178C8.22453 34.0641 8.81929 34.7863 9.58294 35.291C10.5748 35.7319 11.6763 35.8646 12.7445 35.6719C13.3643 35.584 13.9941 35.5933 14.6111 35.6994C14.7169 35.7286 14.8203 35.7662 14.9202 35.8119L11.6895 42.6474ZM33.4386 39.5192L29.7271 39.6517C29.6132 39.6556 29.5011 39.6822 29.3976 39.7298C29.294 39.7774 29.2009 39.8452 29.1238 39.9292L26.6414 42.6466L23.4149 35.8135C23.5157 35.7678 23.6199 35.73 23.7265 35.7002C24.3427 35.5945 24.9716 35.5855 25.5906 35.6735C26.6579 35.8653 27.7582 35.7321 28.7488 35.291C29.5138 34.7854 30.1085 34.0608 30.4554 33.212L33.4386 39.5192ZM35.6485 20.9191C35.1595 21.5353 34.7801 22.231 34.5269 22.9757C34.3602 23.7704 34.332 24.588 34.4436 25.3923C34.5869 26.1069 34.5313 26.8471 34.2828 27.5322C33.798 28.0977 33.1682 28.5204 32.4612 28.7547C31.7104 29.052 31.0155 29.4746 30.4062 30.0046C30.1561 30.2577 29.9365 30.5394 29.7521 30.8437C29.5282 31.2261 29.3241 31.6196 29.1405 32.0229C28.9006 32.7282 28.4703 33.3534 27.8972 33.8294C27.2017 34.0729 26.4541 34.1275 25.7306 33.9878C24.9192 33.8772 24.095 33.9037 23.2924 34.0661C22.7786 34.218 22.291 34.4476 21.8466 34.7469C21.6324 34.8827 21.4175 35.0302 21.2016 35.1769C20.6243 35.6795 19.9202 36.0141 19.1659 36.1444C18.4124 36.0155 17.7086 35.6827 17.131 35.1819C16.9151 35.0344 16.701 34.8877 16.486 34.7519C16.0434 34.4536 15.5578 34.2249 15.046 34.0736C14.6393 33.9721 14.2211 33.9236 13.8019 33.9294C13.4019 33.9294 12.9995 33.9611 12.6036 33.9928C11.8802 34.1336 11.1322 34.0786 10.4371 33.8336C9.86606 33.3577 9.4366 32.7343 9.19546 32.0312C9.01202 31.6269 8.80759 31.2325 8.58298 30.8496C8.39904 30.5432 8.17823 30.2606 7.92551 30.0079C7.31674 29.4781 6.62246 29.0555 5.87226 28.758C5.16402 28.5234 4.53331 28.0998 4.04817 27.533C3.80122 26.8476 3.74562 26.1078 3.88734 25.3931C3.99921 24.5888 3.97102 23.7712 3.80401 22.9766C3.55042 22.2327 3.17104 21.5379 2.68239 20.9225C2.17694 20.3581 1.83926 19.6637 1.70743 18.9176C1.83887 18.1733 2.17569 17.4806 2.67989 16.9176C3.17047 16.2992 3.55101 15.601 3.80484 14.8536C3.97168 14.0611 3.99988 13.2457 3.88817 12.4437C3.74632 11.7277 3.80397 10.9866 4.05483 10.3012C4.53944 9.73536 5.16925 9.31242 5.87643 9.07796C6.628 8.77949 7.32321 8.35509 7.93218 7.82301C8.46595 7.22353 8.89244 6.53657 9.19295 5.79226C9.43433 5.09021 9.86381 4.4679 10.4346 3.99317C11.1297 3.74807 11.8778 3.69341 12.6011 3.83484C13.4147 3.94475 14.241 3.91657 15.0452 3.75151C15.7994 3.50243 16.5058 3.12712 17.1343 2.64156C17.7109 2.14259 18.4133 1.81116 19.165 1.68326C19.9166 1.81097 20.6187 2.14244 21.195 2.64156C21.8239 3.12759 22.5309 3.5032 23.2857 3.75235C24.0896 3.91628 24.9153 3.94304 25.7281 3.83151C26.4516 3.69036 27.1997 3.74561 27.8947 3.9915C28.4668 4.466 28.897 5.0891 29.138 5.79226C29.4418 6.53706 29.872 7.22379 30.4096 7.82218C31.0183 8.3521 31.7126 8.77476 32.4628 9.07213C33.1707 9.30735 33.8011 9.73115 34.2861 10.2979C34.5345 10.9828 34.5901 11.7227 34.4469 12.437C34.3352 13.2399 34.3634 14.0561 34.5302 14.8494C34.7843 15.5957 35.1648 16.2928 35.6552 16.9101C36.1587 17.4735 36.4952 18.166 36.6268 18.9101C36.4951 19.6581 36.1562 20.3541 35.6485 20.9191Z" fill="#8B0000"/>
<path d="M19.1652 7.02226C16.817 7.05578 14.5311 7.78274 12.5949 9.11175C10.6587 10.4408 9.15863 12.3125 8.28323 14.4917C7.40782 16.6708 7.19617 19.0602 7.67489 21.3593C8.15361 23.6584 9.30132 25.7647 10.9737 27.4133C12.6462 29.062 14.7687 30.1794 17.0744 30.6252C19.3801 31.071 21.7662 30.8252 23.9326 29.9187C26.099 29.0122 27.9491 27.4854 29.2503 25.5304C30.5514 23.5754 31.2456 21.2794 31.2455 18.9309C31.2215 15.7498 29.9352 12.7083 27.6695 10.4752C25.4037 8.24206 22.3439 7.00008 19.1627 7.02226H19.1652ZM19.1652 29.148C17.1507 29.1191 15.1898 28.4953 13.5288 27.3551C11.8679 26.2149 10.5811 24.6091 9.83018 22.7396C9.07927 20.8701 8.89778 18.8203 9.30851 16.848C9.71925 14.8757 10.7039 13.0687 12.1386 11.6544C13.5734 10.2401 15.3942 9.28145 17.3722 8.89902C19.3503 8.5166 21.3972 8.72745 23.2557 9.50507C25.1143 10.2827 26.7015 11.5924 27.8178 13.2695C28.9341 14.9466 29.5297 16.9163 29.5297 18.9309C29.5099 21.6602 28.4069 24.2698 26.4632 26.1858C24.5195 28.1018 21.8944 29.1673 19.1652 29.148Z" fill="#8B0000"/>
<path d="M23.743 15.7595L18.0766 21.4217L14.25 17.5952C14.172 17.5139 14.0785 17.4489 13.975 17.4042C13.8715 17.3595 13.7602 17.3359 13.6474 17.3348C13.5347 17.3337 13.4229 17.3551 13.3186 17.3978C13.2142 17.4404 13.1195 17.5035 13.0398 17.5833C12.9602 17.6631 12.8973 17.758 12.8548 17.8624C12.8124 17.9669 12.7912 18.0787 12.7925 18.1914C12.7939 18.3042 12.8177 18.4155 12.8627 18.5189C12.9076 18.6223 12.9727 18.7156 13.0543 18.7935L17.4782 23.2175C17.637 23.3758 17.852 23.4647 18.0761 23.4647C18.3003 23.4647 18.5153 23.3758 18.674 23.2175L24.9346 16.9569C25.0932 16.7982 25.1822 16.5831 25.1821 16.3587C25.1821 16.1344 25.0929 15.9193 24.9342 15.7607C24.7755 15.6021 24.5603 15.5131 24.336 15.5132C24.1117 15.5133 23.8966 15.6025 23.738 15.7611L23.743 15.7595Z" fill="#8B0000"/>
</svg>
