<svg width="35" height="35" viewBox="0 0 35 35" fill="none" xmlns="http://www.w3.org/2000/svg">
<path d="M26.9215 18.4715C26.6975 20.6346 25.7382 22.6554 24.2038 24.1965C22.6694 25.7375 20.6528 26.7056 18.4907 26.939C18.4471 26.9384 18.4039 26.9465 18.3635 26.9629C18.3232 26.9792 18.2865 27.0035 18.2556 27.0343C18.2248 27.0651 18.2005 27.1017 18.184 27.1421C18.1676 27.1824 18.1594 27.2256 18.1599 27.2692V34.339C18.1599 34.5143 18.0903 34.6824 17.9663 34.8064C17.8423 34.9304 17.6742 35 17.4989 35C17.3236 35 17.1554 34.9304 17.0315 34.8064C16.9075 34.6824 16.8378 34.5143 16.8378 34.339V31.7739C16.8314 31.6883 16.7945 31.6079 16.7338 31.5473C16.6731 31.4867 16.5926 31.4499 16.507 31.4437C13.5677 31.2064 10.7795 30.0427 8.54345 28.1202C6.30745 26.1976 4.73901 23.6153 4.06382 20.7447C4.03832 20.6595 4.03028 20.5701 4.04017 20.4817C4.05006 20.3933 4.07768 20.3078 4.12137 20.2304C4.16507 20.1529 4.22395 20.0851 4.29448 20.0309C4.36501 19.9768 4.44575 19.9374 4.53186 19.9152C4.61796 19.8929 4.70767 19.8883 4.79561 19.9016C4.88355 19.9148 4.96791 19.9457 5.04363 19.9923C5.11936 20.0389 5.18491 20.1003 5.23634 20.1729C5.28778 20.2454 5.32404 20.3276 5.34297 20.4145C5.94324 22.991 7.34139 25.3124 9.33818 27.0477C11.335 28.7831 13.8285 29.844 16.4636 30.0793C16.5494 30.1222 16.6329 30.0793 16.7125 29.9974C16.7557 29.973 16.7905 29.9363 16.8126 29.8919C16.8348 29.8476 16.8431 29.7976 16.8367 29.7485V27.2698C16.8372 27.2262 16.8291 27.183 16.8126 27.1426C16.7962 27.1023 16.7718 27.0656 16.741 27.0349C16.7101 27.0041 16.6735 26.9798 16.6331 26.9634C16.5927 26.9471 16.5495 26.9389 16.5059 26.9395C14.3535 26.7001 12.3447 25.7417 10.8045 24.2192C9.26615 22.6735 8.30575 20.6461 8.08418 18.4766C8.07149 18.3972 8.03152 18.3246 7.97115 18.2715C7.91078 18.2183 7.83378 18.1878 7.75338 18.1853H0.68022C0.499814 18.1853 0.326798 18.1136 0.199232 17.9861C0.0716658 17.8585 0 17.6855 0 17.5051C0 17.3247 0.0716658 17.1517 0.199232 17.0241C0.326798 16.8965 0.499814 16.8249 0.68022 16.8249H3.36723C3.4474 16.8216 3.52402 16.7909 3.58424 16.7378C3.64446 16.6848 3.68463 16.6127 3.69803 16.5336C3.87456 13.5985 4.96546 10.7922 6.8177 8.5085C8.66994 6.22479 11.1906 4.57818 14.0261 3.79964C14.1977 3.76712 14.3753 3.80147 14.5224 3.89565C14.6695 3.98983 14.775 4.1367 14.8173 4.30618C14.8596 4.47565 14.8354 4.65488 14.7498 4.80714C14.6642 4.95939 14.5236 5.07314 14.3569 5.12508C11.8206 5.80789 9.56083 7.26575 7.89321 9.29507C6.22559 11.3244 5.23336 13.8238 5.05508 16.4444C5.04421 16.4927 5.04473 16.5428 5.05659 16.5909C5.06846 16.6389 5.09134 16.6836 5.12343 16.7212C5.15552 16.7589 5.19594 16.7886 5.24149 16.808C5.28705 16.8273 5.33648 16.8358 5.38588 16.8328H7.7387C7.8191 16.8302 7.89611 16.7998 7.95648 16.7466C8.01685 16.6934 8.05681 16.6209 8.0695 16.5415C8.29087 14.3749 9.24984 12.3502 10.7858 10.8062C12.3219 9.26233 14.3417 8.29297 16.507 8.06047C16.5506 8.06107 16.5939 8.05295 16.6342 8.03658C16.6746 8.0202 16.7113 7.99591 16.7421 7.96513C16.7729 7.93435 16.7973 7.89771 16.8137 7.85737C16.8302 7.81702 16.8384 7.7738 16.8378 7.73024V0.661027C16.8378 0.485712 16.9075 0.317577 17.0315 0.19361C17.1554 0.0696438 17.3236 0 17.4989 0C17.6742 0 17.8423 0.0696438 17.9663 0.19361C18.0903 0.317577 18.1599 0.485712 18.1599 0.661027V8.6769C18.1643 8.77049 18.1492 8.86397 18.1153 8.95136C18.0815 9.03874 18.0298 9.11809 17.9635 9.18431C17.8973 9.25054 17.8179 9.30218 17.7305 9.33593C17.6431 9.36967 17.5496 9.38477 17.456 9.38026C10.2654 9.38026 6.67406 18.1785 11.7545 23.2618C16.835 28.3451 25.5147 24.7086 25.6378 17.5C25.6368 17.4129 25.6533 17.3265 25.6862 17.2458C25.7191 17.1652 25.7678 17.0919 25.8295 17.0304C25.8911 16.9688 25.9644 16.9203 26.0451 16.8875C26.1258 16.8547 26.2123 16.8384 26.2994 16.8395H34.3153C34.4957 16.8395 34.6687 16.9112 34.7963 17.0388C34.9238 17.1663 34.9955 17.3394 34.9955 17.5198C34.9955 17.7002 34.9238 17.8732 34.7963 18.0007C34.6687 18.1283 34.4957 18.2 34.3153 18.2H31.6734C31.5914 18.1966 31.5112 18.225 31.4496 18.2793C31.388 18.3335 31.3497 18.4095 31.3426 18.4913C31.1274 21.4444 29.9845 24.254 28.0772 26.5187C26.1698 28.7835 23.5956 30.3877 20.7222 31.1021C20.5505 31.1318 20.374 31.0941 20.2294 30.997C20.0847 30.8999 19.9831 30.7508 19.9455 30.5807C19.9079 30.4106 19.9373 30.2325 20.0276 30.0836C20.1179 29.9346 20.2621 29.8261 20.4303 29.7807C22.9965 29.1438 25.2981 27.7178 27.011 25.7036C28.7238 23.6894 29.7614 21.1885 29.9777 18.5534C29.9885 18.5051 29.988 18.4549 29.9762 18.4069C29.9643 18.3588 29.9414 18.3142 29.9093 18.2765C29.8772 18.2388 29.8368 18.2091 29.7912 18.1898C29.7457 18.1704 29.6963 18.1619 29.6469 18.165H27.2517C27.1713 18.1675 27.0943 18.198 27.0339 18.2511C26.9736 18.3043 26.9336 18.3768 26.9209 18.4563L26.9215 18.4715ZM32.2763 7.48129L27.4973 12.2304C27.3803 12.3573 27.218 12.4327 27.0457 12.4404H23.8608C23.7738 12.4481 23.6899 12.4761 23.6158 12.5223L17.9539 18.2237C17.8273 18.346 17.6577 18.4138 17.4817 18.4125C17.3057 18.4112 17.1372 18.3409 17.0124 18.2167C16.8877 18.0925 16.8166 17.9244 16.8144 17.7484C16.8123 17.5723 16.8793 17.4025 17.001 17.2753L22.6629 11.5705C22.7009 11.5514 22.7327 11.5219 22.7547 11.4854C22.7767 11.449 22.7879 11.407 22.7871 11.3645V8.17337C22.7862 8.08145 22.804 7.99031 22.8394 7.90549C22.8748 7.82067 22.9271 7.74395 22.9931 7.67999L27.7451 2.93482C27.8368 2.83565 27.9563 2.76639 28.0879 2.73606C28.2196 2.70573 28.3573 2.71573 28.4832 2.76475C28.6091 2.81378 28.7173 2.89957 28.7938 3.01095C28.8702 3.12233 28.9114 3.25415 28.9119 3.38925V5.99271C28.9175 6.07855 28.9541 6.15942 29.015 6.2202C29.0759 6.28097 29.1568 6.3175 29.2427 6.32294H31.8055C31.9427 6.31789 32.0782 6.35465 32.194 6.42835C32.3099 6.50204 32.4006 6.60919 32.4541 6.7356C32.5077 6.862 32.5216 7.0017 32.494 7.13618C32.4663 7.27066 32.3985 7.39357 32.2994 7.48863L32.2763 7.48129ZM26.8323 10.9812L29.5983 8.21514C29.6465 8.17073 29.6805 8.11316 29.6962 8.04958C29.7119 7.986 29.7085 7.91921 29.6866 7.8575C29.6646 7.7958 29.625 7.74191 29.5727 7.70252C29.5204 7.66314 29.4576 7.63999 29.3923 7.63596H28.2277C28.0472 7.64026 27.8722 7.57341 27.7405 7.44986C27.6088 7.3263 27.531 7.15593 27.5238 6.9755V5.84651C27.5235 5.77956 27.5035 5.71417 27.4664 5.65845C27.4293 5.60274 27.3766 5.55913 27.315 5.53305C27.2533 5.50697 27.1854 5.49955 27.1195 5.51172C27.0537 5.52389 26.9929 5.55511 26.9446 5.60151L24.2226 8.36755C24.15 8.4309 24.1054 8.52038 24.0984 8.6165V10.7655C24.0979 10.8091 24.1061 10.8523 24.1225 10.8927C24.139 10.933 24.1633 10.9697 24.1942 11.0004C24.225 11.0312 24.2617 11.0555 24.302 11.0719C24.3424 11.0883 24.3857 11.0964 24.4292 11.0958H26.6183C26.7041 11.0958 26.7877 11.0958 26.8244 11.0105L26.8323 10.9812ZM23.1145 17.5079C23.1167 18.6199 22.789 19.7075 22.1728 20.6331C21.5566 21.5587 20.6796 22.2806 19.6528 22.7076C18.6261 23.1345 17.4958 23.2472 16.405 23.0314C15.3141 22.8156 14.3119 22.281 13.5251 21.4952C12.7382 20.7095 12.2022 19.708 11.9849 18.6175C11.7675 17.527 11.8786 16.3965 12.3041 15.3692C12.7296 14.3418 13.4503 13.4638 14.375 12.8463C15.2998 12.2288 16.3869 11.8995 17.4989 11.9002C17.6681 11.9101 17.8271 11.9842 17.9435 12.1075C18.0598 12.2309 18.1246 12.394 18.1246 12.5635C18.1246 12.733 18.0598 12.8961 17.9435 13.0194C17.8271 13.1427 17.6681 13.2169 17.4989 13.2268C16.9334 13.2203 16.3722 13.326 15.8479 13.5379C15.3236 13.7498 14.8465 14.0637 14.4443 14.4613C14.0421 14.8588 13.7229 15.3323 13.5049 15.8541C13.287 16.376 13.1748 16.9359 13.1748 17.5014C13.1748 18.0669 13.287 18.6268 13.5049 19.1487C13.7229 19.6706 14.0421 20.144 14.4443 20.5416C14.8465 20.9392 15.3236 21.253 15.8479 21.4649C16.3722 21.6768 16.9334 21.7826 17.4989 21.7761C19.9827 21.7761 21.6327 19.9183 21.7529 17.5011C21.7496 17.4076 21.7654 17.3145 21.7995 17.2273C21.8336 17.1402 21.8852 17.061 21.9511 16.9946C22.017 16.9282 22.0959 16.8761 22.1827 16.8413C22.2696 16.8066 22.3627 16.7901 22.4562 16.7927C22.5497 16.7954 22.6417 16.8172 22.7264 16.8568C22.8112 16.8965 22.8869 16.953 22.9489 17.0231C23.0109 17.0931 23.0579 17.1751 23.087 17.2641C23.116 17.353 23.1266 17.4469 23.1179 17.5401L23.1145 17.5079Z" fill="white"/>
</svg>
