<svg width="36" height="33" viewBox="0 0 36 33" fill="none" xmlns="http://www.w3.org/2000/svg">
<path d="M17.5537 26.0703C17.6439 26.0699 17.7332 26.0872 17.8166 26.1214C17.9 26.1555 17.9758 26.2058 18.0397 26.2693C18.1037 26.3328 18.1544 26.4083 18.1891 26.4915C18.2238 26.5746 18.2417 26.6638 18.2419 26.7539C18.2417 26.8439 18.2239 26.9329 18.1893 27.0159C18.1548 27.0989 18.1042 27.1743 18.0405 27.2378C17.9768 27.3013 17.9013 27.3516 17.8181 27.3859C17.735 27.4202 17.6459 27.4377 17.556 27.4376C17.4661 27.4377 17.377 27.4202 17.2939 27.3859C17.2107 27.3516 17.1352 27.3013 17.0715 27.2378C17.0078 27.1743 16.9572 27.0989 16.9227 27.0159C16.8881 26.9329 16.8703 26.8439 16.8701 26.7539C16.8704 26.5727 16.9425 26.399 17.0707 26.2709C17.1988 26.1427 17.3725 26.0706 17.5537 26.0703Z" fill="white"/>
<path d="M32.1605 20.6013C32.159 21.5092 31.7969 22.3794 31.1539 23.0204C30.5109 23.6614 29.6396 24.0207 28.7316 24.0194C27.8237 24.0207 26.9524 23.6614 26.3093 23.0204C25.6663 22.3794 25.3042 21.5092 25.3027 20.6013C25.3042 19.6933 25.6663 18.8231 26.3093 18.1821C26.9524 17.5411 27.8237 17.1818 28.7316 17.1831C29.6396 17.1818 30.5109 17.5411 31.1539 18.1821C31.7969 18.8231 32.159 19.6933 32.1605 20.6013Z" stroke="white" stroke-width="1.5" stroke-miterlimit="10" stroke-linecap="round" stroke-linejoin="round"/>
<path d="M10.0113 32.222H0.685547V30.8547C0.685547 27.8346 3.3478 25.3863 6.37699 25.3863C7.28415 25.3836 8.17958 25.5912 8.99302 25.9928C9.80646 26.3944 10.5158 26.979 11.0653 27.7008" stroke="white" stroke-width="1.5" stroke-miterlimit="10" stroke-linecap="round" stroke-linejoin="round"/>
<path d="M24.0439 27.7027C24.5935 26.9809 25.3028 26.3963 26.1162 25.9948C26.9297 25.5932 27.8251 25.3856 28.7323 25.3882C31.762 25.3882 34.4237 27.8371 34.4237 30.8572V32.2245H25.0979" stroke="white" stroke-width="1.5" stroke-miterlimit="10" stroke-linecap="round" stroke-linejoin="round"/>
<path d="M9.80501 20.6013C9.80351 21.5092 9.44143 22.3794 8.79841 23.0204C8.15539 23.6614 7.28408 24.0207 6.37614 24.0194C5.46819 24.0207 4.59688 23.6614 3.95386 23.0204C3.31084 22.3794 2.94876 21.5092 2.94727 20.6013C2.94876 19.6933 3.31084 18.8231 3.95386 18.1821C4.59688 17.5411 5.46819 17.1818 6.37614 17.1831C7.28408 17.1818 8.15539 17.5411 8.79841 18.1821C9.44143 18.8231 9.80351 19.6933 9.80501 20.6013Z" stroke="white" stroke-width="1.5" stroke-miterlimit="10" stroke-linecap="round" stroke-linejoin="round"/>
<path d="M22.3546 17.8665C22.3526 19.1373 21.8461 20.3553 20.9462 21.2527C20.0464 22.1501 18.827 22.6534 17.5562 22.6519C16.2854 22.6534 15.066 22.1501 14.1662 21.2527C13.2663 20.3553 12.7598 19.1373 12.7578 17.8665C12.7598 16.5956 13.2663 15.3776 14.1662 14.4802C15.066 13.5828 16.2854 13.0796 17.5562 13.0811C18.827 13.0796 20.0464 13.5828 20.9462 14.4802C21.8461 15.3776 22.3526 16.5956 22.3546 17.8665Z" stroke="white" stroke-width="1.5" stroke-miterlimit="10" stroke-linecap="round" stroke-linejoin="round"/>
<path d="M17.5294 0.776855L16.0464 3.8004L12.7305 4.28024L15.1308 6.61226L14.5663 9.90508L17.5322 8.3504L20.4988 9.90508L19.9343 6.61226L22.3346 4.28024L19.0186 3.8004L17.5294 0.776855Z" stroke="white" stroke-width="1.5" stroke-miterlimit="10" stroke-linecap="round" stroke-linejoin="round"/>
<path d="M29.1616 12.3016L31.2729 13.4075L30.8698 11.0642L32.578 9.40396L30.2172 9.06243L29.1621 6.92969L28.1059 9.06243L25.7451 9.40396L27.4533 11.0642L27.0503 13.4075L29.1616 12.3016Z" stroke="white" stroke-width="1.5" stroke-miterlimit="10" stroke-linecap="round" stroke-linejoin="round"/>
<path d="M5.84712 12.3016L7.95841 13.4075L7.55534 11.0642L9.26357 9.40396L6.90276 9.06243L5.84768 6.92969L4.79147 9.06243L2.43066 9.40396L4.13889 11.0642L3.73583 13.4075L5.84712 12.3016Z" stroke="white" stroke-width="1.5" stroke-miterlimit="10" stroke-linecap="round" stroke-linejoin="round"/>
<path d="M25.0969 32.2226H10.0108V31.539C10.0084 30.1876 10.3727 28.861 11.0647 27.7003C11.7345 26.5768 12.6848 25.6468 13.8224 25.0015C14.96 24.3561 16.2459 24.0176 17.5538 24.0191C18.5439 24.0173 19.5247 24.2108 20.4399 24.5886C21.3551 24.9664 22.1868 25.521 22.8874 26.2207C23.3326 26.6643 23.7208 27.1617 24.0429 27.7014C24.735 28.8621 25.0992 30.1888 25.0969 31.5401V32.2226Z" stroke="white" stroke-width="1.5" stroke-miterlimit="10" stroke-linecap="round" stroke-linejoin="round"/>
<path d="M20.1826 27.5366C20.9196 28.0189 21.5104 28.6938 21.8908 29.4882" stroke="white" stroke-width="1.5" stroke-miterlimit="10" stroke-linecap="round" stroke-linejoin="round"/>
</svg>
