<svg width="35" height="45" viewBox="0 0 35 45" fill="none" xmlns="http://www.w3.org/2000/svg">
<path d="M12.966 4.02385H16.5149C16.6973 4.01757 16.8702 3.94068 16.997 3.8094C17.1239 3.67812 17.1948 3.5027 17.1948 3.32015C17.1948 3.1376 17.1239 2.96219 16.997 2.83091C16.8702 2.69962 16.6973 2.62273 16.5149 2.61646H12.966C12.7835 2.62273 12.6106 2.69962 12.4838 2.83091C12.357 2.96219 12.2861 3.1376 12.2861 3.32015C12.2861 3.5027 12.357 3.67812 12.4838 3.8094C12.6106 3.94068 12.7835 4.01757 12.966 4.02385ZM9.79952 41.9135H16.1324C16.3148 41.9073 16.4877 41.8304 16.6145 41.6991C16.7414 41.5678 16.8123 41.3924 16.8123 41.2098C16.8123 41.0273 16.7414 40.8519 16.6145 40.7206C16.4877 40.5893 16.3148 40.5124 16.1324 40.5061H9.79952C9.61708 40.5124 9.44421 40.5893 9.31737 40.7206C9.19053 40.8519 9.11963 41.0273 9.11963 41.2098C9.11963 41.3924 9.19053 41.5678 9.31737 41.6991C9.44421 41.8304 9.61708 41.9073 9.79952 41.9135Z" fill="#8B0000"/>
<path d="M0.698282 34.6516C0.789981 34.6516 0.880783 34.6335 0.965502 34.5984C1.05022 34.5633 1.1272 34.5119 1.19204 34.4471C1.25688 34.3822 1.30832 34.3053 1.34341 34.2205C1.3785 34.1358 1.39656 34.045 1.39656 33.9533V6.63201H24.3265V10.2234C24.3265 10.4086 24.4001 10.5862 24.531 10.7172C24.662 10.8481 24.8396 10.9217 25.0248 10.9217C25.21 10.9217 25.3876 10.8481 25.5186 10.7172C25.6495 10.5862 25.7231 10.4086 25.7231 10.2234V2.77813C25.7207 2.04163 25.4269 1.33603 24.9058 0.815485C24.3848 0.294937 23.679 0.00175745 22.9425 0H2.77896C2.04333 0.00545647 1.33941 0.300219 0.819382 0.820557C0.299356 1.34089 0.00501545 2.045 0 2.78063V33.9533C0 34.045 0.0180619 34.1358 0.0531539 34.2205C0.0882458 34.3053 0.139681 34.3822 0.204523 34.4471C0.269364 34.5119 0.346341 34.5633 0.431061 34.5984C0.51578 34.6335 0.606582 34.6516 0.698282 34.6516ZM22.9408 1.39656C23.3076 1.39831 23.6589 1.54461 23.9184 1.80373C24.178 2.06284 24.325 2.41386 24.3274 2.78063V5.23628H1.39656V2.77896C1.39788 2.41244 1.54418 2.06134 1.8035 1.80233C2.06283 1.54332 2.41411 1.39744 2.78063 1.39656H22.9408Z" fill="#8B0000"/>
<path d="M17.1695 17.7002C17.3011 17.8305 17.4791 17.9031 17.6643 17.9022C17.8494 17.9012 18.0266 17.8268 18.1569 17.6952L21.0734 14.7504C21.2028 14.6197 21.2754 14.4431 21.2754 14.2592C21.2754 14.0752 21.2028 13.8987 21.0734 13.768L18.1569 10.8232C18.0253 10.6985 17.8502 10.6299 17.6689 10.6319C17.4876 10.634 17.3141 10.7065 17.1853 10.8341C17.0565 10.9618 16.9823 11.1345 16.9786 11.3158C16.9749 11.4972 17.0419 11.6728 17.1653 11.8056L19.5918 14.2596L17.1612 16.7128C17.0309 16.8444 16.9583 17.0223 16.9592 17.2075C16.9601 17.3927 17.0346 17.5699 17.1662 17.7002H17.1695ZM8.55264 10.8182C8.48759 10.7535 8.41039 10.7023 8.32548 10.6675C8.24058 10.6327 8.14964 10.6151 8.05789 10.6155C7.96614 10.616 7.87539 10.6346 7.79084 10.6702C7.70629 10.7059 7.62961 10.7578 7.56522 10.8232L4.64877 13.768C4.51936 13.8987 4.44678 14.0752 4.44678 14.2592C4.44678 14.4431 4.51936 14.6197 4.64877 14.7504L7.56522 17.6952C7.62893 17.7637 7.70576 17.8187 7.79115 17.857C7.87654 17.8952 7.96874 17.916 8.06229 17.9179C8.15584 17.9198 8.24882 17.9029 8.33571 17.8682C8.42259 17.8335 8.50162 17.7816 8.56809 17.7158C8.63456 17.6499 8.68711 17.5714 8.72263 17.4848C8.75815 17.3983 8.77592 17.3054 8.77486 17.2119C8.77381 17.1183 8.75397 17.0259 8.71651 16.9402C8.67905 16.8544 8.62474 16.7771 8.55681 16.7128L6.12699 14.2596L8.55681 11.8056C8.68707 11.674 8.75973 11.4961 8.75879 11.3109C8.75785 11.1257 8.68423 10.9485 8.55264 10.8182ZM13.9872 8.84502L9.88921 19.1567C9.85534 19.242 9.8386 19.3331 9.83993 19.4248C9.84126 19.5165 9.86064 19.6071 9.89697 19.6913C9.97034 19.8614 10.1083 19.9954 10.2804 20.0638C10.4526 20.1322 10.6449 20.1294 10.815 20.056C10.9851 19.9826 11.119 19.8447 11.1874 19.6725L15.2846 9.36164C15.3185 9.2764 15.3353 9.18532 15.3339 9.09361C15.3326 9.00189 15.3132 8.91134 15.2769 8.82711C15.2406 8.74289 15.188 8.66664 15.1222 8.60273C15.0564 8.53882 14.9787 8.4885 14.8934 8.45463C14.8082 8.42076 14.7171 8.40402 14.6254 8.40535C14.5337 8.40668 14.4431 8.42606 14.3589 8.46239C14.2747 8.49872 14.1984 8.55128 14.1345 8.61707C14.0706 8.68287 14.0203 8.76061 13.9864 8.84585L13.9872 8.84502ZM25.0281 21.7799C24.2946 21.7786 23.5772 21.9949 22.9666 22.4014C22.3561 22.808 21.8799 23.3865 21.5983 24.0638C21.3167 24.7411 21.2423 25.4867 21.3846 26.2063C21.5269 26.9258 21.8795 27.587 22.3977 28.1061C22.9159 28.6253 23.5764 28.979 24.2957 29.1226C25.015 29.2662 25.7608 29.1932 26.4386 28.9128C27.1164 28.6324 27.6957 28.1572 28.1034 27.5474C28.511 26.9376 28.7286 26.2206 28.7286 25.4871C28.728 24.5053 28.3381 23.5637 27.6445 22.8688C26.9508 22.1739 26.0099 21.7823 25.0281 21.7799ZM25.7264 27.6861V25.0263C25.7264 24.8411 25.6528 24.6635 25.5218 24.5326C25.3909 24.4016 25.2133 24.328 25.0281 24.328C24.8429 24.328 24.6653 24.4016 24.5343 24.5326C24.4034 24.6635 24.3298 24.8411 24.3298 25.0263V27.6928C23.8021 27.5286 23.3505 27.1809 23.0567 26.7128C22.763 26.2446 22.6464 25.6867 22.7282 25.1401C22.8099 24.5935 23.0846 24.0942 23.5024 23.7324C23.9203 23.3706 24.4538 23.1703 25.0065 23.1677C25.5592 23.165 26.0946 23.3602 26.5159 23.718C26.9372 24.0758 27.2166 24.5725 27.3035 25.1183C27.3905 25.6641 27.2793 26.223 26.99 26.694C26.7008 27.165 26.2525 27.5169 25.7264 27.6861Z" fill="#8B0000"/>
<path d="M34.3683 23.4865L32.6359 23.2907C32.5006 22.8815 32.3309 22.4846 32.1284 22.1041L33.1425 20.6801C33.24 20.5475 33.2865 20.3843 33.2735 20.2202C33.2605 20.0562 33.1888 19.9024 33.0717 19.7868L31.0502 17.7869C30.928 17.6645 30.7652 17.5912 30.5925 17.5809C30.4199 17.5706 30.2494 17.624 30.1136 17.7311L28.7545 18.8144C28.3679 18.6192 27.965 18.458 27.5505 18.3327L27.2613 16.6087C27.2331 16.4446 27.1474 16.2958 27.0197 16.189C26.8919 16.0822 26.7304 16.0242 26.5639 16.0254H23.7141C23.5409 16.0248 23.3736 16.0877 23.2438 16.2023C23.114 16.3169 23.0308 16.4751 23.01 16.647L22.82 18.3711C22.4103 18.503 22.0123 18.6689 21.6301 18.8669L20.186 17.8594C20.0508 17.7644 19.8863 17.7202 19.7216 17.7347C19.5569 17.7491 19.4026 17.8214 19.2861 17.9386L17.2721 19.9385C17.1498 20.0593 17.0771 20.2214 17.068 20.3931C17.0589 20.5647 17.1141 20.7336 17.2229 20.8667L18.3061 22.2208C18.1094 22.6038 17.9469 23.0033 17.8203 23.4149L16.088 23.7015C15.9242 23.7295 15.7755 23.8139 15.6674 23.94C15.5593 24.0662 15.4988 24.2262 15.4963 24.3923V27.2196C15.4984 27.3914 15.5632 27.5565 15.6787 27.6838C15.7941 27.811 15.9522 27.8916 16.123 27.9104L17.8545 28.1045C17.9903 28.5135 18.16 28.9104 18.362 29.2911L17.3479 30.7077C17.2514 30.8424 17.2062 31.0072 17.2204 31.1723C17.2346 31.3375 17.3073 31.4921 17.4254 31.6084L19.4394 33.6083C19.5624 33.7297 19.7257 33.8019 19.8983 33.8109C20.071 33.82 20.2409 33.7654 20.376 33.6574L21.7426 32.5825C22.1284 32.7726 22.5288 32.9314 22.94 33.0575L23.2291 34.7815C23.2574 34.9456 23.343 35.0944 23.4707 35.2012C23.5985 35.3081 23.76 35.366 23.9266 35.3648H24.5465V36.908H0.704115C0.518312 36.9078 0.339969 36.9811 0.208041 37.1119C0.0761133 37.2428 0.00132074 37.4205 0 37.6063V42.221C0.005065 42.9606 0.302787 43.6682 0.82807 44.1889C1.35335 44.7097 2.06346 45.0013 2.80313 44.9999H23.1441C23.8851 45.0021 24.5967 44.7105 25.1231 44.189C25.6494 43.6675 25.9476 42.9586 25.9522 42.2176V35.3623H26.7763C26.9495 35.3629 27.1168 35.3 27.2466 35.1854C27.3764 35.0708 27.4596 34.9126 27.4805 34.7407L27.6779 33.0166C28.0875 32.8834 28.4856 32.7176 28.8687 32.5208L30.3052 33.5333C30.4422 33.6272 30.6075 33.671 30.7731 33.657C30.9386 33.643 31.0942 33.5722 31.2135 33.4566L33.2209 31.4568C33.343 31.3372 33.4158 31.1762 33.4249 31.0055C33.434 30.8349 33.3787 30.667 33.27 30.5352L32.1868 29.1811C32.3811 28.797 32.5436 28.3977 32.6726 27.987L34.4049 27.6937C34.5682 27.6673 34.7169 27.5843 34.8251 27.4592C34.9333 27.3341 34.994 27.1749 34.9966 27.0096V24.1781C34.9969 24.0056 34.9329 23.8392 34.817 23.7114C34.7011 23.5837 34.5417 23.5038 34.3699 23.4874L34.3683 23.4865ZM24.5457 42.2176C24.5447 42.4007 24.5077 42.5817 24.4367 42.7504C24.3657 42.9191 24.2622 43.0722 24.132 43.2009C24.0019 43.3296 23.8476 43.4314 23.6781 43.5004C23.5086 43.5695 23.3271 43.6045 23.1441 43.6034H2.80313C2.43507 43.6042 2.08164 43.4593 1.82022 43.2002C1.55879 42.9411 1.41065 42.589 1.40823 42.221V38.3046H24.5457V42.221V42.2176ZM33.5892 26.4121L31.9976 26.6771C31.8609 26.6998 31.7338 26.7622 31.6323 26.8566C31.5308 26.951 31.4593 27.0732 31.4268 27.2079C31.2814 27.8011 31.0513 28.3702 30.7436 28.8978C30.6712 29.018 30.6378 29.1576 30.648 29.2976C30.6581 29.4375 30.7113 29.5709 30.8002 29.6794L31.7793 30.9085L30.6386 32.0534L29.3145 31.1176C29.2013 31.0393 29.0677 30.9956 28.9301 30.9919C28.7925 30.9882 28.6568 31.0247 28.5395 31.0968C28.02 31.4146 27.4545 31.6501 26.863 31.7951C26.7235 31.8293 26.5977 31.9051 26.5022 32.0124C26.4067 32.1196 26.346 32.2534 26.328 32.3959L26.1522 33.9666H24.5173L24.2499 32.3834C24.2273 32.2483 24.165 32.1231 24.0709 32.0236C23.9768 31.9241 23.8552 31.855 23.7216 31.8251C23.1285 31.6782 22.5592 31.4479 22.0309 31.141C21.9081 31.0689 21.7664 31.0357 21.6243 31.0457C21.4823 31.0556 21.3466 31.1083 21.2351 31.1968L19.9852 32.1742L18.8369 31.036L19.7669 29.7444C19.8445 29.6299 19.8883 29.4959 19.8933 29.3577C19.8983 29.2194 19.8643 29.0826 19.7952 28.9628C19.4723 28.4438 19.2301 27.8788 19.0769 27.2871C19.0424 27.1499 18.9664 27.0267 18.8593 26.9343C18.7523 26.8419 18.6194 26.7846 18.4786 26.7704L16.9012 26.5888V24.9806L18.4928 24.7156C18.6295 24.6928 18.7565 24.6304 18.858 24.536C18.9595 24.4416 19.031 24.3195 19.0636 24.1848C19.2033 23.5932 19.4362 23.0276 19.7535 22.5091C19.8271 22.3871 19.8618 22.2457 19.853 22.1035C19.8442 21.9614 19.7924 21.8253 19.7044 21.7133L18.7111 20.4776L19.8594 19.3393L21.1784 20.2718C21.2909 20.3512 21.4241 20.3962 21.5617 20.4012C21.6993 20.4063 21.8354 20.3711 21.9534 20.3001C22.4784 19.9817 23.0484 19.7441 23.6441 19.5951C23.7808 19.5607 23.9038 19.4855 23.9968 19.3795C24.0898 19.2736 24.1484 19.1419 24.1649 19.0019L24.3407 17.4311H25.9747L26.2422 19.0094C26.2646 19.1453 26.3266 19.2716 26.4207 19.3723C26.5147 19.473 26.6364 19.5436 26.7705 19.5751C27.3681 19.7145 27.9406 19.9453 28.4679 20.2593C28.5907 20.3313 28.7324 20.3645 28.8744 20.3546C29.0164 20.3446 29.1521 20.2919 29.2637 20.2034L30.5036 19.2193L31.6518 20.3551L30.7219 21.6533C30.6441 21.7665 30.6001 21.8994 30.5951 22.0367C30.5901 22.1739 30.6242 22.3097 30.6936 22.4283C31.0138 22.9445 31.2537 23.5065 31.4052 24.0948C31.4413 24.2331 31.5185 24.3572 31.6267 24.4507C31.7349 24.5441 31.8689 24.6025 32.011 24.6181L33.5883 24.7923L33.5892 26.4121Z" fill="#8B0000"/>
</svg>
