<svg width="37" height="37" viewBox="0 0 37 37" fill="none" xmlns="http://www.w3.org/2000/svg">
<path d="M14.7408 33.4581H7.10465C5.8299 33.4581 4.94631 33.1874 4.37943 32.6206C3.81255 32.0537 3.54186 31.1701 3.54186 29.8953V16.8721C3.54186 15.5973 3.81255 14.7138 4.37943 14.1469C4.94631 13.58 5.8299 13.3093 7.10465 13.3093H13.9233V29.8953C13.9233 31.3098 14.2 32.5051 14.7408 33.4581ZM16.6554 5.96262C16.6663 5.91131 16.6785 5.86132 16.6918 5.81236C16.7078 5.75365 16.7194 5.69421 16.7267 5.63445C16.863 5.10926 17.0869 4.69521 17.4027 4.37943C17.9696 3.81255 18.8532 3.54186 20.1279 3.54186H29.8953C31.1701 3.54186 32.0537 3.81255 32.6206 4.37943C33.1874 4.94631 33.4581 5.8299 33.4581 7.10465V29.8953C33.4581 31.1701 33.1874 32.0537 32.6206 32.6206C32.0537 33.1874 31.1701 33.4581 29.8953 33.4581H29.5884V28.2674C29.5884 26.6494 28.2576 25.3186 26.6395 25.3186H23.3837C21.7657 25.3186 20.4349 26.6494 20.4349 28.2674V33.4581H20.1279C18.8532 33.4581 17.9696 33.1874 17.4027 32.6206C16.8358 32.0537 16.5651 31.1701 16.5651 29.8953V11.9884V7.10465C16.5651 6.68185 16.5949 6.30208 16.6554 5.96262ZM26.9465 28.2674V33.4581H23.0767V28.2674C23.0767 28.0948 23.211 27.9605 23.3837 27.9605H26.6395C26.8122 27.9605 26.9465 28.0948 26.9465 28.2674ZM28.2674 36.1H29.8953C31.8829 36.1 33.4379 35.5536 34.4957 34.4957C35.5536 33.4379 36.1 31.8829 36.1 29.8953V7.10465C36.1 5.11707 35.5536 3.56213 34.4957 2.50429C33.4379 1.44644 31.8829 0.9 29.8953 0.9H20.1279C18.1403 0.9 16.5854 1.44644 15.5275 2.50429C15.0688 2.96306 14.7062 3.51532 14.4427 4.15581H10.3605C7.83082 4.15581 5.78372 6.20291 5.78372 8.73256V10.7564C4.4179 10.9506 3.31508 11.4609 2.50429 12.2717C1.44644 13.3296 0.9 14.8845 0.9 16.8721V29.8953C0.9 31.8829 1.44644 33.4379 2.50429 34.4957C3.56213 35.5536 5.11707 36.1 7.10465 36.1H20.1279H21.7558H28.2674ZM10.3605 6.79767H13.9233V6.79791V6.79868V6.79945V6.80022V6.80099V6.80176V6.80253V6.8033V6.80407V6.80484V6.80561V6.80638V6.80715V6.80792V6.80869V6.80946V6.81023V6.811V6.81177V6.81255V6.81332V6.81409V6.81486V6.81563V6.8164V6.81718V6.81795V6.81872V6.81949V6.82026V6.82104V6.82181V6.82258V6.82335V6.82413V6.8249V6.82567V6.82645V6.82722V6.82799V6.82877V6.82954V6.83032V6.83109V6.83186V6.83264V6.83341V6.83419V6.83496V6.83574V6.83651V6.83729V6.83806V6.83884V6.83961V6.84039V6.84116V6.84194V6.84272V6.84349V6.84427V6.84504V6.84582V6.8466V6.84737V6.84815V6.84893V6.84971V6.85048V6.85126V6.85204V6.85282V6.85359V6.85437V6.85515V6.85593V6.85671V6.85749V6.85827V6.85904V6.85982V6.8606V6.86138V6.86216V6.86294V6.86372V6.8645V6.86528V6.86606V6.86684V6.86762V6.86841V6.86919V6.86997V6.87075V6.87153V6.87231V6.87309V6.87388V6.87466V6.87544V6.87622V6.87701V6.87779V6.87857V6.87936V6.88014V6.88092V6.88171V6.88249V6.88327V6.88406V6.88484V6.88563V6.88641V6.8872V6.88798V6.88877V6.88955V6.89034V6.89113V6.89191V6.8927V6.89348V6.89427V6.89506V6.89584V6.89663V6.89742V6.89821V6.89899V6.89978V6.90057V6.90136V6.90215V6.90294V6.90373V6.90451V6.9053V6.90609V6.90688V6.90767V6.90846V6.90925V6.91004V6.91083V6.91163V6.91242V6.91321V6.914V6.91479V6.91558V6.91638V6.91717V6.91796V6.91875V6.91955V6.92034V6.92113V6.92193V6.92272V6.92351V6.92431V6.9251V6.9259V6.92669V6.92749V6.92828V6.92908V6.92987V6.93067V6.93147V6.93226V6.93306V6.93386V6.93465V6.93545V6.93625V6.93704V6.93784V6.93864V6.93944V6.94024V6.94104V6.94184V6.94264V6.94343V6.94423V6.94503V6.94583V6.94664V6.94744V6.94824V6.94904V6.94984V6.95064V6.95144V6.95224V6.95305V6.95385V6.95465V6.95546V6.95626V6.95706V6.95787V6.95867V6.95947V6.96028V6.96108V6.96189V6.96269V6.9635V6.96431V6.96511V6.96592V6.96672V6.96753V6.96834V6.96915V6.96995V6.97076V6.97157V6.97238V6.97319V6.97399V6.9748V6.97561V6.97642V6.97723V6.97804V6.97885V6.97966V6.98047V6.98129V6.9821V6.98291V6.98372V6.98453V6.98535V6.98616V6.98697V6.98778V6.9886V6.98941V6.99023V6.99104V6.99185V6.99267V6.99348V6.9943V6.99512V6.99593V6.99675V6.99757V6.99838V6.9992V7.00002V7.00083V7.00165V7.00247V7.00329V7.00411V7.00493V7.00575V7.00657V7.00739V7.00821V7.00903V7.00985V7.01067V7.01149V7.01231V7.01313V7.01396V7.01478V7.0156V7.01643V7.01725V7.01807V7.0189V7.01972V7.02055V7.02137V7.0222V7.02302V7.02385V7.02467V7.0255V7.02633V7.02715V7.02798V7.02881V7.02964V7.03047V7.03129V7.03212V7.03295V7.03378V7.03461V7.03544V7.03627V7.0371V7.03794V7.03877V7.0396V7.04043V7.04126V7.0421V7.04293V7.04376V7.0446V7.04543V7.04626V7.0471V7.04793V7.04877V7.0496V7.05044V7.05128V7.05211V7.05295V7.05379V7.05463V7.05546V7.0563V7.05714V7.05798V7.05882V7.05966V7.0605V7.06134V7.06218V7.06302V7.06386V7.0647V7.06554V7.06639V7.06723V7.06807V7.06891V7.06976V7.0706V7.07145V7.07229V7.07314V7.07398V7.07483V7.07567V7.07652V7.07737V7.07821V7.07906V7.07991V7.08076V7.08161V7.08245V7.0833V7.08415V7.085V7.08585V7.0867V7.08756V7.08841V7.08926V7.09011V7.09096V7.09182V7.09267V7.09352V7.09438V7.09523V7.09608V7.09694V7.0978V7.09865V7.09951V7.10036V7.10122V7.10208V7.10293V7.10379V7.10465V10.6674H8.42558V8.73256C8.42558 7.66453 9.29244 6.79767 10.3605 6.79767ZM20.4349 20.1279C20.4349 20.8506 21.0331 21.4488 21.7558 21.4488C22.4785 21.4488 23.0767 20.8506 23.0767 20.1279V11.9884C23.0767 11.2657 22.4785 10.6674 21.7558 10.6674C21.0331 10.6674 20.4349 11.2657 20.4349 11.9884V20.1279ZM26.9465 20.1279C26.9465 20.8506 27.5448 21.4488 28.2674 21.4488C28.9901 21.4488 29.5884 20.8506 29.5884 20.1279V11.9884C29.5884 11.2657 28.9901 10.6674 28.2674 10.6674C27.5448 10.6674 26.9465 11.2657 26.9465 11.9884V20.1279ZM7.41163 26.6395C7.41163 27.3622 8.00989 27.9605 8.73256 27.9605C9.45523 27.9605 10.0535 27.3622 10.0535 26.6395V20.1279C10.0535 19.4052 9.45523 18.807 8.73256 18.807C8.00989 18.807 7.41163 19.4052 7.41163 20.1279V26.6395Z" fill="#8B0000" stroke="#8B0000" stroke-width="0.2"/>
</svg>
