<svg width="101" height="143" viewBox="0 0 101 143" fill="none" xmlns="http://www.w3.org/2000/svg">
<path d="M9.43059 110.309L9.39917 107.675L9.4696 105.057L9.64958 102.453L9.93804 99.8766L10.3254 97.321L10.8213 94.7923L11.4197 92.3001L12.116 89.8414L12.9178 87.4144L13.8164 85.0334L14.8021 82.6926L15.8923 80.396L17.0734 78.155L18.3406 75.9668L19.7016 73.8293L21.1524 71.76L22.6864 69.7482L24.3083 67.7969L26.0141 65.9232L27.7972 64.1166L29.6672 62.383L31.6182 60.7318L33.6406 59.1574L35.7488 57.6683L37.9244 56.2733L40.1733 54.9626L42.4973 53.744L44.8877 52.6318L47.3455 51.6137L49.8725 50.6972L52.46 49.8967L53.5009 49.625L53.4816 49.5275L53.1916 47.6704L52.9891 45.8207L52.8615 43.9775L52.8196 42.1339L52.8622 40.3026L52.9769 38.4825L53.1791 36.6698L53.46 34.879L53.8178 33.1022L54.2571 31.3425L54.7771 29.6123L55.3757 27.904L56.053 26.2175L56.8079 24.5653L57.6356 22.9445L58.5439 21.3533L59.5287 19.8089L60.5834 18.3007L61.7205 16.8298L62.9265 15.4076L64.2041 14.0293L65.5613 12.6931L66.9843 11.4104L68.4761 10.1763L70.0463 8.99686L71.6842 7.87863L73.3803 6.81576L75.1519 5.81224L76.9882 4.87474L78.8923 3.99843L80.866 3.19109L82.9015 2.45453L84.997 1.78108L87.164 1.18428L89.3513 0.672387C90.6282 0.380366 91.8964 1.17648 92.1881 2.46159C92.4828 3.7419 91.6824 5.01718 90.4104 5.31211L88.3156 5.80165L86.3368 6.34893L84.4198 6.96703L82.561 7.6405L80.7776 8.37331L79.0542 9.16922L77.392 10.0157L75.8004 10.9186L74.2747 11.875L72.8053 12.879L71.4124 13.9299L70.0806 15.0314L68.811 16.1709L67.6161 17.3496L66.4852 18.574L65.4165 19.8365L64.4206 21.1304L63.4869 22.4624L62.6183 23.8276L61.8207 25.2166L61.093 26.6417L60.4286 28.0924L59.8351 29.5667L59.3097 31.0696L58.8504 32.5932L58.4651 34.1357L58.1508 35.7019L57.9008 37.2811L57.7229 38.8716L57.6189 40.4809L57.5821 42.0984L57.6204 43.7224L57.7355 45.3604L57.9178 47.0068L58.1589 48.5572L60.6117 48.1486L63.4374 47.797L66.3254 47.5691L69.2699 47.4745L71.4662 47.528L73.6925 47.7579L75.9126 48.1486L78.1225 48.6847L80.3117 49.3727L82.4505 50.2077L84.5457 51.1675L86.5809 52.2684L88.5273 53.4928L90.3878 54.8359L92.1472 56.3014L93.7755 57.8844L95.2786 59.5751L96.6305 61.384L97.8053 63.2888L98.8032 65.2894L99.595 67.4009L100.148 69.5905L100.466 71.8533L100.513 74.1938L100.283 76.5032L100.048 77.7686L99.7462 78.9805L99.367 80.1908L98.9194 81.4054L98.388 82.6279L97.7739 83.846L97.2739 84.7057L96.7139 85.5024L96.1009 86.2139L95.4414 86.8509L94.7229 87.4123L93.9698 87.88L93.1838 88.2617L92.362 88.5622L91.5335 88.7664L90.696 88.8992L89.8477 88.953L88.9328 88.9331L87.3479 88.7401L85.6862 88.3289L84.0492 87.7484L82.429 87.0332L80.8224 86.1881L79.2448 85.2421L77.6938 84.2203L76.1715 83.1303L74.6957 81.9964L73.275 80.837L71.9131 79.6674L70.6233 78.509L69.4122 77.3724L68.2949 76.2867L67.2828 75.2654L66.3778 74.3162L65.595 73.4682L64.9344 72.7213L63.5541 71.0662L62.2483 69.3646L61.0352 67.6406L59.8991 65.8979L58.851 64.13L57.8924 62.3445L57.0158 60.5433L56.2212 58.7263L55.518 56.8996L54.891 55.0667L54.6496 54.2471L53.7862 54.476L51.4004 55.2155L49.0791 56.0538L46.8222 56.9907L44.6232 58.0158L42.4946 59.1301L40.4286 60.3354L38.4263 61.6192L36.5002 62.9826L34.6426 64.4274L32.8469 65.9431L31.1332 67.5287L29.491 69.191L27.9213 70.9175L26.4318 72.7062L25.0226 74.5572L23.684 76.4647L22.4316 78.4249L21.2622 80.4425L20.1742 82.5099L19.1734 84.6175L18.2616 86.7731L17.4293 88.9706L16.6948 91.2018L16.0522 93.476L15.4979 95.7779L15.0396 98.1056L14.6792 100.467L14.4099 102.851L14.2424 105.251L14.1787 107.676L14.2072 110.111L14.3405 112.557L14.5834 115.017L14.9262 117.486L15.3779 119.95L15.942 122.422L16.612 124.894L17.3937 127.355L18.2938 129.816L19.3008 132.264L20.4272 134.699L21.2491 136.289L21.3987 136.044L21.6588 135.512L21.8972 134.94L22.4082 133.428L22.8569 131.707L23.272 129.761L23.6792 127.646L24.1013 125.388L24.561 123.015L25.0849 120.57L25.7017 118.069L26.4457 115.554L27.3301 113.046L28.4086 110.564L29.6528 108.263C30.2758 107.116 31.7157 106.687 32.8653 107.311C34.0179 107.931 34.4447 109.372 33.8265 110.521L32.6735 112.641L31.7485 114.775L30.961 117.007L30.2865 119.301L29.7128 121.624L29.2141 123.953L28.7675 126.262L28.3455 128.52L27.9251 130.699L27.4749 132.788L26.9613 134.766L26.3639 136.548L25.9846 137.468L25.5694 138.307L25.098 139.099L24.5596 139.85L23.9245 140.554L23.2065 141.169L22.398 141.695L21.4885 142.106L20.5266 142.367L19.5256 142.498L18.4835 142.493L17.435 142.358L16.3683 142.114L15.2613 141.752L14.1207 141.285L12.9359 140.717L11.6906 140.034L10.3848 139.235L9.00975 138.334L7.55989 137.308L6.03042 136.154L4.42027 134.886L2.71618 133.48L0.932483 131.947C-0.0638935 131.093 -0.178399 129.594 0.679005 128.591C1.53641 127.587 3.0348 127.471 4.03411 128.319L5.79019 129.823L7.41883 131.169L8.94875 132.375L10.3836 133.458L11.7121 134.403L12.9484 135.219L14.0916 135.918L15.1301 136.488L16.0755 136.942L16.2749 137.024L16.1757 136.832L14.9644 134.213L13.885 131.583L12.9174 128.942L12.0722 126.284L11.353 123.624L10.7426 120.959L10.2535 118.288L9.8846 115.625L9.62341 112.969L9.47765 110.318L9.43059 110.309ZM62.0877 60.1636L62.9574 61.7828L63.9042 63.3833L64.9378 64.971L66.0456 66.5449L67.2335 68.0954L68.5272 69.6448L69.0917 70.2801L69.8097 71.0622L70.6595 71.9512L71.6086 72.9142L72.663 73.9416L73.8045 75.0092L75.0171 76.1006L76.2921 77.1972L77.6193 78.2731L78.9795 79.3165L80.3594 80.3061L81.7507 81.2236L83.1322 82.0495L84.486 82.7597L85.8006 83.3404L87.0511 83.7897L88.2021 84.0793L89.3314 84.2108L89.7317 84.2121L90.1698 84.1839L90.5832 84.1208L90.969 84.0276L91.3176 83.8985L91.657 83.7308L91.9871 83.5245L92.3003 83.2815L92.6218 82.9711L92.941 82.6001L93.2483 82.1625L93.5584 81.6344L94.0607 80.6311L94.4907 79.6495L94.8493 78.6769L95.1463 77.7191L95.3786 76.7811L95.5418 75.9128L95.738 74.024L95.704 72.2643L95.4579 70.5395L95.0325 68.8498L94.4208 67.2174L93.6269 65.6248L92.6775 64.0821L91.5736 62.6093L90.3179 61.2018L88.9355 59.8616L87.4368 58.6149L85.8294 57.4597L84.1413 56.3934L82.378 55.4392L80.552 54.5981L78.6836 53.8693L76.7937 53.2723L74.8871 52.81L72.9822 52.4738L71.1077 52.2814L69.2558 52.2346L66.5308 52.3251L63.8585 52.5336L61.239 52.86L59.2459 53.1943L59.3641 53.6026L59.9266 55.2511L60.5574 56.8952L61.2672 58.5285L62.0608 60.1538L62.0877 60.1636Z" fill="#8B0000"/>
</svg>
