<svg xmlns="http://www.w3.org/2000/svg" width="600" height="600" style="width:100%;height:100%;transform:translate3d(0,0,0)"><defs><clipPath id="a"><path d="M0 0h600v600H0z"/></clipPath><clipPath id="b"><path d="M0 0h500v500H0z"/></clipPath></defs><g clip-path="url(#a)"><g style="display:block"><path fill="none" stroke="#181516" stroke-linecap="round" stroke-linejoin="round" stroke-width="1.13337" d="M299.475 468.064c-12.657-7.162-24.345-16.459-34.758-27.514-10.414-11.054-19.552-23.87-27.108-38.066-7.557-14.197-13.532-29.775-17.617-46.36-4.086-16.586-6.282-34.177-6.282-52.398 0-18.222 2.196-35.813 6.282-52.398 4.085-16.586 10.06-32.164 17.617-46.361 7.556-14.197 16.694-27.012 27.108-38.066 10.413-11.055 22.101-20.352 34.758-27.514 12.656 7.162 24.345 16.459 34.758 27.514 10.413 11.054 19.553 23.87 27.109 38.066 7.556 14.197 13.531 29.775 17.617 46.36 4.086 16.586 6.281 34.177 6.281 52.399 0 18.22-2.195 35.812-6.28 52.397-4.087 16.586-10.062 32.164-17.618 46.361-7.556 14.197-16.696 27.012-27.11 38.066-10.412 11.055-22.1 20.352-34.757 27.514z"/><path fill="none" stroke="#181516" stroke-linecap="round" stroke-linejoin="round" stroke-width="1.13337" d="m265.595 164.82 32.745 18.325 33.886-18.322 11.816 45.945 33.95 38.396-11.877 54.042 10.827 57.916-34.6 30.747-8.582 48.158-34.739-14.112-36.935 11.616-5.806-46.796-34.76-27.334 13.017-60.195-14.533-54.736 34.621-36.852 10.97-46.797z"/><path fill="none" stroke="#181516" stroke-linecap="round" stroke-linejoin="round" stroke-width="1.13337" d="m299.6 182.578 22.646 14.307 22.646 14.307-1.282 27.875-1.281 27.876 12.175 18.391 12.176 18.392-12.034 18.252-12.034 18.254.297 51.919-43.115 33.855-42.903-34.705-.269-51.069-21.52-36.506 20.67-36.358-.865-54.051 44.694-30.739z"/><path fill="none" stroke="#181516" stroke-linecap="round" stroke-linejoin="round" stroke-width="1.13337" d="m299.035 181.445 6.765 13.416 9.47 18.78 13.53 26.832 13.529 26.832v72.841l-21.237 42.647-21.238 42.646-21.615-42.646-21.617-42.647V267.305l21.207-42.93 21.206-42.93zM239.748 202.121l4.09 2.743 5.841 3.92 5.841 3.918"/><path fill="none" stroke="#181516" stroke-linecap="round" stroke-linejoin="round" d="m-117.295-24.17-.253 44.839" transform="matrix(1.13213 .00168 -.00144 .97385 432.152 163.174)"/><path fill="none" stroke="#181516" stroke-linecap="round" stroke-linejoin="round" stroke-width="1.13337" d="m359.646 201.806-15.212 9.173M385.169 304.472l-5.028-.104-7.182-.148-7.182-.149M360.91 404.62l-17.497-12.14M299.376 467.743l.01-10.606.014-15.15.014-15.153M237.76 402.575l4.922-2.87 7.032-4.1 7.032-4.101M213.878 303.635l21.636.188"/></g><g clip-path="url(#b)" style="display:block" transform="matrix(.17 0 0 .17 256.5 257.5)"><path fill="#181516" d="M-6.88 10.111v-20.222h6.612c1.033 0 1.963.105 2.778.313.811.208 1.503.535 2.076.972.569.44 1.001 1 1.305 1.673.298.677.449 1.489.449 2.432 0 .943-.266 1.782-.805 2.507-.537.725-1.266 1.29-2.196 1.688.57.157 1.072.389 1.508.693.441.307.81.668 1.114 1.085a4.8 4.8 0 0 1 .687 1.403c.157.517.232 1.057.232 1.626 0 .943-.156 1.777-.478 2.503a4.964 4.964 0 0 1-1.351 1.834c-.583.498-1.29.868-2.115 1.119-.819.251-1.738.374-2.748.374H-6.88zm2.669-11.595h4.023c.574 0 1.101-.075 1.571-.222a3.574 3.574 0 0 0 1.217-.64c.336-.279.598-.617.783-1.02.185-.403.279-.858.279-1.37 0-1.109-.327-1.92-.972-2.421-.65-.509-1.635-.76-2.958-.76h-3.943v6.433zm0 2.139V7.93H.188c.64 0 1.207-.085 1.701-.255a3.533 3.533 0 0 0 1.257-.725c.347-.309.606-.688.786-1.138.18-.451.27-.947.27-1.508 0-.554-.076-1.057-.223-1.511a2.764 2.764 0 0 0-.7-1.153c-.317-.317-.726-.559-1.214-.73C1.571.74.988.655.315.655h-4.526z" style="display:block" transform="translate(55.434 399.663)"/><path fill="#181516" d="M.516 7.793c-1.048 0-1.995-.185-2.844-.546A6.33 6.33 0 0 1-4.499 5.74a6.595 6.595 0 0 1-1.389-2.295c-.322-.891-.487-1.862-.487-2.919v-.583c0-1.219.183-2.313.548-3.276.365-.963.854-1.773 1.465-2.432a6.46 6.46 0 0 1 2.099-1.508 6.075 6.075 0 0 1 2.458-.52c1.075 0 1.999.188 2.777.563a5.243 5.243 0 0 1 1.925 1.55c.501.654.876 1.437 1.117 2.332.243.897.361 1.873.361 2.931V.734H-3.802a6.26 6.26 0 0 0 .336 1.943c.209.602.508 1.128.89 1.57.385.446.846.796 1.391 1.057.541.26 1.152.389 1.839.389.906 0 1.673-.185 2.303-.555a5.824 5.824 0 0 0 1.655-1.474l1.57 1.223a6.72 6.72 0 0 1-.877 1.076 5.841 5.841 0 0 1-1.2.934c-.461.27-.987.487-1.578.649a7.672 7.672 0 0 1-2.011.247zM.195-5.68c-.517 0-.996.096-1.432.284-.431.19-.82.465-1.168.825-.34.361-.625.811-.853 1.347-.227.541-.377 1.151-.463 1.849h7.528v-.196a7.346 7.346 0 0 0-.242-1.487 4.197 4.197 0 0 0-.625-1.318 3.242 3.242 0 0 0-1.091-.943C1.403-5.562.853-5.68.195-5.68z" style="display:block" transform="translate(71.579 402.262)"/><path fill="#181516" d="M1.284 10.666h-2.568v-21.332h2.568v21.332z" style="display:block" transform="translate(82.435 399.108)"/><path fill="#181516" d="M1.284 7.514h-2.568V-7.514h2.568V7.514z" style="display:block" transform="translate(89.336 402.26)"/><path fill="#181516" d="M-1.521.011c0-.417.126-.767.383-1.051.251-.29.631-.431 1.128-.431.503 0 .883.141 1.143.431.257.284.388.634.388 1.051 0 .417-.131.764-.388 1.044-.26.279-.64.416-1.143.416-.497 0-.877-.137-1.128-.416-.257-.28-.383-.627-.383-1.044z" style="display:block" transform="translate(89.365 390.75)"/><path fill="#181516" d="M.517 7.793c-1.048 0-1.995-.185-2.844-.546A6.33 6.33 0 0 1-4.498 5.74a6.582 6.582 0 0 1-1.39-2.295A8.522 8.522 0 0 1-6.376.526v-.583c0-1.219.185-2.313.55-3.276.364-.963.853-1.773 1.464-2.432a6.485 6.485 0 0 1 2.1-1.508 6.062 6.062 0 0 1 2.456-.52c1.076 0 2 .188 2.778.563a5.243 5.243 0 0 1 1.925 1.55c.503.654.877 1.437 1.118 2.332.242.897.361 1.873.361 2.931V.734H-3.802c.014.696.127 1.347.336 1.943.208.602.509 1.128.891 1.57a4.2 4.2 0 0 0 1.39 1.057c.54.26 1.151.389 1.838.389.907 0 1.674-.185 2.304-.555a5.824 5.824 0 0 0 1.655-1.474l1.569 1.223c-.241.37-.53.73-.877 1.076a5.807 5.807 0 0 1-1.199.934c-.46.27-.986.487-1.578.649a7.665 7.665 0 0 1-2.01.247zM.194-5.68c-.516 0-.995.096-1.432.284-.431.19-.819.465-1.166.825a4.53 4.53 0 0 0-.854 1.347c-.226.541-.378 1.151-.464 1.849h7.528v-.196a7.275 7.275 0 0 0-.241-1.487 4.199 4.199 0 0 0-.626-1.318 3.242 3.242 0 0 0-1.091-.943C1.403-5.562.853-5.68.194-5.68z" style="display:block" transform="translate(100.453 402.262)"/><path fill="#181516" d="M.048 4.029 3.769-7.514h2.626L1.006 7.514H-.952L-6.395-7.514h2.623L.048 4.029z" style="display:block" transform="translate(114.712 402.26)"/><path fill="#181516" d="M.517 7.793c-1.048 0-1.996-.185-2.844-.546A6.32 6.32 0 0 1-4.498 5.74a6.582 6.582 0 0 1-1.39-2.295c-.323-.891-.488-1.862-.488-2.919v-.583c0-1.219.185-2.313.549-3.276.365-.963.854-1.773 1.465-2.432a6.463 6.463 0 0 1 2.1-1.508 6.062 6.062 0 0 1 2.456-.52c1.076 0 2 .188 2.778.563a5.243 5.243 0 0 1 1.925 1.55c.502.654.877 1.437 1.118 2.332.242.897.361 1.873.361 2.931V.734H-3.802c.014.696.127 1.347.336 1.943a4.74 4.74 0 0 0 .891 1.57 4.2 4.2 0 0 0 1.39 1.057c.541.26 1.151.389 1.838.389.907 0 1.674-.185 2.304-.555a5.824 5.824 0 0 0 1.655-1.474l1.569 1.223c-.241.37-.53.73-.876 1.076-.342.351-.74.659-1.2.934-.46.27-.986.487-1.578.649a7.665 7.665 0 0 1-2.01.247zM.194-5.68c-.517 0-.995.096-1.432.284-.431.19-.819.465-1.166.825a4.53 4.53 0 0 0-.854 1.347c-.226.541-.378 1.151-.464 1.849h7.528v-.196a7.275 7.275 0 0 0-.241-1.487 4.199 4.199 0 0 0-.626-1.318 3.242 3.242 0 0 0-1.091-.943C1.403-5.562.853-5.68.194-5.68z" style="display:block" transform="translate(129.298 402.262)"/><path fill="#181516" d="M1.285 7.514h-2.57V-7.514h2.57V7.514z" style="display:block" transform="translate(147.192 402.26)"/><path fill="#181516" d="M-1.521.011c0-.417.126-.767.383-1.051.251-.29.631-.431 1.128-.431.503 0 .883.141 1.143.431.257.284.388.634.388 1.051 0 .417-.131.764-.388 1.044-.26.279-.64.416-1.143.416-.497 0-.877-.137-1.128-.416-.257-.28-.383-.627-.383-1.044z" style="display:block" transform="translate(147.221 390.75)"/><path fill="#181516" d="m-3.477-7.375.081 1.888a5.823 5.823 0 0 1 1.948-1.587c.758-.385 1.607-.578 2.555-.578.73 0 1.393.099 1.985.298a3.64 3.64 0 0 1 1.512.962c.418.436.741 1.005.969 1.693.222.691.336 1.526.336 2.508v9.843h-2.57v-9.875c0-.582-.061-1.08-.193-1.492a2.45 2.45 0 0 0-.575-1.004 2.242 2.242 0 0 0-.943-.569 4.168 4.168 0 0 0-1.299-.186c-.834 0-1.565.224-2.196.669a4.561 4.561 0 0 0-1.474 1.749V7.652h-2.568V-7.375h2.432z" style="display:block" transform="translate(158.496 402.121)"/><path fill="#181516" d="M.363 5.693c.45 0 .886-.071 1.303-.223a3.597 3.597 0 0 0 1.105-.613 3.14 3.14 0 0 0 .778-.919c.198-.359.317-.744.355-1.161h2.427a4.452 4.452 0 0 1-.545 1.911 5.688 5.688 0 0 1-1.299 1.597A6.446 6.446 0 0 1 2.62 7.38a6.193 6.193 0 0 1-2.257.413c-1.133 0-2.114-.204-2.953-.608a5.987 5.987 0 0 1-2.091-1.63 6.992 6.992 0 0 1-1.242-2.388A9.869 9.869 0 0 1-6.331.294v-.588c0-1.006.133-1.967.408-2.873a6.97 6.97 0 0 1 1.242-2.389 6.019 6.019 0 0 1 2.086-1.632c.829-.402 1.811-.605 2.944-.605.876 0 1.678.141 2.393.417A5.811 5.811 0 0 1 4.606-6.23a5.34 5.34 0 0 1 1.227 1.731c.293.663.465 1.384.498 2.152H3.904a3.935 3.935 0 0 0-.327-1.299 3.414 3.414 0 0 0-.731-1.057 3.463 3.463 0 0 0-1.089-.715A3.63 3.63 0 0 0 .349-5.68c-.797 0-1.455.156-1.982.47-.522.317-.944.73-1.261 1.247a5.078 5.078 0 0 0-.674 1.734 9.615 9.615 0 0 0-.194 1.935v.588c0 .663.062 1.317.194 1.961a5.23 5.23 0 0 0 .664 1.731 3.72 3.72 0 0 0 1.267 1.236c.526.315 1.194.471 2 .471z" style="display:block" transform="translate(180.989 402.262)"/><path fill="#181516" d="M3.416 5.885c-.47.56-1.067.99-1.792 1.3-.72.312-1.593.469-2.608.469-.744 0-1.412-.105-2.014-.313a3.923 3.923 0 0 1-1.555-.987c-.436-.45-.773-1.029-1.01-1.74-.236-.706-.355-1.559-.355-2.559v-9.709h2.569v9.737c0 .674.08 1.233.237 1.674.156.441.365.787.626 1.043.26.251.554.427.891.525.332.095.673.148 1.025.148 1.047 0 1.886-.199 2.521-.598a3.58 3.58 0 0 0 1.398-1.596V-7.654h2.569V7.373H3.473l-.057-1.488z" style="display:block" transform="translate(196.073 402.401)"/><path fill="#181516" d="M3.404 3.526c0-.274-.043-.54-.124-.781-.085-.247-.252-.479-.492-.698-.248-.218-.597-.417-1.052-.602C1.285 1.26.689 1.089-.056.928A17.422 17.422 0 0 1-2.304.307c-.667-.242-1.232-.53-1.702-.872a3.546 3.546 0 0 1-1.076-1.199c-.251-.465-.375-1.005-.375-1.626a3.8 3.8 0 0 1 .395-1.688c.266-.531.635-1 1.118-1.403.484-.403 1.066-.721 1.748-.958.688-.237 1.453-.354 2.296-.354.896 0 1.696.122 2.407.369.707.247 1.309.584 1.807 1.01.492.42.873.919 1.133 1.488a4.43 4.43 0 0 1 .388 1.829H3.253c0-.308-.073-.616-.21-.924a2.591 2.591 0 0 0-.612-.834 3.108 3.108 0 0 0-.985-.598C1.058-5.604.607-5.68.1-5.68c-.54 0-.996.061-1.37.185a2.774 2.774 0 0 0-.926.502c-.24.208-.416.446-.525.707a2.054 2.054 0 0 0-.166.816c0 .273.044.525.138.748.095.223.27.422.526.602.26.18.616.346 1.063.502.45.152 1.033.308 1.745.465.918.213 1.715.455 2.388.721.677.27 1.237.583 1.682.938.441.356.772.768.99 1.228.218.465.328 1.001.328 1.612 0 .659-.137 1.261-.412 1.806a3.985 3.985 0 0 1-1.172 1.403c-.512.389-1.118.692-1.833.91-.711.218-1.504.328-2.377.328-1 0-1.88-.143-2.644-.417-.763-.281-1.403-.65-1.924-1.105a4.763 4.763 0 0 1-1.182-1.569 4.39 4.39 0 0 1-.402-1.816h2.57c.029.532.155.971.383 1.327s.513.644.854.868c.341.223.715.379 1.123.474a5.73 5.73 0 0 0 1.222.138 5.27 5.27 0 0 0 1.39-.166 3.214 3.214 0 0 0 1.01-.461c.269-.194.48-.422.617-.687.137-.261.208-.544.208-.853z" style="display:block" transform="translate(211.239 402.262)"/><path fill="#181516" d="M1.218-9.474v3.641H4.02v1.987H1.218v9.319c0 .389.042.701.137.939.091.231.214.417.365.545.156.132.332.217.531.256.199.042.404.066.617.066.212 0 .435-.024.673-.066.236-.039.422-.076.55-.104v2.085c-.204.058-.47.114-.792.181a5.997 5.997 0 0 1-1.18.099c-.474 0-.921-.071-1.342-.204a2.715 2.715 0 0 1-1.105-.674c-.312-.312-.563-.729-.749-1.241-.184-.517-.274-1.147-.274-1.896v-9.305h-2.74v-1.987h2.74v-3.641h2.569z" style="display:block" transform="translate(222.831 400.58)"/><path fill="#181516" d="M-6.837-.139c0-1.094.156-2.104.479-3.033A7.293 7.293 0 0 1-5-5.599 6.346 6.346 0 0 1-2.857-7.21c.844-.39 1.787-.583 2.835-.583 1.066 0 2.019.193 2.868.583a6.38 6.38 0 0 1 2.162 1.611c.592.688 1.042 1.493 1.36 2.427.313.929.469 1.939.469 3.033v.304c0 1.096-.156 2.105-.469 3.035-.318.934-.768 1.735-1.36 2.417a6.288 6.288 0 0 1-2.152 1.598c-.844.383-1.793.578-2.849.578-1.058 0-2.006-.195-2.849-.578a6.282 6.282 0 0 1-2.153-1.598A7.112 7.112 0 0 1-6.358 3.2c-.323-.93-.479-1.939-.479-3.035v-.304zm2.583.304c0 .749.084 1.461.259 2.124.177.668.442 1.256.802 1.759.355.503.801.906 1.331 1.199.531.298 1.158.446 1.869.446.701 0 1.323-.148 1.864-.446.535-.293.98-.696 1.331-1.199a5.568 5.568 0 0 0 .797-1.759A8.1 8.1 0 0 0 4.268.165v-.304a8.15 8.15 0 0 0-.269-2.119c-.18-.673-.445-1.26-.805-1.763A4.016 4.016 0 0 0 1.855-5.23c-.54-.302-1.161-.45-1.877-.45-.702 0-1.317.148-1.849.45a4.04 4.04 0 0 0-1.322 1.209 5.317 5.317 0 0 0-.802 1.763 8.37 8.37 0 0 0-.259 2.119v.304z" style="display:block" transform="translate(236.011 402.261)"/><path fill="#181516" d="m-8.103-7.375.071 1.671a5.368 5.368 0 0 1 1.881-1.433c.735-.342 1.594-.515 2.574-.515.973 0 1.832.193 2.576.578.749.383 1.317.994 1.716 1.838a5.72 5.72 0 0 1 1.953-1.748c.801-.447 1.75-.668 2.839-.668.807 0 1.517.103 2.138.312a3.861 3.861 0 0 1 1.578.981c.432.446.754 1.009.976 1.692.223.688.336 1.502.336 2.444v9.875H7.966v-9.886c0-.631-.08-1.154-.232-1.571-.152-.418-.365-.749-.644-1a2.33 2.33 0 0 0-1.015-.522 5.674 5.674 0 0 0-1.318-.147c-.526 0-.995.086-1.403.251a3.272 3.272 0 0 0-1.047.675 3.16 3.16 0 0 0-.696 1c-.171.384-.28.797-.328 1.228v9.972h-2.584v-9.875c0-.582-.076-1.08-.228-1.492-.152-.412-.365-.748-.644-1.004a2.513 2.513 0 0 0-1.005-.569 4.417 4.417 0 0 0-1.326-.186c-.92 0-1.656.201-2.21.599a3.692 3.692 0 0 0-1.251 1.553V7.652h-2.57V-7.375h2.432z" style="display:block" transform="translate(256.594 402.121)"/><path fill="#181516" d="M.516 7.793c-1.047 0-1.995-.185-2.843-.546A6.334 6.334 0 0 1-4.499 5.74a6.58 6.58 0 0 1-1.389-2.295c-.322-.891-.487-1.862-.487-2.919v-.583c0-1.219.183-2.313.548-3.276.366-.963.854-1.773 1.465-2.432a6.474 6.474 0 0 1 2.1-1.508 6.062 6.062 0 0 1 2.456-.52c1.076 0 2.001.188 2.777.563a5.238 5.238 0 0 1 1.926 1.55c.502.654.877 1.437 1.118 2.332.242.897.36 1.873.36 2.931V.734H-3.801a6.23 6.23 0 0 0 .335 1.943c.209.602.508 1.128.891 1.57a4.18 4.18 0 0 0 1.39 1.057c.54.26 1.151.389 1.839.389.905 0 1.673-.185 2.304-.555.63-.37 1.18-.864 1.654-1.474l1.569 1.223c-.241.37-.531.73-.877 1.076a5.807 5.807 0 0 1-1.199.934c-.46.27-.986.487-1.578.649a7.672 7.672 0 0 1-2.011.247zM.194-5.68c-.517 0-.995.096-1.432.284-.431.19-.82.465-1.166.825a4.51 4.51 0 0 0-.853 1.347c-.228.541-.378 1.151-.465 1.849h7.528v-.196a7.275 7.275 0 0 0-.241-1.487 4.243 4.243 0 0 0-.626-1.318 3.242 3.242 0 0 0-1.091-.943C1.403-5.562.853-5.68.194-5.68z" style="display:block" transform="translate(276.725 402.262)"/><path fill="#181516" d="M3.632-5.07a8.404 8.404 0 0 0-.617-.076 8.333 8.333 0 0 0-.645-.02c-.89 0-1.616.196-2.177.584a3.554 3.554 0 0 0-1.255 1.569V7.653h-2.57V-7.375h2.504l.038 1.736a4.496 4.496 0 0 1 1.459-1.47c.583-.36 1.29-.544 2.124-.544.185 0 .399.022.641.065.241.039.408.086.498.128v2.39z" style="display:block" transform="translate(289.704 402.121)"/><path fill="#181516" d="M3.404 3.526c0-.274-.042-.54-.123-.781-.085-.247-.251-.479-.493-.698-.246-.218-.597-.417-1.052-.602C1.285 1.26.688 1.089-.056.928A17.36 17.36 0 0 1-2.303.307c-.669-.242-1.232-.53-1.701-.872a3.539 3.539 0 0 1-1.077-1.199c-.251-.465-.375-1.005-.375-1.626a3.8 3.8 0 0 1 .394-1.688c.265-.531.635-1 1.118-1.403.484-.403 1.067-.721 1.749-.958.688-.237 1.452-.354 2.295-.354.897 0 1.697.122 2.408.369a5.574 5.574 0 0 1 1.807 1.01c.491.42.871.919 1.132 1.488.256.573.39 1.181.39 1.829H3.253c0-.308-.072-.616-.209-.924a2.58 2.58 0 0 0-.613-.834 3.086 3.086 0 0 0-.985-.598C1.058-5.604.607-5.68.1-5.68c-.541 0-.995.061-1.37.185a2.77 2.77 0 0 0-.925.502 1.906 1.906 0 0 0-.526.707 2.054 2.054 0 0 0-.166.816c0 .273.044.525.139.748.094.223.27.422.525.602.262.18.616.346 1.063.502.45.152 1.033.308 1.744.465a16.93 16.93 0 0 1 2.388.721c.678.27 1.238.583 1.683.938.441.356.773.768.991 1.228.218.465.327 1.001.327 1.612a3.938 3.938 0 0 1-1.584 3.209c-.51.389-1.118.692-1.834.91-.71.218-1.502.328-2.375.328-1 0-1.881-.143-2.645-.417-.763-.281-1.402-.65-1.924-1.105A4.76 4.76 0 0 1-5.57 4.702a4.391 4.391 0 0 1-.403-1.816h2.569c.03.532.157.971.385 1.327s.512.644.854.868c.34.223.715.379 1.122.474a5.74 5.74 0 0 0 1.223.138c.532 0 .992-.057 1.39-.166a3.214 3.214 0 0 0 1.01-.461c.268-.194.478-.422.616-.687.137-.261.208-.544.208-.853z" style="display:block" transform="translate(308.082 402.262)"/><path fill="#181516" d="M3.505 7.513a2.95 2.95 0 0 1-.223-.702 14.693 14.693 0 0 1-.136-.881 7.016 7.016 0 0 1-.812.715 5.756 5.756 0 0 1-.985.598c-.36.171-.744.303-1.161.403a5.882 5.882 0 0 1-1.318.147c-.768 0-1.466-.118-2.091-.35a4.864 4.864 0 0 1-1.597-.945 4.17 4.17 0 0 1-1.026-1.407 4.32 4.32 0 0 1-.359-1.744c0-.807.162-1.518.474-2.133A4.229 4.229 0 0 1-4.372-.332c.587-.417 1.298-.735 2.127-.948.834-.209 1.763-.317 2.792-.317h2.555v-1.182c0-.895-.265-1.61-.805-2.146-.536-.532-1.328-.797-2.375-.797-.48 0-.92.067-1.318.195-.397.127-.74.304-1.02.521a2.39 2.39 0 0 0-.657.758 1.8 1.8 0 0 0-.239.901h-2.584c0-.536.143-1.071.422-1.597.285-.525.684-1 1.206-1.423.517-.421 1.142-.763 1.882-1.028.734-.266 1.555-.398 2.464-.398.812 0 1.563.104 2.256.313.687.208 1.28.526 1.768.948.494.417.877.943 1.153 1.573.279.631.417 1.366.417 2.209v6.988c0 .507.048 1.043.133 1.602.09.559.216 1.043.398 1.45v.223H3.505zM-.756 5.556c.46 0 .895-.067 1.303-.195a4.86 4.86 0 0 0 1.114-.507c.332-.209.62-.445.868-.716.241-.27.436-.545.573-.834V.223H.964C-.506.223-1.643.45-2.44.91c-.796.46-1.193 1.152-1.193 2.077 0 .36.062.697.18 1.014.124.313.301.583.55.81.246.228.544.408.905.541.356.137.768.204 1.242.204z" style="display:block" transform="translate(323.174 402.261)"/><path fill="#181516" d="M1.219-9.474v3.641H4.02v1.987H1.219v9.319c0 .389.043.701.137.939.092.231.214.417.365.545.157.132.333.217.531.256.199.042.403.066.616.066.213 0 .437-.024.674-.066.237-.039.422-.076.549-.104v2.085c-.203.058-.47.114-.792.181a5.99 5.99 0 0 1-1.18.099c-.474 0-.919-.071-1.34-.204a2.702 2.702 0 0 1-1.105-.674c-.313-.312-.564-.729-.75-1.241-.184-.517-.274-1.147-.274-1.896v-9.305h-2.741v-1.987h2.741v-3.641h2.569z" style="display:block" transform="translate(335.145 400.58)"/><path fill="#181516" d="M1.284 7.514h-2.568V-7.514h2.568V7.514z" style="display:block" transform="translate(343.674 402.26)"/><path fill="#181516" d="M-1.521.011c0-.417.126-.767.383-1.051.252-.29.631-.431 1.128-.431.503 0 .882.141 1.141.431.257.284.39.634.39 1.051 0 .417-.133.764-.39 1.044-.259.279-.638.416-1.141.416-.497 0-.876-.137-1.128-.416-.257-.28-.383-.627-.383-1.044z" style="display:block" transform="translate(343.703 390.75)"/><path fill="#181516" d="M3.404 3.526c0-.274-.043-.54-.124-.781-.085-.247-.251-.479-.492-.698-.247-.218-.598-.417-1.053-.602C1.284 1.26.688 1.089-.056.928A17.377 17.377 0 0 1-2.304.307c-.668-.242-1.232-.53-1.701-.872a3.539 3.539 0 0 1-1.077-1.199c-.25-.465-.374-1.005-.374-1.626 0-.593.132-1.152.393-1.688.266-.531.636-1 1.118-1.403.484-.403 1.068-.721 1.75-.958.688-.237 1.452-.354 2.295-.354.896 0 1.697.122 2.408.369.707.247 1.308.584 1.806 1.01.492.42.872.919 1.132 1.488.257.573.39 1.181.39 1.829H3.253c0-.308-.073-.616-.209-.924a2.595 2.595 0 0 0-.613-.834 3.097 3.097 0 0 0-.985-.598A3.708 3.708 0 0 0 .1-5.68c-.541 0-.996.061-1.371.185a2.774 2.774 0 0 0-.924.502 1.895 1.895 0 0 0-.526.707 2.037 2.037 0 0 0-.166.816c0 .273.044.525.138.748.094.223.27.422.526.602.261.18.616.346 1.063.502.449.152 1.032.308 1.744.465.919.213 1.716.455 2.387.721.679.27 1.239.583 1.684.938.441.356.773.768.99 1.228.219.465.328 1.001.328 1.612 0 .659-.137 1.261-.412 1.806a3.985 3.985 0 0 1-1.172 1.403c-.511.389-1.119.692-1.835.91-.71.218-1.502.328-2.374.328-1.001 0-1.881-.143-2.645-.417-.763-.281-1.402-.65-1.925-1.105a4.774 4.774 0 0 1-1.181-1.569 4.39 4.39 0 0 1-.402-1.816h2.569c.029.532.157.971.384 1.327.229.356.512.644.854.868.341.223.716.379 1.123.474.408.089.816.138 1.223.138.532 0 .991-.057 1.389-.166a3.193 3.193 0 0 0 1.01-.461c.269-.194.479-.422.616-.687.138-.261.209-.544.209-.853z" style="display:block" transform="translate(354.416 402.262)"/><path fill="#181516" d="M-2.166 10.813v-13.04h-2.375v-1.987h2.375v-1.583c0-.805.113-1.522.341-2.148a4.183 4.183 0 0 1 .977-1.573 4.13 4.13 0 0 1 1.554-.968c.611-.217 1.305-.327 2.072-.327.593 0 1.18.081 1.763.237L4.404-8.49a7.488 7.488 0 0 0-.663-.09 7.762 7.762 0 0 0-.726-.038c-.834 0-1.478.246-1.934.731-.45.488-.678 1.185-.678 2.09v1.583h3.209v1.987H.403v13.04h-2.569z" style="display:block" transform="translate(367.167 398.961)"/><path fill="#181516" d="M3.506 7.513a2.902 2.902 0 0 1-.224-.702 14.68 14.68 0 0 1-.137-.881 6.992 6.992 0 0 1-.81.715 5.813 5.813 0 0 1-.987.598c-.36.171-.745.303-1.162.403a5.86 5.86 0 0 1-1.317.147 5.983 5.983 0 0 1-2.091-.35 4.87 4.87 0 0 1-1.596-.945 4.155 4.155 0 0 1-1.025-1.407 4.303 4.303 0 0 1-.36-1.744c0-.807.161-1.518.473-2.133A4.247 4.247 0 0 1-4.373-.332c.588-.417 1.299-.735 2.129-.948.834-.209 1.762-.317 2.792-.317h2.554v-1.182c0-.895-.264-1.61-.805-2.146-.536-.532-1.328-.797-2.375-.797-.479 0-.92.067-1.319.195a3.292 3.292 0 0 0-1.019.521c-.283.218-.502.47-.658.758a1.808 1.808 0 0 0-.238.901h-2.584c0-.536.144-1.071.422-1.597.285-.525.683-1 1.205-1.423.517-.421 1.143-.763 1.882-1.028.735-.266 1.554-.398 2.465-.398.811 0 1.563.104 2.257.313a4.791 4.791 0 0 1 1.767.948c.494.417.877.943 1.153 1.573.279.631.417 1.366.417 2.209v6.988c0 .507.047 1.043.133 1.602.09.559.217 1.043.398 1.45v.223H3.506zM-.756 5.556c.459 0 .896-.067 1.304-.195a4.89 4.89 0 0 0 1.113-.507c.332-.209.621-.445.868-.716.241-.27.436-.545.573-.834V.223H.965c-1.47 0-2.608.227-3.404.687-.796.46-1.194 1.152-1.194 2.077 0 .36.061.697.179 1.014.124.313.303.583.551.81.246.228.544.408.904.541.356.137.768.204 1.243.204z" style="display:block" transform="translate(379.382 402.261)"/><path fill="#181516" d="M.363 5.693c.449 0 .886-.071 1.303-.223a3.592 3.592 0 0 0 1.104-.613c.319-.255.578-.563.778-.919.199-.359.317-.744.355-1.161h2.428a4.466 4.466 0 0 1-.545 1.911 5.71 5.71 0 0 1-1.3 1.597A6.42 6.42 0 0 1 2.619 7.38a6.191 6.191 0 0 1-2.256.413c-1.134 0-2.115-.204-2.953-.608a5.99 5.99 0 0 1-2.092-1.63 7.008 7.008 0 0 1-1.241-2.388A9.835 9.835 0 0 1-6.331.294v-.588a9.82 9.82 0 0 1 .408-2.873 6.985 6.985 0 0 1 1.241-2.389 6.028 6.028 0 0 1 2.086-1.632c.83-.402 1.811-.605 2.944-.605.876 0 1.678.141 2.393.417A5.779 5.779 0 0 1 4.605-6.23a5.313 5.313 0 0 1 1.228 1.731c.294.663.465 1.384.498 2.152H3.903a3.934 3.934 0 0 0-.326-1.299 3.4 3.4 0 0 0-.732-1.057 3.463 3.463 0 0 0-1.089-.715A3.623 3.623 0 0 0 .348-5.68c-.797 0-1.455.156-1.981.47-.523.317-.944.73-1.262 1.247a5.097 5.097 0 0 0-.673 1.734 9.615 9.615 0 0 0-.194 1.935v.588c0 .663.062 1.317.194 1.961.128.646.352 1.219.664 1.731.319.507.735.919 1.266 1.236.526.315 1.194.471 2.001.471z" style="display:block" transform="translate(394.75 402.262)"/><path fill="#181516" d="M1.218-9.474v3.641H4.02v1.987H1.218v9.319c0 .389.043.701.138.939.09.231.213.417.364.545.156.132.333.217.531.256.199.042.404.066.617.066.212 0 .436-.024.673-.066.237-.039.422-.076.55-.104v2.085c-.204.058-.47.114-.792.181a5.997 5.997 0 0 1-1.18.099c-.474 0-.92-.071-1.342-.204a2.715 2.715 0 0 1-1.105-.674c-.312-.312-.563-.729-.749-1.241-.184-.517-.273-1.147-.273-1.896v-9.305h-2.741v-1.987h2.741v-3.641h2.568z" style="display:block" transform="translate(406.243 400.58)"/><path fill="#181516" d="M1.284 7.514h-2.568V-7.514h2.568V7.514z" style="display:block" transform="translate(414.772 402.26)"/><path fill="#181516" d="M-1.521.011c0-.417.126-.767.383-1.051.251-.29.631-.431 1.128-.431.503 0 .882.141 1.142.431.257.284.389.634.389 1.051 0 .417-.132.764-.389 1.044-.26.279-.639.416-1.142.416-.497 0-.877-.137-1.128-.416-.257-.28-.383-.627-.383-1.044z" style="display:block" transform="translate(414.8 390.75)"/><path fill="#181516" d="M-6.838-.139c0-1.094.156-2.104.479-3.033a7.314 7.314 0 0 1 1.36-2.427A6.352 6.352 0 0 1-2.857-7.21c.844-.39 1.788-.583 2.835-.583 1.067 0 2.019.193 2.869.583a6.376 6.376 0 0 1 2.161 1.611c.592.688 1.043 1.493 1.361 2.427.313.929.469 1.939.469 3.033v.304c0 1.096-.156 2.105-.469 3.035-.318.934-.769 1.735-1.361 2.417a6.278 6.278 0 0 1-2.152 1.598c-.843.383-1.793.578-2.849.578-1.057 0-2.005-.195-2.849-.578a6.269 6.269 0 0 1-2.152-1.598A7.133 7.133 0 0 1-6.359 3.2c-.323-.93-.479-1.939-.479-3.035v-.304zm2.583.304c0 .749.085 1.461.261 2.124a5.32 5.32 0 0 0 .801 1.759 3.97 3.97 0 0 0 1.332 1.199c.531.298 1.157.446 1.868.446.702 0 1.322-.148 1.863-.446.535-.293.98-.696 1.331-1.199a5.546 5.546 0 0 0 .797-1.759c.181-.663.27-1.375.27-2.124v-.304c0-.744-.089-1.445-.27-2.119a5.361 5.361 0 0 0-.805-1.763A4.004 4.004 0 0 0 1.855-5.23c-.54-.302-1.161-.45-1.877-.45-.701 0-1.317.148-1.848.45a4.043 4.043 0 0 0-1.323 1.209 5.295 5.295 0 0 0-.801 1.763 8.324 8.324 0 0 0-.261 2.119v.304z" style="display:block" transform="translate(426.327 402.261)"/><path fill="#181516" d="m-3.477-7.375.08 1.888a5.843 5.843 0 0 1 1.948-1.587c.759-.385 1.609-.578 2.556-.578.729 0 1.393.099 1.986.298a3.64 3.64 0 0 1 1.512.962c.418.436.739 1.005.968 1.693.222.691.336 1.526.336 2.508v9.843H3.34v-9.875c0-.582-.061-1.08-.195-1.492a2.437 2.437 0 0 0-.573-1.004 2.252 2.252 0 0 0-.944-.569A4.162 4.162 0 0 0 .33-5.474c-.834 0-1.565.224-2.196.669a4.533 4.533 0 0 0-1.473 1.749V7.652h-2.57V-7.375h2.432z" style="display:block" transform="translate(442.297 402.121)"/><path fill="#181516" d="M8.025-5.156c0 .472-.097.97-.287 1.498a5.614 5.614 0 0 1-.776 1.465 4.671 4.671 0 0 1-1.19 1.13 2.936 2.936 0 0 1-1.521.492c.57.043 1.136.205 1.696.491.56.285 1.063.666 1.507 1.152a6.4 6.4 0 0 1 1.094 1.676 4.91 4.91 0 0 1 .428 2.026c0 1.268-.19 2.337-.571 3.214-.38.872-.899 1.58-1.555 2.119a6.035 6.035 0 0 1-2.299 1.153 10.99 10.99 0 0 1-2.807.349h-10.72v-23.218H1.238c.93 0 1.807.091 2.631.27.824.18 1.545.507 2.158.988.613.475 1.099 1.131 1.458 1.971.36.835.54 1.913.54 3.224zM1.744 7.675c.38 0 .74-.089 1.078-.269.338-.18.635-.423.888-.73.254-.307.456-.644.604-1.015.148-.369.221-.745.221-1.126 0-.782-.29-1.436-.872-1.965-.581-.529-1.379-.793-2.394-.793h-5.805v5.898h6.28zm-6.28-9.833H.92c.444 0 .829-.084 1.157-.253.327-.169.604-.396.825-.672.222-.275.392-.592.508-.94a3.26 3.26 0 0 0 .175-1.035c0-.344-.063-.673-.191-.99A2.656 2.656 0 0 0 2.14-7.455a1.94 1.94 0 0 0-.902-.221h-5.774v5.518z" style="display:block" transform="translate(147.174 353.854)"/><path fill="#181516" d="M-5.313 11.609h-4.44v-23.218H.792c1.19 0 2.274.197 3.263.588.983.391 1.823.94 2.521 1.648a7.473 7.473 0 0 1 1.639 2.538c.391.983.586 2.056.586 3.22 0 1.754-.439 3.288-1.316 4.599A7.379 7.379 0 0 1 3.97 3.807c1.95 2.58 3.88 5.181 5.783 7.802H4.456a151.1 151.1 0 0 1-2.717-3.647A295.925 295.925 0 0 1-.919 4.219h-4.394v7.39zm0-11.324h6.1c.402 0 .819-.079 1.248-.237a3.272 3.272 0 0 0 1.157-.73c.333-.328.614-.735.836-1.221.222-.487.333-1.057.333-1.712 0-.339-.042-.742-.126-1.205a3.96 3.96 0 0 0-.508-1.333c-.248-.423-.609-.783-1.073-1.079-.466-.295-1.084-.444-1.867-.444h-6.1V.285z" style="display:block" transform="translate(176.12 353.853)"/><path fill="#181516" d="M-.016 12.052c-1.648 0-3.203-.316-4.662-.95a12.243 12.243 0 0 1-3.821-2.586 12.207 12.207 0 0 1-2.585-3.821c-.635-1.46-.952-3.025-.952-4.695 0-1.649.317-3.209.952-4.678a12.18 12.18 0 0 1 2.585-3.838 12.275 12.275 0 0 1 3.821-2.585 11.574 11.574 0 0 1 4.662-.951c1.671 0 3.235.317 4.695.951a12.29 12.29 0 0 1 3.822 2.585 12.228 12.228 0 0 1 2.584 3.838c.635 1.469.951 3.029.951 4.678 0 1.67-.316 3.235-.951 4.695a12.255 12.255 0 0 1-2.584 3.821 12.26 12.26 0 0 1-3.822 2.586c-1.46.634-3.024.95-4.695.95zM.001-7.897a6.846 6.846 0 0 0-2.96.65 8.093 8.093 0 0 0-2.406 1.728 8.16 8.16 0 0 0-1.628 2.521A7.707 7.707 0 0 0-7.596 0c0 1.058.201 2.063.603 3.013a8.4 8.4 0 0 0 1.628 2.523A7.985 7.985 0 0 0-2.959 7.28c.919.433 1.902.65 2.96.65 1.056 0 2.04-.217 2.959-.65a7.973 7.973 0 0 0 2.406-1.744 8.4 8.4 0 0 0 1.628-2.523c.402-.95.602-1.955.602-3.013 0-1.036-.2-2.035-.602-2.998a8.16 8.16 0 0 0-1.628-2.521A8.08 8.08 0 0 0 2.96-7.247a6.848 6.848 0 0 0-2.959-.65z" style="display:block" transform="translate(206.191 353.853)"/><path fill="#181516" d="M8.865-7.676H2.236v19.285h-4.441V-7.676h-6.66v-3.933h17.73v3.933z" style="display:block" transform="translate(234.423 353.854)"/><path fill="#181516" d="M10.166-11.609v23.218h-4.44v-9.23h-11.45v9.23h-4.442v-23.218h4.442v10.055h11.45v-10.055h4.44z" style="display:block" transform="translate(262.621 353.854)"/><path fill="#181516" d="M-4.107-7.676v5.806H7.121v4.026H-4.107v5.457H8.547v3.996H-8.547v-23.218H8.547v3.933H-4.107z" style="display:block" transform="translate(292.501 353.854)"/><path fill="#181516" d="M-5.314 11.609h-4.439v-23.218H.792c1.19 0 2.274.197 3.262.588.983.391 1.823.94 2.522 1.648a7.486 7.486 0 0 1 1.638 2.538c.392.983.587 2.056.587 3.22 0 1.754-.438 3.288-1.316 4.599a7.381 7.381 0 0 1-3.516 2.823c1.95 2.58 3.88 5.181 5.784 7.802H4.456a151.1 151.1 0 0 1-2.717-3.647A295.926 295.926 0 0 1-.92 4.219h-4.394v7.39zm0-11.324H.788A3.6 3.6 0 0 0 2.035.048a3.294 3.294 0 0 0 1.158-.73c.332-.328.612-.735.834-1.221.223-.487.334-1.057.334-1.712 0-.339-.042-.742-.127-1.205a3.94 3.94 0 0 0-.508-1.333 3.204 3.204 0 0 0-1.073-1.079c-.465-.295-1.084-.444-1.865-.444h-6.102V.285z" style="display:block" transform="translate(321.494 353.853)"/><path fill="#181516" d="m-9.388 8.516 2.41-3.551a25.061 25.061 0 0 0 3.6 2.077 9.022 9.022 0 0 0 3.886.871c.719 0 1.353-.088 1.903-.268.55-.18 1.014-.412 1.395-.698.38-.285.666-.614.856-.983.19-.37.286-.735.286-1.094 0-.465-.143-.864-.428-1.19-.286-.328-.666-.599-1.142-.81a9.322 9.322 0 0 0-1.681-.539 46.354 46.354 0 0 0-2.015-.412 200.93 200.93 0 0 1-1.617-.3 17.978 17.978 0 0 1-1.902-.476C-4.493.943-5.138.678-5.773.35A7.075 7.075 0 0 1-7.485-.887a5.7 5.7 0 0 1-1.221-1.776c-.307-.687-.459-1.496-.459-2.427 0-1.353.273-2.479.823-3.377.551-.899 1.253-1.608 2.11-2.126a8.89 8.89 0 0 1 2.854-1.094 15.335 15.335 0 0 1 3.029-.318c.974 0 1.839.065 2.601.191.761.127 1.469.312 2.126.556.655.243 1.294.549 1.919.92.624.37 1.294.808 2.013 1.316L5.836-5.535c-1.099-.761-2.157-1.342-3.172-1.743A8.614 8.614 0 0 0-.538-7.88c-.382 0-.816.047-1.301.142a5.586 5.586 0 0 0-1.38.46 3.34 3.34 0 0 0-1.078.809 1.743 1.743 0 0 0-.428 1.188c0 .466.168.858.506 1.175.34.316.771.582 1.302.793.527.211 1.108.392 1.744.539.635.148 1.247.296 1.84.443.443.106.966.21 1.57.317a17.1 17.1 0 0 1 1.87.444c.645.19 1.285.444 1.919.762.635.317 1.2.724 1.696 1.221.497.498.9 1.111 1.206 1.84.307.73.46 1.612.46 2.649 0 1.205-.212 2.251-.633 3.139a5.851 5.851 0 0 1-1.809 2.204c-.782.582-1.713 1.021-2.791 1.317-1.078.296-2.273.443-3.584.443-1.205 0-2.268-.09-3.188-.269a13.958 13.958 0 0 1-2.521-.729 13.756 13.756 0 0 1-2.156-1.094 44.028 44.028 0 0 1-2.094-1.397z" style="display:block" transform="translate(349.17 353.9)"/><path fill="#181516" d="m-6.553 37.465 13.056.478.05-75.886-12.899.201-.207 75.207z" style="display:block" transform="translate(486.692 283.786)"/><path fill="#181516" d="m-29.895 37.936 13.043-.095.139-44.013L6.418 15.624c5.138 5.389 18.119 19.769 23.477 22.259v-75.595l-13.121-.224.019 44.892C15.225 6.291 6.588-2.026 5.17-3.48l-22.476-23.084c-7.881-7.265-6.397-9.022-12.526-11.165l-.063 75.665z" style="display:block" transform="translate(427.364 283.773)"/><path fill="#181516" d="M-.429-8.318C2.677-5.061 7.872 8.22 9.341 13.961l-5.643-.05-4.148-.014-9.314-.027L-.429-8.318zm-35.22 46.659 14.421.04 4.952-11.538 32.902-.176 4.675 11.571 14.348.149C29.069 22.689 4.24-27.444 1.214-37.197c-3.63 1.88-1.545-1.19-5.917 8.525-7.872 17.491-26.029 54.203-30.946 67.013z" style="display:block" transform="translate(347.563 283.198)"/><path fill="#181516" d="m-30.253 37.715 13.271.29.071-30.357 33.635.13.222 30.198 13.307-.185-.055-75.253-12.968-.495-.36 32.379-33.705.289-.209-32.716-12.998.188-.211 75.532z" style="display:block" transform="translate(267.69 283.677)"/><path fill="#FFF" d="m-25.992-26.251-.306 53.724 52.439.185.024-26.059L3.626-26.382l6.208-8.932L36.043.448l-.419 34.851-2.425-.026-68.14.028-1.102.013.057-.931 1.266-69.694 44.554-.003-6.208 8.932-29.618.131z" style="display:block" transform="translate(188.446 283.691)"/><path fill="#181516" d="M-21.917 4.503c-2.426-15.351 6.529-27.536 17.52-30.282 28.421-7.1 38.623 43.823 8.779 50.752-13.341 3.097-24.434-8.672-26.299-20.47zM-6.738-39.03c-46.024 9.786-32.452 88.009 13.98 77.276C52.762 27.725 40.053-48.98-6.738-39.03z" style="display:block" transform="translate(104.132 284.2)"/><path fill="#181516" d="m-12.675 14.271-9.556 4.12c-.212.141-.471.321-.673.466l-1.984 1.581c6.391 17.403 31.746 21.23 42.781 4.369 6.994-10.682 6.19-52.183 4.956-66.239l-12.414-.236C5.501-23.281 17.347 15.991 1.63 21.704c-7.64 2.777-12.804-1.943-14.305-7.433z" style="display:block" transform="translate(28.402 287.588)"/><path fill="#181516" d="M-98.237-34.089c4.121 2.127 41.724 48.088 48.014 56.043l41.95 49.478c2.637 2.911 3.778 5.341 6.699 7.756 3.76-2.307 33.493-35.289 40.539-43.383 5.892-6.767 7.348-9.692 3.959-21.108 4.666 2.438 3.874 4.209 8.377 6.674 3.887-2.701 8.083-8.5 11.827-12.478C71.075.45 95.611-23.308 99.194-30.239c-6.07-9.988-42.266-43.291-43.753-48.949l-27.985.146c-4.035 11.852-4.318 9.618-5.582 13.439 26.613-.502 24.488-3.002 35.196 8.581 27.053 29.263 27.405 24.209 4.369 49.236C59.077-5.221 53.917 1.426 49.82 2.25c-6.126 1.233-9.64-5.179-13.292-7.756L24.841 7.647c3.213 4.152 8.58 7.614 6.799 15.294C30.655 27.199 2.123 57.75-.537 59.593L-78.36-33.589c-4.611-5.149-10.96-3.196-19.631-3.339-.572.877-1.203-.916-.246 2.839z" style="display:block" transform="translate(248.123 129.133)"/><path fill="#FFF" d="M41.336-22.837C39.125-17.631 25.496-4.475 20.858.72 16.878 5.176 3.291 21.287-.317 23.288-4.673 20.591-22.853-.718-26.13-4.441c-17.681-20.103-13.416-18.456-33.386-17.815 1.778 3.49 24.551 27.69 29.106 32.737L-.663 41.063c6.167-2.228 25.645-25.351 30.927-31.184l29.252-32.265c-1.771-4.256-6.369-8.687-9.651-11.972-4.202-4.206-9.675-2.74-17.008-2.688-13.315.093-17.819-4.017-26.561 14.139l35.04.07z" style="display:block" transform="translate(248.043 115.08)"/></g><g style="display:block"><path fill="none" stroke="#181516" stroke-dasharray="258.68376" stroke-dashoffset="1955.78487684" stroke-width="1.57734" d="M110.638 86.26C227.952-16.301 406.474-4.324 509.037 112.99c102.562 117.313 90.585 295.835-26.729 398.398C364.995 613.95 186.472 601.973 83.91 484.66-18.653 367.346-6.676 188.823 110.638 86.26z"/><path fill="none" stroke="#181516" stroke-dasharray="229.58267784999998" stroke-dashoffset="1641.1133551" stroke-width="1.54415" d="M114.548 90.733C229.393-9.67 404.16 2.053 504.564 116.9c100.405 114.846 88.68 289.612-26.166 390.017-114.845 100.404-289.611 88.68-390.016-26.166C-12.023 365.904-.298 191.138 114.548 90.733z"/><path fill="none" stroke="#181516" stroke-dasharray="227.93736951" stroke-dashoffset="334.56027915" stroke-width="1.51101" d="M118.452 95.2C230.833-3.05 401.85 8.422 500.098 120.803c98.25 112.38 86.777 283.396-25.604 381.646-112.38 98.25-283.396 86.776-381.646-25.605C-5.402 364.465 6.072 193.45 118.452 95.2z"/><path fill="none" stroke="#181516" stroke-dasharray="363.23459979" stroke-dashoffset="623.2609379099999" stroke-width="1.47531" d="M122.659 100.01c109.725-95.927 276.7-84.725 372.628 25s84.726 276.7-25 372.628c-109.725 95.928-276.7 84.726-372.628-25-95.928-109.725-84.725-276.7 25-372.627z"/><path fill="none" stroke="#181516" stroke-dasharray="223.0040531" stroke-dashoffset="1002.4215071000001" stroke-width="1.4327" d="M127.678 105.752c106.557-93.158 268.71-82.28 361.868 24.277 93.157 106.557 82.279 268.71-24.278 361.868-106.557 93.158-268.71 82.279-361.867-24.278-93.158-106.556-82.28-268.71 24.277-361.867z"/><path fill="none" stroke="#181516" stroke-dasharray="279.2176888" stroke-dashoffset="1172.52894682" stroke-width="1.39358" d="M132.288 111.024C235.934 20.41 393.659 30.992 484.273 134.64c90.614 103.647 80.032 261.371-23.614 351.985-103.647 90.614-261.372 80.033-351.986-23.614-90.614-103.647-80.032-261.372 23.615-351.986z"/><path fill="none" stroke="#181516" stroke-dasharray="253.20436028999998" stroke-dashoffset="1298.518452" stroke-width="1.34757" d="M137.709 117.225c100.224-87.622 252.741-77.39 340.363 22.835 87.622 100.225 77.39 252.741-22.834 340.364-100.225 87.622-252.742 77.39-340.364-22.835-87.622-100.225-77.39-252.742 22.835-340.364z"/></g></g></svg>