<svg width="723" height="408" viewBox="0 0 723 408" fill="none" xmlns="http://www.w3.org/2000/svg">
<path d="M27.746 406.148C27.9167 403.18 -41.9531 314.059 39.4122 231.775C76.1425 194.631 138.273 214.757 128.445 106.249C119.959 12.5617 266.523 -42.4887 357.611 41.1582C416.46 95.2008 476.038 23.1059 569.4 64.0122C662.762 104.919 601.283 216.101 639.594 226.577C715.06 247.214 752.542 338.03 692.375 405.14L27.746 406.148Z" fill="#EAF4FF"/>
<path d="M342.322 189.543C341.926 188.726 341.49 187.897 341.025 187.08L342.339 186.333C342.819 187.178 343.272 188.036 343.682 188.883L342.322 189.543ZM339.574 184.7C339.073 183.932 338.539 183.161 337.984 182.406L339.203 181.511C339.774 182.288 340.325 183.084 340.84 183.875L339.574 184.7ZM189.41 201.366C188.454 201.469 187.493 201.549 186.552 201.605L186.464 200.096C187.38 200.042 188.317 199.963 189.249 199.863L189.41 201.366ZM192.253 200.992L192.021 199.498C192.931 199.357 193.858 199.192 194.777 199.008L195.074 200.49C194.133 200.679 193.184 200.848 192.253 200.992ZM183.683 201.701C182.722 201.708 181.756 201.69 180.812 201.646L180.882 200.136C181.798 200.178 182.737 200.196 183.672 200.189L183.683 201.701ZM197.87 199.868L197.512 198.4C198.408 198.181 199.319 197.939 200.219 197.68L200.637 199.133C199.717 199.397 198.786 199.645 197.87 199.868ZM177.946 201.434C176.99 201.336 176.031 201.209 175.096 201.057L175.338 199.565C176.245 199.712 177.174 199.835 178.101 199.93L177.946 201.434ZM203.371 198.292L202.899 196.855C203.777 196.567 204.668 196.257 205.548 195.932L206.071 197.35C205.174 197.681 204.265 197.998 203.371 198.292ZM208.735 196.314L208.164 194.915C209.019 194.565 209.888 194.194 210.745 193.811L211.362 195.19C210.49 195.58 209.606 195.958 208.735 196.314ZM172.271 200.508C171.331 200.295 170.393 200.051 169.485 199.783L169.913 198.333C170.79 198.592 171.697 198.828 172.606 199.034L172.271 200.508ZM336.27 180.2C335.685 179.487 335.07 178.775 334.443 178.086L335.562 177.069C336.206 177.777 336.838 178.508 337.439 179.242L336.27 180.2ZM213.95 193.983L213.29 192.623C214.122 192.219 214.966 191.794 215.799 191.358L216.5 192.698C215.653 193.141 214.795 193.573 213.95 193.983ZM166.749 198.875C165.847 198.541 164.949 198.173 164.081 197.782L164.703 196.405C165.538 196.781 166.403 197.136 167.274 197.457L166.749 198.875ZM219.01 191.341L218.272 190.021C219.08 189.569 219.899 189.096 220.707 188.615L221.48 189.914C220.661 190.402 219.83 190.881 219.01 191.341ZM332.512 176.065C331.855 175.411 331.172 174.764 330.482 174.141L331.496 173.019C332.203 173.658 332.903 174.322 333.578 174.993L332.512 176.065ZM161.495 196.503C160.649 196.046 159.812 195.553 159.008 195.038L159.823 193.765C160.596 194.26 161.4 194.733 162.214 195.173L161.495 196.503ZM223.911 188.422L223.104 187.144C223.886 186.651 224.68 186.135 225.465 185.612L226.303 186.87C225.508 187.4 224.703 187.922 223.911 188.422ZM228.655 185.26L227.787 184.023C228.546 183.491 229.315 182.938 230.073 182.38L230.969 183.597C230.202 184.162 229.423 184.722 228.655 185.26ZM156.636 193.39C155.868 192.811 155.115 192.196 154.397 191.563L155.398 190.43C156.086 191.037 156.809 191.626 157.546 192.182L156.636 193.39ZM328.362 172.317C327.646 171.73 326.904 171.151 326.157 170.597L327.059 169.383C327.824 169.952 328.585 170.545 329.321 171.148L328.362 172.317ZM233.245 181.883L232.322 180.686L232.546 180.513C233.226 179.987 233.906 179.469 234.583 178.963L235.489 180.172C234.818 180.675 234.145 181.187 233.469 181.71L233.245 181.883ZM323.873 168.983C323.103 168.466 322.31 167.961 321.515 167.48L322.297 166.187C323.112 166.679 323.926 167.198 324.716 167.729L323.873 168.983ZM152.31 189.569C151.642 188.88 150.994 188.154 150.385 187.415L151.551 186.453C152.135 187.163 152.756 187.857 153.396 188.518L152.31 189.569ZM237.761 178.505L236.878 177.278C237.65 176.723 238.433 176.171 239.205 175.638L240.064 176.882C239.3 177.41 238.524 177.956 237.761 178.505ZM319.088 166.09C318.272 165.648 317.435 165.22 316.598 164.818L317.254 163.456C318.112 163.869 318.971 164.308 319.807 164.761L319.088 166.09ZM242.399 175.306L241.566 174.044C242.363 173.518 243.169 172.999 243.96 172.501L244.766 173.78C243.984 174.272 243.187 174.786 242.399 175.306ZM148.637 185.112C148.089 184.326 147.564 183.507 147.078 182.677L148.383 181.913C148.848 182.709 149.351 183.494 149.876 184.248L148.637 185.112ZM247.164 172.306L246.388 171.009C247.202 170.521 248.03 170.038 248.849 169.573L249.596 170.888C248.787 171.347 247.969 171.824 247.164 172.306ZM314.051 163.665C313.195 163.302 312.321 162.955 311.451 162.635L311.975 161.216C312.867 161.545 313.764 161.901 314.641 162.273L314.051 163.665ZM252.059 169.529L251.345 168.196C252.182 167.748 253.034 167.306 253.876 166.882L254.556 168.232C253.724 168.65 252.885 169.087 252.059 169.529ZM308.806 161.729C307.922 161.45 307.019 161.188 306.121 160.951L306.508 159.489C307.429 159.732 308.355 160.002 309.262 160.288L308.806 161.729ZM257.085 167.002L256.441 165.634C257.304 165.229 258.179 164.833 259.041 164.456L259.645 165.842C258.796 166.212 257.934 166.603 257.085 167.002ZM145.718 180.123C145.302 179.26 144.914 178.369 144.565 177.474L145.973 176.925C146.308 177.784 146.68 178.639 147.079 179.466L145.718 180.123ZM303.402 160.3C302.498 160.105 301.573 159.929 300.655 159.776L300.904 158.285C301.844 158.442 302.792 158.622 303.72 158.821L303.402 160.3ZM262.236 164.757L261.673 163.354C262.558 162.998 263.455 162.654 264.339 162.33L264.859 163.749C263.99 164.068 263.108 164.407 262.236 164.757ZM297.887 159.381C296.966 159.271 296.029 159.181 295.103 159.112L295.214 157.605C296.162 157.675 297.123 157.767 298.066 157.88L297.887 159.381ZM267.51 162.825L267.036 161.389C267.943 161.089 268.861 160.803 269.763 160.537L270.19 161.988C269.303 162.248 268.402 162.53 267.51 162.825ZM292.309 158.97C291.386 158.943 290.445 158.937 289.511 158.951L289.489 157.439C290.445 157.425 291.409 157.432 292.353 157.459L292.309 158.97ZM272.895 161.242L272.519 159.778C273.441 159.541 274.376 159.319 275.301 159.116L275.624 160.593C274.718 160.791 273.799 161.01 272.895 161.242ZM286.714 159.052C285.79 159.105 284.85 159.179 283.923 159.27L283.774 157.766C284.722 157.672 285.682 157.597 286.628 157.543L286.714 159.052ZM278.374 160.046L278.106 158.558C279.047 158.388 279.998 158.237 280.932 158.106L281.141 159.603C280.226 159.731 279.295 159.88 278.374 160.046ZM143.622 174.743C143.345 173.832 143.098 172.892 142.888 171.95L144.364 171.621C144.565 172.526 144.802 173.429 145.068 174.304L143.622 174.743ZM142.364 169.113C142.313 168.766 142.267 168.418 142.225 168.069C142.152 167.464 142.092 166.851 142.046 166.245L143.553 166.131C143.597 166.715 143.655 167.306 143.725 167.888C143.766 168.224 143.811 168.559 143.86 168.892L142.364 169.113ZM143.438 163.352L141.927 163.364C141.92 162.414 141.945 161.445 142.001 160.482L143.51 160.57C143.455 161.5 143.432 162.436 143.438 163.352ZM143.759 157.795L142.257 157.614C142.37 156.685 142.513 155.742 142.683 154.808L144.178 155.036L144.167 155.094C144.006 155.982 143.867 156.897 143.759 157.795ZM144.736 152.295L143.262 151.962C143.472 151.032 143.704 150.097 143.952 149.183L145.411 149.579C145.169 150.473 144.942 151.386 144.736 152.295ZM196.45 144.646C195.453 144.741 194.465 144.766 193.514 144.722L193.585 143.212C194.465 143.253 195.381 143.229 196.308 143.141L196.45 144.646ZM199.338 144.19L199.013 142.713C199.89 142.52 200.782 142.271 201.662 141.975L202.145 143.407C201.213 143.721 200.268 143.984 199.338 144.19ZM190.583 144.343C189.589 144.126 188.636 143.819 187.75 143.43L188.357 142.046C189.152 142.395 190.009 142.671 190.905 142.867L190.583 144.343ZM204.85 142.341L204.227 140.964C205.058 140.588 205.884 140.165 206.685 139.707L207.436 141.019C206.594 141.501 205.725 141.945 204.85 142.341ZM209.884 139.462L209.015 138.225C209.768 137.696 210.502 137.127 211.196 136.534L212.178 137.684C211.448 138.307 210.676 138.905 209.884 139.462ZM146.204 146.896L144.764 146.436C145.055 145.527 145.369 144.616 145.697 143.727L147.115 144.251C146.794 145.119 146.488 146.009 146.204 146.896ZM185.158 141.931C184.355 141.335 183.62 140.643 182.974 139.874L184.13 138.901C184.702 139.58 185.351 140.191 186.058 140.717L185.158 141.931ZM214.294 135.695L213.208 134.645C213.849 133.981 214.459 133.283 215.021 132.571L216.208 133.507C215.615 134.259 214.971 134.995 214.294 135.695ZM148.144 141.651L146.751 141.063C147.122 140.185 147.517 139.305 147.925 138.449L149.29 139.1C148.891 139.936 148.505 140.794 148.144 141.651ZM181.314 137.39C180.869 136.544 180.491 135.622 180.189 134.649L181.632 134.2C181.907 135.086 182.251 135.923 182.652 136.688L181.314 137.39ZM217.888 131.13L216.609 130.325C217.099 129.545 217.547 128.738 217.939 127.924L219.301 128.581C218.884 129.445 218.409 130.303 217.888 131.13ZM150.552 136.605L149.219 135.892C149.668 135.053 150.143 134.213 150.629 133.396L151.928 134.17C151.452 134.967 150.99 135.786 150.552 136.605ZM179.531 131.784C179.49 131.521 179.453 131.254 179.42 130.982C179.339 130.306 179.283 129.599 179.255 128.88L180.766 128.821C180.793 129.499 180.845 130.165 180.922 130.801C180.952 131.055 180.987 131.305 181.025 131.551L179.531 131.784ZM220.414 125.883L218.985 125.391C219.283 124.526 219.53 123.639 219.718 122.754L221.196 123.068C220.995 124.014 220.732 124.96 220.414 125.883ZM153.415 131.802L152.154 130.969C152.676 130.177 153.226 129.385 153.789 128.614L155.01 129.504C154.462 130.257 153.925 131.03 153.415 131.802ZM180.777 126.048L179.266 125.989C179.304 125.023 179.375 124.056 179.478 123.116L180.98 123.28C180.882 124.186 180.813 125.117 180.777 126.048ZM221.628 120.178L220.122 120.048C220.199 119.146 220.222 118.226 220.189 117.312L221.7 117.258C221.735 118.232 221.711 119.214 221.628 120.178ZM156.709 127.283L155.531 126.337C156.124 125.596 156.745 124.858 157.374 124.142L158.509 125.141C157.894 125.839 157.289 126.559 156.709 127.283ZM160.404 123.083L159.315 122.034C159.976 121.348 160.66 120.669 161.349 120.015L162.39 121.112C161.717 121.75 161.049 122.413 160.404 123.083ZM181.381 120.54L179.895 120.265C180.07 119.317 180.283 118.371 180.529 117.451L181.99 117.841C181.755 118.723 181.55 119.631 181.381 120.54ZM219.853 114.654C219.649 113.779 219.348 112.941 218.961 112.162L220.314 111.488C220.754 112.372 221.094 113.321 221.325 114.31L219.853 114.654ZM164.463 119.23L163.472 118.089C164.188 117.467 164.93 116.851 165.677 116.259L166.617 117.443C165.887 118.021 165.163 118.623 164.463 119.23ZM182.809 115.201L181.384 114.695C181.706 113.789 182.069 112.887 182.461 112.015L183.84 112.636C183.464 113.471 183.117 114.333 182.809 115.201ZM217.509 109.955C216.952 109.294 216.303 108.677 215.579 108.121L216.5 106.923C217.31 107.545 218.038 108.237 218.665 108.981L217.509 109.955ZM168.847 115.751L167.96 114.527C168.732 113.968 169.524 113.42 170.317 112.897L171.149 114.158C170.376 114.669 169.601 115.205 168.847 115.751ZM173.52 112.667L172.742 111.37C173.559 110.881 174.396 110.404 175.232 109.951L175.952 111.28C175.135 111.722 174.317 112.189 173.52 112.667ZM185.076 110.163L183.753 109.432C184.161 108.692 184.603 107.955 185.069 107.237C184.571 107.411 184.073 107.593 183.58 107.78L183.044 106.367C183.938 106.027 184.848 105.706 185.749 105.411L186.219 106.848C185.966 106.93 185.713 107.015 185.46 107.102L186.509 107.796C186 108.567 185.518 109.363 185.076 110.163ZM213.301 106.687C212.527 106.289 211.684 105.932 210.797 105.628L211.287 104.197C212.243 104.526 213.154 104.911 213.993 105.343L213.301 106.687ZM178.443 110.001L177.782 108.641C178.638 108.224 179.515 107.822 180.387 107.445L180.987 108.832C180.135 109.201 179.279 109.594 178.443 110.001ZM208.154 104.898C207.286 104.711 206.37 104.561 205.432 104.453L205.605 102.951C206.592 103.064 207.556 103.222 208.472 103.42L208.154 104.898ZM188.897 106.042L188.597 104.952C188.438 105.149 188.28 105.348 188.126 105.546L186.932 104.619C187.514 103.871 188.137 103.127 188.786 102.409L189.908 103.421C189.605 103.757 189.307 104.099 189.017 104.445C189.774 104.245 190.534 104.06 191.284 103.895L191.61 105.371C190.712 105.568 189.8 105.794 188.897 106.042ZM202.67 104.253C201.769 104.224 200.834 104.228 199.893 104.266L199.832 102.756C200.809 102.716 201.781 102.712 202.718 102.742L202.67 104.253ZM194.352 104.842L194.107 103.35C195.066 103.193 196.024 103.064 196.958 102.966L197.116 104.469C196.21 104.564 195.282 104.689 194.352 104.842ZM191.84 101.423L190.789 100.336C191.467 99.6808 192.184 99.0311 192.919 98.4058L193.899 99.5567C193.188 100.162 192.495 100.79 191.84 101.423ZM196.072 97.8169L195.162 96.6101C195.911 96.0444 196.698 95.4846 197.499 94.9455L198.343 96.2002C197.564 96.7237 196.8 97.2674 196.072 97.8169ZM200.697 94.7019L199.917 93.4074C200.72 92.9231 201.559 92.4442 202.408 91.984L203.128 93.3135C202.299 93.7624 201.481 94.2297 200.697 94.7019ZM205.621 92.0318L204.958 90.6734C205.801 90.2626 206.675 89.8569 207.557 89.4685L208.167 90.8518C207.303 91.2326 206.446 91.6295 205.621 92.0318ZM210.758 89.7679L210.2 88.3632C211.071 88.0166 211.972 87.6762 212.877 87.3517L213.388 88.7745C212.499 89.0937 211.614 89.4278 210.758 89.7679ZM216.05 87.8681L215.586 86.4295C216.483 86.14 217.404 85.8582 218.321 85.5924L218.742 87.0441C217.839 87.3061 216.934 87.5832 216.05 87.8681ZM221.458 86.2997L221.08 84.8362C221.994 84.5999 222.928 84.372 223.859 84.1591L224.196 85.6328C223.28 85.8426 222.358 86.0671 221.458 86.2997ZM226.953 85.0426L226.656 83.5601C227.597 83.3721 228.544 83.1968 229.471 83.0388L229.725 84.5289C228.812 84.6844 227.879 84.8574 226.953 85.0426ZM235.287 83.7724C235.28 83.773 234.25 83.8572 232.51 84.0978L232.303 82.6006C234.098 82.3515 235.135 82.2679 235.167 82.2653L235.287 83.7724Z" fill="#26395F"/>
<path d="M242.637 250.261H182.501V404.684H242.637V250.261Z" fill="#23ACCA" fill-opacity="0.3"/>
<path d="M336.189 199.786H276.053V404.684H336.189V199.786Z" fill="#23ACCA" fill-opacity="0.3"/>
<path d="M426.962 145.311H361.115V404.684H426.962V145.311Z" fill="#23ACCA" fill-opacity="0.3"/>
<path d="M510.557 109.404H450.421V404.684H510.557V109.404Z" fill="#23ACCA" fill-opacity="0.3"/>
<path d="M426.962 231.748L553.351 170.564L496.984 290.713L487.453 236.201L426.962 231.748Z" fill="#FFC93D"/>
<path d="M306.581 92.5917C303.092 93.4633 299.761 94.2952 296.645 94.8284C286.556 96.554 278.761 95.1306 275.401 81.6809C272.042 68.2295 278.252 63.3082 287.967 60.0869C290.968 59.0926 294.299 58.2606 297.788 57.3891C305.246 55.5264 313.5 56.3487 320.074 58.5069C326.541 60.6322 331.379 64.0503 332.237 67.4848C333.214 71.3957 330.551 76.6918 325.814 81.4881C320.998 86.3678 314.039 90.729 306.581 92.5917Z" fill="#739AF0"/>
<path d="M287.968 60.0864L276.507 52.6025L258.416 56.4574L277.207 69.6592L287.968 60.0864Z" fill="#163560"/>
<path d="M296.618 94.7186L290.022 106.712L272.243 111.817L282.62 91.3296L296.618 94.7186Z" fill="#163560"/>
<path d="M296.645 94.8282C286.556 96.5538 278.761 95.1304 275.401 81.6806C272.042 68.2292 278.252 63.308 287.967 60.0866L296.645 94.8282Z" fill="#163560"/>
<path d="M251.845 87.564C251.845 87.564 256.881 75.8291 265.697 77.6364C274.691 79.4796 273.558 89.1697 266.808 90.0588C260.059 90.9479 255.782 86.5804 251.845 87.564Z" fill="#FFC93D"/>
<path d="M307.584 81.7865C312.386 81.7865 316.28 77.8932 316.28 73.0906C316.28 68.288 312.386 64.3948 307.584 64.3948C302.781 64.3948 298.888 68.288 298.888 73.0906C298.888 77.8932 302.781 81.7865 307.584 81.7865Z" fill="#163560"/>
<path d="M307.584 82.3672C303.428 82.3672 299.637 79.549 298.584 75.3384C297.345 70.3765 300.373 65.3312 305.336 64.0918C310.297 62.8522 315.343 65.881 316.582 70.8432C317.183 73.2467 316.812 75.7404 315.536 77.8649C314.261 79.9891 312.235 81.4894 309.831 82.0899C309.08 82.2776 308.326 82.3672 307.584 82.3672ZM307.583 64.9738C306.933 64.9738 306.274 65.0524 305.617 65.2169C303.514 65.7422 301.741 67.0551 300.625 68.9138C299.51 70.7726 299.184 72.9544 299.71 75.0577C300.794 79.3991 305.209 82.05 309.551 80.965C311.654 80.4401 313.427 79.1269 314.542 77.2682C315.658 75.4094 315.983 73.2275 315.458 71.1242C314.537 67.4401 311.22 64.9738 307.583 64.9738Z" fill="#BDD1F9"/>
<path d="M325.814 81.4876L320.074 58.5063C326.541 60.6317 331.38 64.0498 332.238 67.4843C333.215 71.3952 330.552 76.6913 325.814 81.4876Z" fill="#F77D48"/>
<path d="M585.854 207.681C585.854 207.681 603.424 225.898 604.255 232.755C605.085 239.612 595.838 250.316 595.838 250.316L585.854 207.681Z" fill="#E0AD29"/>
<path d="M577.914 396.486C577.914 396.486 577.294 406.149 575.424 406.284C575.175 406.302 565.94 406.282 565.94 406.282L554.152 406.188C554.152 406.188 554.235 403.348 557.682 402.754C561.129 402.161 566.902 399.752 569 395.202C571.206 390.416 577.914 396.486 577.914 396.486Z" fill="#2E5A99"/>
<path d="M604.172 396.543C604.172 396.543 603.552 406.206 601.681 406.341C601.433 406.359 592.198 406.338 592.198 406.338L580.409 406.245C580.409 406.245 580.493 403.404 583.94 402.811C587.387 402.218 593.16 399.809 595.257 395.259C597.464 390.473 604.172 396.543 604.172 396.543Z" fill="#18417C"/>
<path d="M565.084 292.589C565.084 292.589 568.125 312.315 579.55 347.345C590.976 382.375 592.51 397.536 592.51 397.536L604.85 397.217C604.85 397.217 605.038 358.961 599.776 341.347C594.513 323.733 598.769 277.885 598.769 277.885L565.084 292.589Z" fill="#163560"/>
<path d="M559.11 278.879C559.11 278.879 558.609 308.594 563.671 345.091C568.733 381.588 566.957 397.071 566.957 397.071L579.27 397.508C579.27 397.508 586.708 361.024 584.638 342.758C582.568 324.492 594.851 280.115 594.851 280.115L559.11 278.879Z" fill="#1C468A"/>
<path d="M583.098 209.393L576.528 213.68L567.05 211.892C567.183 211.127 567.816 207.956 568.392 205.084C568.427 204.914 568.462 204.745 568.494 204.579C568.988 202.135 569.414 200.036 569.414 200.036L578.279 196.148L581.583 194.698C581.575 194.75 581.322 197.411 581.286 197.8C580.652 204.699 583.098 209.393 583.098 209.393Z" fill="#FFB27D"/>
<path d="M569.489 207.192C569.673 207.116 580.915 203.825 582.134 204.23C583.354 204.636 584.071 206.999 584.071 206.999L565.687 211.113C565.687 211.113 567.139 208.176 569.489 207.192Z" fill="#E0AD29"/>
<path d="M599.576 282.636C597.653 291.319 565.959 292.28 557.807 284.377C556.88 283.476 556.843 279.294 557.206 273.657C557.916 262.642 560.153 246.077 560.257 237.611C560.308 233.523 560.878 229.342 561.635 225.547C563.244 217.458 565.686 211.112 565.686 211.112C565.686 211.112 581.176 206.142 584.07 206.999C598.016 211.13 601.499 273.953 599.576 282.636Z" fill="#FFC93D"/>
<path d="M557.207 273.657C557.916 262.642 560.154 246.077 560.258 237.611C560.308 233.523 560.879 229.342 561.636 225.547L570.951 223.924C570.951 223.924 579.974 261.129 557.207 273.657Z" fill="#E0AD29"/>
<path d="M562.282 258.313C562.282 258.313 562.913 259.832 561.579 260.848C560.243 261.863 559.375 263.512 559.678 264.718C559.98 265.925 562.9 267.899 563.914 267.584C564.929 267.269 566.995 265.685 566.774 265.048C566.553 264.411 568.174 259.469 565.707 257.559C563.24 255.649 562.282 258.313 562.282 258.313Z" fill="#FFB27D"/>
<path d="M572.802 208.899C572.802 208.899 563.717 210.578 556.458 221.226C549.199 231.874 544.421 239.792 545.746 243.638C547.07 247.484 559.192 260.84 561.286 260.844C563.381 260.849 566.765 259.333 566.962 255.905C566.962 255.905 558.436 243.066 560.125 241.15C560.847 240.331 571.25 231.922 572.725 235.734C575.165 242.04 572.802 208.899 572.802 208.899Z" fill="#FFC93D"/>
<path d="M580.622 197.92C578.67 201.21 571.417 204.043 568.392 205.084C568.427 204.914 568.462 204.745 568.494 204.58C568.988 202.135 569.414 200.036 569.414 200.036L578.279 196.148C580.236 196.125 581.427 196.566 580.622 197.92Z" fill="#FCA56B"/>
<path d="M566.077 199.49C566.077 199.49 580.333 203.971 582.987 195.051C585.641 186.13 589.268 180.701 580.278 177.463C571.289 174.224 568.5 177.1 566.889 179.862C565.28 182.624 562.437 198.095 566.077 199.49Z" fill="#FFB27D"/>
<path d="M567.452 179.003C567.452 179.003 568.339 189.392 570.488 188.946C572.638 188.499 574.586 188.17 574.265 191.3C573.944 194.43 570.957 198.04 577.576 198.608C584.195 199.176 593.75 182.124 591.938 178.887C586.711 169.548 559.892 167.608 567.452 179.003Z" fill="#163560"/>
<path d="M511.151 241.933C479.937 267.348 442.542 286.884 400.002 299.999C365.449 310.648 327.166 317.174 286.212 319.397C275.044 320.003 264.167 320.267 253.696 320.267C232.524 320.267 213.003 319.191 195.989 317.693L202.873 285.125C226.332 287.037 254.35 288.039 284.62 286.397C323.161 284.31 359.054 278.208 391.297 268.272C430.096 256.309 464.031 238.636 492.151 215.733L511.151 241.933Z" fill="#FFC93D"/>
<path d="M278.423 176.989C274.082 174.738 270.604 176.153 270.604 176.153C257.323 174.593 253.449 190.082 253.629 195.411C253.807 200.74 254.417 206.464 248.487 213.387C231.354 233.386 267.235 234.268 267.235 234.268C267.538 218.29 286.691 224.12 285.852 225.739C310.405 231.631 288.293 182.111 278.423 176.989Z" fill="#163560"/>
<path d="M227.193 243.602C227.193 243.602 224.857 240.046 222.975 239.977C221.092 239.907 217.607 238.931 217.886 239.628C218.165 240.325 220.326 240.395 220.535 240.813C220.744 241.232 217.328 241.859 216.352 241.929C215.376 241.999 213.075 241.929 213.145 242.417C213.215 242.905 217.292 244.927 220.168 244.648C223.044 244.369 226.6 245.484 226.6 245.484L227.193 243.602Z" fill="#FFB27D"/>
<path d="M260.97 244.752C260.97 244.752 259.7 247.266 257.397 250.154C254.622 253.63 250.343 257.646 244.97 258.439C242.404 258.817 239.894 258.265 237.587 257.24C237.581 257.238 237.579 257.238 237.579 257.238C231.053 254.342 226.147 247.68 226.147 247.68C224.997 244.543 226.879 242.416 226.879 242.416C226.879 242.416 240.055 245.379 241.31 244.752C242.565 244.125 249.885 223.037 251.627 220.387C253.371 217.737 259.311 216.361 259.311 216.361L260.97 244.752Z" fill="#23ACCA"/>
<path d="M257.397 250.155C254.622 253.631 250.343 257.647 244.97 258.439C242.404 258.818 239.894 258.266 237.587 257.241C237.842 257.274 244.359 258.079 246.957 253.432C249.607 248.691 252.472 241.162 256.408 243.671C258.106 244.755 258.031 247.446 257.397 250.155Z" fill="#ED7D2B"/>
<path d="M310.127 386.981C310.127 386.981 314.148 390.65 313.363 393.257C312.579 395.864 308.951 397.602 308.46 400.789C307.97 403.975 306.008 405.713 304.243 405.713C302.478 405.713 295.828 405.713 295.828 405.713C295.828 405.713 294.529 403.471 297.667 402.795C300.805 402.119 301.988 398.375 301.792 394.899C301.596 391.423 302.086 386.788 302.086 386.788L308.754 385.243L310.127 386.981Z" fill="#36599E"/>
<path d="M276.098 388.539C276.098 388.539 277.544 404.083 275.779 404.952L253.19 404.905C253.19 404.905 253.19 402.298 256.818 401.719C260.446 401.14 266.82 399.016 267.899 394.284C268.977 389.553 276.098 388.539 276.098 388.539Z" fill="#2B478B"/>
<path d="M292.195 277.025C287.547 266.6 284.702 263.608 285.246 260.372C285.65 257.964 284.015 215.471 284.015 215.471C283.463 215.3 282.358 215.147 281.753 215.013C279.846 214.589 278.268 213.25 277.612 211.411C276.82 209.195 276.192 205.923 276.206 201.824L275.611 201.941L265.598 203.923C265.598 203.923 265.826 207.074 265.833 210.042C265.833 210.067 265.833 210.092 265.833 210.116C265.846 212.694 264.154 214.97 261.677 215.685C260.413 216.05 259.313 216.361 259.313 216.361C259.313 216.361 255.636 226.858 254.934 237.641C254.232 248.424 261.619 253.108 254.878 274.656C247.996 296.663 294.763 282.785 292.195 277.025Z" fill="#FFB27D"/>
<path d="M265.598 203.923C265.598 203.923 265.826 207.074 265.832 210.042C271.435 209.884 274.397 204.773 275.61 201.941L265.598 203.923Z" fill="#E8945B"/>
<path d="M263.727 206.734C263.727 206.734 276.983 206.952 276.992 198.695C277.001 190.438 278.718 184.905 270.255 184.416C261.792 183.928 260.144 187.077 259.471 189.832C258.797 192.588 260.279 206.464 263.727 206.734Z" fill="#FFB27D"/>
<path d="M264.218 184.215C264.218 184.215 267.848 193.902 273.418 195.335C278.988 196.766 281.403 195.274 281.403 195.274C281.403 195.274 277.131 191.88 276.245 185.956C276.245 185.956 266.956 179.604 264.218 184.215Z" fill="#163560"/>
<path d="M265.117 185C265.117 185 262.426 186.007 261.319 187.97C260.235 189.889 259.312 192.431 259.526 195.55C259.526 195.55 256.792 188.965 259.865 185.241C263.124 181.291 265.117 185 265.117 185Z" fill="#163560"/>
<path d="M266.611 201.611C266.611 201.611 265.697 202.815 263.867 202.728C262.393 202.659 261.824 201.38 261.824 201.38C261.824 201.38 264.532 200.729 266.611 201.611Z" fill="#EBF3FA"/>
<path d="M293.475 234.268C293.475 234.268 293.811 239.014 293.475 244.709C293.25 248.484 289.432 253.54 288.89 254.791C287.531 257.929 285.998 258.439 285.998 258.439L274.137 261.346L269.967 262.366L256.816 258.439C256.816 258.439 250.826 241.719 253.231 232.308C255.636 222.896 259.311 216.361 259.311 216.361C259.311 216.361 270.042 226.868 284.015 215.47L293.475 234.268Z" fill="#23ACCA"/>
<path d="M257.653 260.976C257.653 260.976 251.14 281.248 250.721 288.15C250.303 295.051 263.171 386.195 263.689 389.375C264.177 392.373 267.899 394.284 267.899 394.284C267.899 394.284 269.611 395.294 272.054 394.604C275.444 393.647 276.516 392.501 276.516 392.501C276.516 392.501 281.585 327.497 278.448 304.277C275.311 281.057 275.274 260.976 275.274 260.976H257.653Z" fill="#26395F"/>
<path d="M285.245 260.372C285.245 260.372 295.18 273.702 296.106 282.712C297.032 291.723 297.559 323.373 299.532 332.157C301.505 340.941 308.754 357.845 308.754 385.243C308.754 385.243 308 386.814 305.674 387.65C304.93 387.918 303.933 388.177 302.965 388.399C301.046 388.839 299.078 387.901 298.202 386.138C293.301 376.27 277.688 344.443 276.888 337.837C276.322 333.161 271.392 302.218 260.639 284.061C258.058 279.702 262.224 262.367 262.224 262.367L285.245 260.372Z" fill="#2D4A84"/>
<path d="M266.317 201.833C266.317 201.833 266.088 202.805 263.667 202.655C263.667 202.655 261.635 202.53 261.697 201.46C261.697 201.46 263.667 200.699 266.317 201.833Z" fill="white"/>
<path d="M256.612 257.848C256.612 257.848 259.226 259.916 264.42 260.021C270.624 260.145 285.997 258.439 285.997 258.439C285.997 258.439 286.68 260.347 286.652 262.362C286.652 262.362 267.877 267.098 256.998 263.054C256.998 263.054 255.595 260.414 256.612 257.848Z" fill="#233862"/>
<path d="M262.932 265.366C261.371 265.366 260.101 263.929 260.101 262.162C260.101 260.396 261.371 258.958 262.932 258.958C264.493 258.958 265.763 260.396 265.763 262.162C265.763 263.929 264.493 265.366 262.932 265.366ZM262.932 259.897C261.889 259.897 261.039 260.913 261.039 262.162C261.039 263.412 261.889 264.429 262.932 264.429C263.975 264.429 264.825 263.412 264.825 262.162C264.825 260.913 263.975 259.897 262.932 259.897Z" fill="white"/>
<path d="M283.297 235.196L264.061 251.946L286.989 278.278L306.226 261.528L283.297 235.196Z" fill="#B5453C"/>
<path d="M281.658 261.575C281.658 261.575 274.61 262.399 274.633 264.072C274.654 265.745 276.388 269.183 277.259 269.335C278.13 269.488 282.995 264.687 282.995 264.687L281.658 261.575Z" fill="#FFB27D"/>
<path d="M284.015 215.47C284.015 215.47 293.425 216.13 297.032 224.898C300.639 233.667 307.483 248.389 307.483 250.866C307.483 253.342 303.66 260.977 283.129 265.366C283.129 265.366 281.006 263.133 281.135 261.366C281.135 261.366 293.95 250.358 293.916 249.072C293.851 246.638 291.815 243.425 280.563 232.17C277.504 229.109 284.015 215.47 284.015 215.47Z" fill="#23ACCA"/>
<path d="M80.4713 405.692H80.3783C79.8305 405.692 79.39 405.241 79.4027 404.694L80.8824 340.559L85.2411 340.051L81.5241 404.698C81.4922 405.256 81.0302 405.692 80.4713 405.692Z" fill="#25ACCA"/>
<path d="M150.561 405.692H150.654C151.202 405.692 151.642 405.241 151.63 404.694L150.15 340.559L145.791 340.051L149.508 404.698C149.54 405.256 150.002 405.692 150.561 405.692Z" fill="#25ACCA"/>
<path d="M77.5828 336.582V292.634C77.5828 284.901 83.8517 278.632 91.5844 278.632H123.248C130.981 278.632 137.25 284.901 137.25 292.634V338.261L77.5828 336.582Z" fill="#25ACCA"/>
<path d="M142.923 343.52H81.7869C79.465 343.52 77.5828 341.637 77.5828 339.316V336.582H142.923V343.52Z" fill="#25ACCA"/>
<path d="M150.249 343.52H103.998C102.281 343.52 100.889 342.128 100.889 340.411V339.69C100.889 337.974 102.281 336.582 103.998 336.582H150.249C151.966 336.582 153.358 337.974 153.358 339.69V340.411C153.358 342.128 151.966 343.52 150.249 343.52Z" fill="#25ACCA"/>
<path d="M148.454 325.631C143.918 333.526 138.212 336.573 138.212 336.573H114.477C114.477 336.573 151.914 319.608 148.454 325.631Z" fill="#233862"/>
<path d="M130.224 386.714C129.605 387.423 129.527 388.216 129.833 389.061C129.833 389.065 129.835 389.07 129.839 389.073C130.405 390.637 132.275 392.384 134.448 394.129C134.725 394.353 134.972 394.557 135.187 394.746C135.244 394.795 135.3 394.845 135.353 394.894C135.397 394.933 135.439 394.973 135.481 395.01C137.507 396.877 136.745 397.305 140.384 401.094C144.534 405.412 147.391 405.49 148.204 405.097C148.892 404.761 147.495 402.471 145.947 399.897C145.871 399.773 145.798 399.648 145.721 399.522C145.515 399.18 145.31 398.832 145.105 398.488C143.291 395.391 143.757 393.937 144.187 389.327C144.537 385.581 150.016 368.397 150.016 368.397L142.063 367.027C142.063 367.027 139.667 380.71 137.029 382.817C135.618 383.94 134.038 383.955 132.682 384.787C132.586 384.845 132.492 384.905 132.4 384.965C131.629 385.476 130.844 386.004 130.224 386.714Z" fill="#FFB27D"/>
<path d="M130.224 386.714C129.605 387.423 129.527 388.215 129.833 389.061C129.833 389.065 129.835 389.07 129.839 389.073C130.532 390.635 132.355 392.374 134.455 394.113C134.729 394.34 134.972 394.55 135.187 394.745C135.244 394.795 135.3 394.845 135.353 394.894C135.397 394.932 135.439 394.972 135.481 395.009C137.507 396.877 136.745 397.305 140.384 401.094C144.534 405.412 147.391 405.49 148.204 405.096C148.892 404.761 147.495 402.471 145.947 399.897C145.139 399.601 141.386 398.076 138.549 394.446C136.05 391.257 134.384 387.16 132.682 384.787C132.586 384.845 132.492 384.904 132.4 384.965C131.629 385.476 130.844 386.004 130.224 386.714Z" fill="#233862"/>
<path d="M194.351 381.747C194.842 384.202 198.341 383.793 202.251 382.837C206.16 381.882 205.231 383.018 210.795 382.402C216.359 381.786 218.045 379.711 218.214 378.884C218.366 378.15 215.617 377.891 212.668 377.551C212.297 377.51 211.925 377.464 211.553 377.418C208.223 377 205.785 374.852 202.76 373.087C199.896 371.416 195.621 364.607 195.621 364.607L187.991 365.211C187.991 365.211 191.995 371.293 193.544 373.937C194.455 375.493 194.407 377.549 194.293 379.137C194.234 380 194.177 380.883 194.351 381.747Z" fill="#FFB27D"/>
<path d="M202.251 382.837C206.16 381.881 205.231 383.018 210.795 382.402C216.359 381.786 218.045 379.711 218.214 378.884C218.366 378.149 215.617 377.891 212.668 377.551L212.64 377.607C212.64 377.607 209.304 379.973 204.672 380.085C200.897 380.176 196.899 379.095 194.292 379.137C194.233 380 194.177 380.882 194.351 381.747C194.842 384.202 198.341 383.792 202.251 382.837Z" fill="#233862"/>
<path d="M165.109 332.956L157.976 352.15L148.664 377.212C148.664 377.212 146.137 377.456 143.717 376.76C141.488 376.116 138.932 374.431 138.932 374.431C138.932 374.431 141.517 347.521 146.341 332.074C147.577 328.109 148.963 324.902 150.492 323.096C157.969 314.259 165.109 332.956 165.109 332.956Z" fill="#233862"/>
<path d="M157.857 302.472C153.184 300.965 139.855 302.901 126.466 305.522L123.663 300.898L94.7433 298.639C94.7433 298.639 85.2002 319.802 90.4248 333.287C91.1929 335.269 92.7186 336.54 95.3194 336.581C95.3203 336.583 95.7406 336.58 95.7421 336.581C95.7421 336.581 112.954 336.571 118.543 336.571C132.925 336.571 148.981 326.685 151.057 326.27C154.457 325.59 155.817 332.389 159.217 339.528C162.616 346.667 191.172 371.144 191.172 371.144C191.172 371.144 195.561 371.187 197.374 370.508C199.324 369.776 200.037 368.827 200.037 368.827C200.037 368.827 168.396 305.872 157.857 302.472Z" fill="#26395F"/>
<path d="M122.525 216.69C118.82 214.744 113.183 214.481 112.267 214.358C101.309 212.885 94.7132 228.809 94.3253 233.635C93.6103 242.528 88.9054 243.884 82.2831 249.454C69.0047 260.622 72.8986 273.6 80.1592 278.421C84.5153 281.315 92.194 278.421 92.194 278.421C92.3029 278.497 113.194 266.742 123.493 261.072C138.931 258.877 131.966 221.647 122.525 216.69Z" fill="#B5453C"/>
<path d="M114.861 256.246C114.907 256.275 109.794 258.02 106.376 256.506C103.16 255.085 100.724 249.794 100.772 249.791C102.235 249.724 103.841 248.445 105.077 240.053L105.7 240.276L116.174 244.045C116.174 244.045 115.415 247.406 114.924 250.605C114.511 253.292 114.289 255.866 114.861 256.246Z" fill="#FFB27D"/>
<path d="M116.174 244.045C116.174 244.045 115.415 247.406 114.924 250.606C108.909 249.523 106.547 243.529 105.7 240.276L116.174 244.045Z" fill="#ED975D"/>
<path d="M117.734 247.381C117.734 247.381 103.404 245.457 104.739 236.552C106.074 227.646 105.124 221.4 114.33 222.252C123.535 223.103 124.799 226.767 125.077 229.848C125.354 232.929 121.496 247.652 117.734 247.381Z" fill="#FFB27D"/>
<path d="M124.555 224.966C124.555 224.966 115.382 232.872 109.142 233.509C102.902 234.146 100.54 232.144 100.54 232.144C100.54 232.144 104.218 229.09 106.431 224.162C107.083 222.709 108.462 221.712 110.048 221.576C114.504 221.191 122.95 221.015 124.555 224.966Z" fill="#B5453C"/>
<path d="M118.82 224.258C118.82 224.258 121.889 227.225 122.856 229.426C123.789 231.55 124.068 236.629 123.325 238.647C123.325 238.647 128.107 229.35 125.4 224.833C122.529 220.043 118.82 224.258 118.82 224.258Z" fill="#B5453C"/>
<path d="M126.928 277.354C126.495 306.362 126.809 300.301 123.636 303.053C122.871 303.716 120.722 304.111 117.893 304.297C108.999 304.888 93.3632 303.422 92.7684 301.779C90.7166 296.091 92.1652 294.324 90.4534 285.616C90.275 284.69 90.0542 283.688 89.795 282.596C88.3679 276.615 86.9788 274.581 92.0419 264.972C96.6338 256.269 101.404 249.205 101.833 249.46C113.947 256.651 114.925 250.607 114.925 250.607C114.925 250.607 127.141 263.206 126.928 277.354Z" fill="#93BDEC"/>
<path d="M157.976 352.151L148.663 377.213C148.663 377.213 146.136 377.457 143.716 376.761C141.488 376.117 138.931 374.432 138.931 374.432C138.931 374.432 141.517 347.522 146.341 332.075L157.976 352.151Z" fill="#2D4A84"/>
<path d="M114.925 250.605C114.925 250.605 127.39 252.719 128.853 258.085C130.317 263.452 138.931 295.004 138.931 295.004C138.931 295.004 132.594 296.142 129.667 293.215C126.739 290.288 119.481 266.055 119.481 266.055L114.925 250.605Z" fill="#93BDEC"/>
<path d="M117.893 304.298C108.998 304.889 93.3629 303.423 92.7681 301.779C90.7163 296.092 92.1648 294.325 90.4531 285.617L94.7433 273.536C94.7433 273.536 94.0337 286.989 98.0012 290.527C101.964 294.066 114.245 297.357 116.173 300.314C117.103 301.733 117.715 303.156 117.893 304.298Z" fill="#709BCC"/>
<path d="M107.702 298.64C107.702 298.64 116.477 296.686 117.893 297.465C119.309 298.244 122.769 301.08 123.202 302.067C123.636 303.053 120.051 301.318 118.884 301.005C118.129 300.802 116.141 301.493 115.156 301.821C111.015 303.202 108.477 302.491 108.477 302.491L107.702 298.64Z" fill="#FFB27D"/>
<path d="M101.825 249.454C101.825 249.454 90.0423 250.179 85.9635 255.868C80.2219 263.876 68.8316 298.006 75.3594 302.558C82.7108 307.684 108.818 303.899 108.818 303.899C108.818 303.899 109.686 299.838 108.477 297.874C107.269 295.909 87.6258 292.736 86.7191 291.83C85.8125 290.923 98.0517 274.151 98.0517 271.431C98.0517 268.712 101.825 249.454 101.825 249.454Z" fill="#93BDEC"/>
<path d="M118.318 299.907C118.318 299.907 120.157 302.279 120.759 302.562C121.362 302.846 121.751 302.775 121.751 302.775L120.512 300.545L118.318 299.907Z" fill="#FFB27D"/>
<path d="M117.893 297.465L123.239 300.061C123.239 300.061 123.011 300.433 122.353 300.403C121.695 300.373 120.035 299.766 120.035 299.766L117.893 297.465Z" fill="#FFB27D"/>
<path d="M118.826 306.195H163.926L177.493 274.563H132.462L118.826 306.195Z" fill="#F77D48"/>
<path d="M164.454 304.145H104.899V306.143H163.926L164.454 304.145Z" fill="#F77D48"/>
<path d="M152.541 290.379C152.882 289.267 152.196 288.366 151.01 288.366C149.824 288.366 148.587 289.267 148.247 290.379C147.907 291.491 148.593 292.392 149.779 292.392C150.965 292.392 152.201 291.491 152.541 290.379Z" fill="#EBF3FA"/>
<path d="M230.611 406.574H230.735C231.459 406.574 232.042 405.916 232.025 405.117L230.068 311.539L224.303 310.797L229.219 405.123C229.261 405.938 229.873 406.574 230.611 406.574Z" fill="#233862"/>
<path d="M109.103 406.574H108.98C108.256 406.574 107.673 405.916 107.69 405.117L109.647 311.539L115.411 310.797L110.495 405.123C110.453 405.938 109.842 406.574 109.103 406.574Z" fill="#233862"/>
<path d="M232.881 312.891H101.572C100.412 312.891 99.4716 311.95 99.4716 310.79V308.295C99.4716 307.135 100.412 306.195 101.572 306.195H232.881C234.041 306.195 234.981 307.135 234.981 308.295V310.79C234.981 311.95 234.041 312.891 232.881 312.891Z" fill="#233862"/>
<path d="M712.894 407.85H1.11359C0.549602 407.85 0.0879517 407.388 0.0879517 406.824V405.831C0.0879517 405.267 0.549602 404.805 1.11359 404.805H712.894C713.458 404.805 713.92 405.267 713.92 405.831V406.824C713.92 407.388 713.458 407.85 712.894 407.85Z" fill="#26395F"/>
</svg>
